{"glyphs":{"0":{"ha":1151,"x_min":83,"x_max":1068,"o":"m 575 -21 q 943 119 818 -21 q 1068 531 1068 258 q 943 940 1068 804 q 575 1076 818 1076 q 208 940 333 1076 q 83 531 83 804 q 208 119 83 258 q 575 -21 333 -21 m 599 100 q 538 67 572 69 q 475 86 504 65 q 435 143 446 107 l 247 742 q 246 851 228 807 q 307 908 264 894 q 406 900 350 922 l 932 689 q 992 628 982 669 q 965 543 1001 586 l 599 100 "},"1":{"ha":629,"x_min":11,"x_max":521,"o":"m 515 917 q 498 1003 515 974 q 453 1044 481 1033 q 394 1056 425 1056 l 161 1056 q 48 1011 85 1056 q 14 907 11 967 q 42 831 17 861 q 106 791 68 801 q 185 794 144 781 q 260 846 226 807 l 360 967 q 408 992 382 993 q 449 965 435 990 q 444 892 463 939 l 208 251 q 188 121 183 183 q 229 19 192 58 q 339 -21 267 -21 q 478 32 435 -21 q 519 207 521 85 l 515 917 "},"2":{"ha":1157,"x_min":90,"x_max":1067,"o":"m 1022 715 q 1008 870 1022 803 q 953 983 993 938 q 838 1052 914 1029 q 639 1075 763 1075 q 481 1056 560 1075 q 332 1003 403 1036 q 207 928 261 969 q 122 844 153 888 q 90 760 90 800 q 120 682 90 711 q 198 656 150 653 q 299 708 246 660 l 578 963 q 683 1003 618 999 q 801 986 749 1007 q 884 931 864 963 q 856 867 904 899 l 254 460 q 172 394 207 428 q 118 317 138 361 q 99 210 99 274 q 134 99 99 146 q 231 26 169 51 q 374 0 293 0 l 676 0 q 808 17 740 0 q 935 73 876 35 q 1031 172 994 111 q 1067 321 1067 233 q 1044 416 1067 379 q 972 453 1021 453 q 928 439 951 453 q 899 396 904 425 q 924 321 893 367 l 972 249 q 983 199 989 225 q 951 157 978 172 q 878 150 925 142 l 315 254 q 252 288 272 263 q 242 348 232 314 q 297 415 253 382 q 438 489 369 469 q 597 488 507 508 l 747 453 q 895 465 833 433 q 990 563 957 496 q 1022 715 1022 631 "},"3":{"ha":1138,"x_min":75,"x_max":1068,"o":"m 536 397 q 486 393 504 385 q 470 422 468 401 q 500 461 472 442 l 914 749 q 987 819 961 782 q 1013 896 1013 857 q 958 1010 1013 965 q 792 1056 903 1056 l 276 1056 q 173 1040 219 1056 q 101 991 126 1025 q 78 901 75 957 q 103 817 81 846 q 158 778 125 788 q 231 774 192 769 q 307 788 269 778 q 374 807 344 799 l 858 950 q 910 949 885 957 q 936 908 935 942 q 922 861 936 882 q 860 825 908 840 l 318 653 q 226 607 257 633 q 186 552 196 581 q 176 497 176 524 q 208 406 176 447 q 318 354 239 364 l 815 293 q 906 265 879 285 q 932 214 932 244 q 904 162 932 185 q 815 144 876 139 l 204 199 q 101 181 126 206 q 76 122 76 156 q 108 47 76 79 q 213 -4 139 14 q 410 -22 286 -22 q 662 4 543 -22 q 872 81 781 31 q 1016 206 964 132 q 1068 374 1068 279 q 1033 478 1068 438 q 940 528 997 518 q 814 511 882 539 l 536 397 "},"4":{"ha":1121,"x_min":42,"x_max":1079,"o":"m 906 -21 q 1040 26 1000 -21 q 1079 142 1079 74 q 1053 274 1079 203 l 982 464 q 905 556 958 529 q 790 554 851 582 l 321 336 q 288 328 303 328 q 258 338 269 328 q 247 365 247 349 q 258 397 247 381 q 290 429 268 414 l 801 786 q 855 845 838 811 q 872 914 872 879 q 824 1031 872 986 q 708 1076 776 1076 q 581 1030 644 1076 q 474 907 517 983 l 81 204 q 42 79 42 132 q 69 6 42 32 q 143 -21 97 -21 q 222 -2 174 -21 q 308 50 269 17 l 774 447 q 831 494 810 479 q 869 500 851 510 q 884 459 893 488 q 857 386 875 431 l 790 221 q 779 178 785 206 q 774 121 774 151 q 785 55 774 88 q 824 1 796 22 q 906 -21 853 -21 "},"5":{"ha":1107,"x_min":92,"x_max":1010,"o":"m 442 1054 q 251 1036 317 1054 q 160 979 185 1018 q 135 878 136 940 l 128 599 q 138 479 126 528 q 188 407 150 431 q 296 389 225 383 l 869 436 q 919 424 904 439 q 932 389 935 410 q 910 350 929 368 l 601 81 q 464 83 519 10 l 324 267 q 258 313 297 301 q 181 308 218 325 q 122 236 143 290 q 130 100 92 158 q 257 10 168 42 q 464 -21 346 -21 q 751 20 629 -21 q 942 147 874 61 q 1010 365 1010 232 q 994 522 1010 449 q 942 644 979 596 q 842 701 906 693 q 679 660 778 708 l 267 456 q 232 454 249 447 q 209 478 215 461 q 214 515 203 494 l 418 886 q 463 956 443 932 q 510 978 483 981 q 582 935 538 975 l 707 824 q 813 765 761 775 q 904 773 864 756 q 969 825 944 790 q 993 901 993 860 q 959 1010 993 965 q 833 1054 925 1054 l 442 1054 "},"6":{"ha":1189,"x_min":83,"x_max":1119,"o":"m 201 556 q 113 410 142 475 q 83 281 83 346 q 222 55 83 131 q 599 -21 360 -21 q 781 0 689 -21 q 950 66 874 21 q 1073 184 1026 111 q 1119 361 1119 257 q 1095 499 1119 435 q 1013 602 1071 563 q 856 642 956 642 l 686 642 q 635 663 647 642 q 646 711 624 685 l 758 842 q 799 901 782 869 q 815 960 815 933 q 772 1045 815 1013 q 669 1078 729 1078 q 596 1058 635 1078 q 525 994 557 1039 l 201 556 m 233 207 q 193 219 207 207 q 179 250 179 232 q 201 294 179 275 l 500 551 q 585 592 546 592 q 683 547 624 592 l 1006 306 q 1031 283 1022 293 q 1040 263 1040 274 q 1024 228 1040 244 q 958 213 1007 213 l 233 207 "},"7":{"ha":999,"x_min":17,"x_max":999,"o":"m 425 542 q 335 423 381 488 q 263 290 290 358 q 240 154 235 221 q 290 28 247 78 q 411 -21 333 -21 q 495 3 456 -21 q 551 76 535 26 q 542 199 568 125 l 472 399 q 469 486 454 453 q 536 544 483 519 l 806 671 q 952 778 906 718 q 999 901 999 838 q 973 982 999 951 q 906 1028 947 1013 q 819 1050 865 1044 q 732 1056 774 1056 l 250 1056 q 128 1038 182 1056 q 46 983 75 1021 q 21 883 17 946 q 51 785 26 818 q 110 741 75 751 q 179 731 146 731 q 255 745 207 731 q 368 810 303 760 l 560 956 q 638 989 604 990 q 689 972 671 988 q 707 917 713 954 q 657 828 701 881 l 425 542 "},"8":{"ha":1151,"x_min":69,"x_max":1082,"o":"m 121 842 q 151 735 121 781 q 251 657 182 690 q 436 594 319 624 q 472 556 472 586 q 463 532 472 542 q 429 519 453 522 l 276 507 q 151 469 196 501 q 88 386 106 438 q 69 267 69 335 q 114 122 69 178 q 237 35 158 65 q 418 -8 315 4 q 638 -21 521 -19 q 869 9 769 -21 q 1026 99 969 39 q 1082 246 1082 158 q 1024 451 1082 388 q 846 519 965 515 l 732 524 q 700 532 710 525 q 688 549 690 539 q 710 585 682 572 l 940 690 q 1019 733 990 714 q 1058 778 1047 753 q 1069 843 1069 803 q 1017 967 1069 915 q 842 1047 964 1018 q 514 1076 721 1075 q 322 1053 399 1076 q 202 993 246 1029 q 140 917 158 957 q 121 842 121 876 m 372 931 q 367 992 354 969 q 414 1019 381 1015 q 490 1003 447 1024 l 829 839 q 867 796 868 821 q 835 749 867 771 l 650 618 q 569 592 610 589 q 506 643 528 596 l 372 931 m 972 258 q 999 210 1004 236 q 951 183 993 183 l 231 179 q 190 194 201 179 q 183 228 178 208 q 207 261 188 247 l 483 458 q 586 500 544 501 q 685 458 628 499 l 972 258 "},"9":{"ha":1189,"x_min":69,"x_max":1106,"o":"m 988 500 q 1076 646 1047 581 q 1106 775 1106 711 q 968 1001 1106 925 q 590 1076 831 1076 q 408 1056 500 1076 q 239 990 315 1035 q 116 872 163 944 q 69 694 69 799 q 94 558 69 622 q 176 453 118 493 q 333 414 235 414 l 503 414 q 555 392 543 414 q 543 344 567 371 l 431 214 q 390 155 407 188 q 374 96 374 122 q 417 11 374 44 q 519 -22 460 -22 q 594 -2 556 -22 q 664 61 632 18 l 988 500 m 956 849 q 997 836 983 849 q 1010 806 1010 824 q 988 761 1010 781 l 689 504 q 604 465 643 465 q 506 508 565 464 l 183 750 q 158 772 167 763 q 149 793 149 782 q 166 828 149 813 q 231 843 183 843 l 956 849 "}," ":{"ha":556,"x_min":0,"x_max":0,"o":""},"A":{"ha":1111,"x_min":42,"x_max":1063,"o":"m 264 315 q 152 297 203 314 q 72 246 101 281 q 42 156 42 211 q 67 51 42 90 q 133 -4 93 13 q 213 -21 172 -21 q 322 7 269 -21 q 417 72 374 35 q 493 136 461 110 l 629 253 q 692 275 665 285 q 718 208 718 265 l 718 136 q 760 26 718 72 q 886 -21 801 -21 q 999 15 958 -21 q 1051 114 1039 51 q 1047 254 1063 176 l 921 922 q 866 1035 907 993 q 763 1076 825 1076 q 681 1063 718 1076 q 603 1022 644 1050 q 501 944 563 993 l 222 722 q 146 642 175 683 q 117 557 117 601 q 160 448 117 493 q 265 403 204 403 q 324 411 292 403 q 386 443 356 419 q 439 513 417 467 l 607 857 q 637 915 618 879 q 681 981 656 950 q 736 1017 707 1011 q 805 992 781 1025 q 822 903 829 960 l 763 411 q 719 342 757 358 q 622 324 682 325 l 264 315 "},"Á":{"ha":1111,"x_min":42,"x_max":1063,"o":"m 939 1165 q 1016 1212 999 1176 q 1021 1288 1033 1247 q 984 1338 1011 1321 q 924 1353 957 1354 q 863 1328 890 1351 l 660 1161 q 654 1131 646 1150 q 685 1117 663 1113 l 939 1165 m 264 315 q 152 297 203 314 q 72 246 101 281 q 42 156 42 211 q 67 51 42 90 q 133 -4 93 13 q 213 -21 172 -21 q 322 7 269 -21 q 417 72 374 35 q 493 136 461 110 l 629 253 q 692 275 665 285 q 718 208 718 265 l 718 136 q 760 26 718 72 q 886 -21 801 -21 q 999 15 958 -21 q 1051 114 1039 51 q 1047 254 1063 176 l 921 922 q 866 1035 907 993 q 763 1076 825 1076 q 681 1063 718 1076 q 603 1022 644 1050 q 501 944 563 993 l 222 722 q 146 642 175 683 q 117 557 117 601 q 160 448 117 493 q 265 403 204 403 q 324 411 292 403 q 386 443 356 419 q 439 513 417 467 l 607 857 q 637 915 618 879 q 681 981 656 950 q 736 1017 707 1011 q 805 992 781 1025 q 822 903 829 960 l 763 411 q 719 342 757 358 q 622 324 682 325 l 264 315 "},"Ă":{"ha":1111,"x_min":42,"x_max":1063,"o":"m 733 1121 q 874 1133 813 1119 q 969 1183 935 1147 q 1004 1281 1004 1219 q 981 1332 1004 1315 q 933 1349 958 1349 q 879 1334 903 1349 q 840 1283 856 1319 q 798 1196 818 1232 q 733 1160 778 1160 q 669 1196 689 1160 q 626 1283 649 1232 q 588 1334 611 1319 q 533 1349 565 1349 q 485 1332 508 1349 q 463 1281 463 1315 q 497 1183 463 1219 q 593 1133 532 1147 q 733 1121 654 1119 m 264 315 q 152 297 203 314 q 72 246 101 281 q 42 156 42 211 q 67 51 42 90 q 133 -4 93 13 q 213 -21 172 -21 q 322 7 269 -21 q 417 72 374 35 q 493 136 461 110 l 629 253 q 692 275 665 285 q 718 208 718 265 l 718 136 q 760 26 718 72 q 886 -21 801 -21 q 999 15 958 -21 q 1051 114 1039 51 q 1047 254 1063 176 l 921 922 q 866 1035 907 993 q 763 1076 825 1076 q 681 1063 718 1076 q 603 1022 644 1050 q 501 944 563 993 l 222 722 q 146 642 175 683 q 117 557 117 601 q 160 448 117 493 q 265 403 204 403 q 324 411 292 403 q 386 443 356 419 q 439 513 417 467 l 607 857 q 637 915 618 879 q 681 981 656 950 q 736 1017 707 1011 q 805 992 781 1025 q 822 903 829 960 l 763 411 q 719 342 757 358 q 622 324 682 325 l 264 315 "},"Ǎ":{"ha":1111,"x_min":42,"x_max":1063,"o":"m 740 1163 q 704 1185 721 1163 l 626 1297 q 588 1339 604 1329 q 551 1349 571 1349 q 487 1320 511 1349 q 463 1239 463 1292 q 483 1170 463 1200 q 551 1136 503 1140 q 646 1129 599 1132 q 740 1128 693 1126 q 835 1129 788 1126 q 929 1136 882 1132 q 998 1170 978 1140 q 1018 1239 1018 1200 q 994 1320 1018 1292 q 929 1349 969 1349 q 894 1339 911 1349 q 854 1297 876 1329 l 776 1185 q 740 1163 760 1163 m 264 315 q 152 297 203 314 q 72 246 101 281 q 42 156 42 211 q 67 51 42 90 q 133 -4 93 13 q 213 -21 172 -21 q 322 7 269 -21 q 417 72 374 35 q 493 136 461 110 l 629 253 q 692 275 665 285 q 718 208 718 265 l 718 136 q 760 26 718 72 q 886 -21 801 -21 q 999 15 958 -21 q 1051 114 1039 51 q 1047 254 1063 176 l 921 922 q 866 1035 907 993 q 763 1076 825 1076 q 681 1063 718 1076 q 603 1022 644 1050 q 501 944 563 993 l 222 722 q 146 642 175 683 q 117 557 117 601 q 160 448 117 493 q 265 403 204 403 q 324 411 292 403 q 386 443 356 419 q 439 513 417 467 l 607 857 q 637 915 618 879 q 681 981 656 950 q 736 1017 707 1011 q 805 992 781 1025 q 822 903 829 960 l 763 411 q 719 342 757 358 q 622 324 682 325 l 264 315 "},"Â":{"ha":1111,"x_min":42,"x_max":1063,"o":"m 740 1314 q 776 1292 760 1314 l 854 1179 q 894 1138 876 1149 q 929 1128 911 1128 q 994 1156 969 1128 q 1018 1238 1018 1185 q 998 1307 1018 1278 q 929 1340 978 1336 q 835 1347 882 1344 q 740 1349 788 1350 q 646 1347 693 1350 q 551 1340 599 1344 q 483 1307 503 1336 q 463 1238 463 1278 q 487 1156 463 1185 q 551 1128 511 1128 q 588 1138 571 1128 q 626 1179 604 1149 l 704 1292 q 740 1314 721 1314 m 264 315 q 152 297 203 314 q 72 246 101 281 q 42 156 42 211 q 67 51 42 90 q 133 -4 93 13 q 213 -21 172 -21 q 322 7 269 -21 q 417 72 374 35 q 493 136 461 110 l 629 253 q 692 275 665 285 q 718 208 718 265 l 718 136 q 760 26 718 72 q 886 -21 801 -21 q 999 15 958 -21 q 1051 114 1039 51 q 1047 254 1063 176 l 921 922 q 866 1035 907 993 q 763 1076 825 1076 q 681 1063 718 1076 q 603 1022 644 1050 q 501 944 563 993 l 222 722 q 146 642 175 683 q 117 557 117 601 q 160 448 117 493 q 265 403 204 403 q 324 411 292 403 q 386 443 356 419 q 439 513 417 467 l 607 857 q 637 915 618 879 q 681 981 656 950 q 736 1017 707 1011 q 805 992 781 1025 q 822 903 829 960 l 763 411 q 719 342 757 358 q 622 324 682 325 l 264 315 "},"Ä":{"ha":1111,"x_min":42,"x_max":1063,"o":"m 588 1160 q 656 1179 624 1165 q 705 1219 688 1193 q 711 1288 722 1246 q 674 1346 701 1332 q 615 1354 647 1360 q 545 1333 581 1349 q 490 1291 510 1318 q 479 1224 469 1264 q 510 1171 488 1192 q 588 1160 532 1150 m 839 1183 q 906 1163 871 1169 q 969 1170 940 1157 q 1013 1224 999 1183 q 1013 1292 1028 1265 q 968 1332 997 1318 q 897 1353 936 1347 q 827 1348 858 1360 q 782 1297 796 1336 q 780 1236 772 1265 q 839 1183 788 1207 m 264 315 q 152 297 203 314 q 72 246 101 281 q 42 156 42 211 q 67 51 42 90 q 133 -4 93 13 q 213 -21 172 -21 q 322 7 269 -21 q 417 72 374 35 q 493 136 461 110 l 629 253 q 692 275 665 285 q 718 208 718 265 l 718 136 q 760 26 718 72 q 886 -21 801 -21 q 999 15 958 -21 q 1051 114 1039 51 q 1047 254 1063 176 l 921 922 q 866 1035 907 993 q 763 1076 825 1076 q 681 1063 718 1076 q 603 1022 644 1050 q 501 944 563 993 l 222 722 q 146 642 175 683 q 117 557 117 601 q 160 448 117 493 q 265 403 204 403 q 324 411 292 403 q 386 443 356 419 q 439 513 417 467 l 607 857 q 637 915 618 879 q 681 981 656 950 q 736 1017 707 1011 q 805 992 781 1025 q 822 903 829 960 l 763 411 q 719 342 757 358 q 622 324 682 325 l 264 315 "},"À":{"ha":1111,"x_min":42,"x_max":1063,"o":"m 781 1117 q 811 1131 803 1113 q 806 1161 819 1150 l 603 1328 q 542 1353 575 1351 q 481 1338 508 1354 q 444 1288 454 1321 q 449 1212 432 1247 q 526 1165 467 1176 l 781 1117 m 264 315 q 152 297 203 314 q 72 246 101 281 q 42 156 42 211 q 67 51 42 90 q 133 -4 93 13 q 213 -21 172 -21 q 322 7 269 -21 q 417 72 374 35 q 493 136 461 110 l 629 253 q 692 275 665 285 q 718 208 718 265 l 718 136 q 760 26 718 72 q 886 -21 801 -21 q 999 15 958 -21 q 1051 114 1039 51 q 1047 254 1063 176 l 921 922 q 866 1035 907 993 q 763 1076 825 1076 q 681 1063 718 1076 q 603 1022 644 1050 q 501 944 563 993 l 222 722 q 146 642 175 683 q 117 557 117 601 q 160 448 117 493 q 265 403 204 403 q 324 411 292 403 q 386 443 356 419 q 439 513 417 467 l 607 857 q 637 915 618 879 q 681 981 656 950 q 736 1017 707 1011 q 805 992 781 1025 q 822 903 829 960 l 763 411 q 719 342 757 358 q 622 324 682 325 l 264 315 "},"Ā":{"ha":1111,"x_min":42,"x_max":1063,"o":"m 929 1156 q 1015 1184 993 1154 q 1026 1256 1038 1214 q 985 1307 1017 1294 q 875 1308 953 1319 l 558 1263 q 494 1210 494 1254 q 510 1176 494 1186 q 556 1165 525 1167 l 929 1156 m 264 315 q 152 297 203 314 q 72 246 101 281 q 42 156 42 211 q 67 51 42 90 q 133 -4 93 13 q 213 -21 172 -21 q 322 7 269 -21 q 417 72 374 35 q 493 136 461 110 l 629 253 q 692 275 665 285 q 718 208 718 265 l 718 136 q 760 26 718 72 q 886 -21 801 -21 q 999 15 958 -21 q 1051 114 1039 51 q 1047 254 1063 176 l 921 922 q 866 1035 907 993 q 763 1076 825 1076 q 681 1063 718 1076 q 603 1022 644 1050 q 501 944 563 993 l 222 722 q 146 642 175 683 q 117 557 117 601 q 160 448 117 493 q 265 403 204 403 q 324 411 292 403 q 386 443 356 419 q 439 513 417 467 l 607 857 q 637 915 618 879 q 681 981 656 950 q 736 1017 707 1011 q 805 992 781 1025 q 822 903 829 960 l 763 411 q 719 342 757 358 q 622 324 682 325 l 264 315 "},"Ą":{"ha":1111,"x_min":42,"x_max":1122,"o":"m 889 -142 q 842 -138 858 -150 q 825 -106 825 -126 q 834 -74 825 -86 q 865 -51 843 -61 l 981 1 q 993 13 990 6 q 1050 110 1038 47 q 1047 254 1063 174 l 921 922 q 866 1035 907 993 q 763 1076 825 1076 q 681 1063 718 1076 q 603 1022 644 1050 q 501 944 563 993 l 222 722 q 146 642 175 683 q 117 557 117 601 q 160 448 117 493 q 265 403 204 403 q 324 411 292 403 q 386 443 356 419 q 439 513 417 467 l 607 857 q 637 915 618 879 q 681 981 656 950 q 736 1017 707 1011 q 805 992 781 1025 q 822 903 829 960 l 763 411 q 719 342 757 358 q 622 324 682 325 l 264 315 q 152 297 203 314 q 72 246 101 281 q 42 156 42 211 q 67 51 42 90 q 133 -4 93 13 q 213 -21 172 -21 q 322 7 269 -21 q 417 72 374 35 q 493 136 461 110 l 629 253 q 692 275 665 285 q 718 208 718 265 l 718 136 q 737 56 718 93 q 794 0 756 19 l 774 -33 q 749 -122 744 -78 q 783 -201 753 -165 q 860 -257 813 -236 q 968 -278 908 -278 q 1078 -250 1033 -278 q 1122 -172 1122 -222 q 1102 -123 1122 -137 q 1051 -108 1082 -108 q 990 -115 1021 -107 l 889 -142 "},"Å":{"ha":1111,"x_min":42,"x_max":1063,"o":"m 690 1135 q 785 1126 738 1126 q 869 1146 833 1126 q 914 1217 906 1165 q 893 1298 924 1269 q 813 1335 863 1326 q 713 1343 765 1343 q 622 1324 661 1343 q 574 1257 583 1306 q 575 1206 569 1231 q 608 1164 581 1182 q 690 1135 635 1146 m 771 1182 q 710 1179 740 1174 q 675 1225 681 1185 q 682 1267 672 1253 q 707 1288 692 1282 q 772 1291 738 1297 q 811 1246 806 1285 q 807 1208 814 1225 q 771 1182 800 1190 m 264 315 q 152 297 203 314 q 72 246 101 281 q 42 156 42 211 q 67 51 42 90 q 133 -4 93 13 q 213 -21 172 -21 q 322 7 269 -21 q 417 72 374 35 q 493 136 461 110 l 629 253 q 692 275 665 285 q 718 208 718 265 l 718 136 q 760 26 718 72 q 886 -21 801 -21 q 999 15 958 -21 q 1051 114 1039 51 q 1047 254 1063 176 l 921 922 q 866 1035 907 993 q 763 1076 825 1076 q 681 1063 718 1076 q 603 1022 644 1050 q 501 944 563 993 l 222 722 q 146 642 175 683 q 117 557 117 601 q 160 448 117 493 q 265 403 204 403 q 324 411 292 403 q 386 443 356 419 q 439 513 417 467 l 607 857 q 637 915 618 879 q 681 981 656 950 q 736 1017 707 1011 q 805 992 781 1025 q 822 903 829 960 l 763 411 q 719 342 757 358 q 622 324 682 325 l 264 315 "},"Ã":{"ha":1111,"x_min":42,"x_max":1063,"o":"m 764 1244 q 690 1312 722 1292 q 621 1332 658 1332 q 503 1317 557 1332 q 424 1270 450 1303 q 415 1183 399 1238 q 457 1133 426 1147 q 521 1128 488 1119 q 574 1164 554 1136 l 626 1240 q 681 1240 650 1276 l 707 1208 q 777 1144 744 1163 q 847 1126 810 1126 q 1001 1157 944 1126 q 1047 1268 1057 1188 q 1015 1322 1043 1304 q 953 1335 988 1340 q 894 1294 918 1329 l 842 1218 q 788 1218 819 1185 l 764 1244 m 264 315 q 152 297 203 314 q 72 246 101 281 q 42 156 42 211 q 67 51 42 90 q 133 -4 93 13 q 213 -21 172 -21 q 322 7 269 -21 q 417 72 374 35 q 493 136 461 110 l 629 253 q 692 275 665 285 q 718 208 718 265 l 718 136 q 760 26 718 72 q 886 -21 801 -21 q 999 15 958 -21 q 1051 114 1039 51 q 1047 254 1063 176 l 921 922 q 866 1035 907 993 q 763 1076 825 1076 q 681 1063 718 1076 q 603 1022 644 1050 q 501 944 563 993 l 222 722 q 146 642 175 683 q 117 557 117 601 q 160 448 117 493 q 265 403 204 403 q 324 411 292 403 q 386 443 356 419 q 439 513 417 467 l 607 857 q 637 915 618 879 q 681 981 656 950 q 736 1017 707 1011 q 805 992 781 1025 q 822 903 829 960 l 763 411 q 719 342 757 358 q 622 324 682 325 l 264 315 "},"Æ":{"ha":1925,"x_min":42,"x_max":1897,"o":"m 921 922 q 866 1034 907 992 q 763 1076 825 1076 q 681 1063 718 1076 q 603 1022 644 1050 q 501 944 563 993 l 222 722 q 146 642 175 683 q 117 557 117 601 q 160 448 117 493 q 265 403 204 403 q 324 411 292 403 q 386 443 356 419 q 439 513 417 467 l 607 857 q 637 915 618 879 q 681 981 656 950 q 736 1017 707 1011 q 805 992 781 1025 q 822 903 829 960 l 763 411 q 719 342 757 358 q 622 324 682 325 l 264 315 q 152 297 203 314 q 72 246 101 281 q 42 156 42 211 q 67 51 42 90 q 133 -4 93 13 q 213 -21 172 -21 q 322 7 269 -21 q 417 72 374 35 q 493 136 461 110 l 629 253 q 692 275 665 285 q 718 208 718 265 l 718 136 q 760 26 718 72 q 886 -21 801 -21 q 999 15 958 -21 q 1051 114 1039 51 q 1047 254 1063 176 l 1040 292 q 1042 331 1035 318 q 1063 344 1050 344 q 1085 340 1074 344 q 1114 321 1096 336 l 1440 63 q 1535 3 1489 25 q 1625 -19 1582 -19 q 1731 26 1690 -19 q 1771 133 1771 72 q 1720 239 1771 201 q 1594 293 1669 276 l 1078 407 q 1026 428 1043 414 q 1013 465 1008 443 q 1037 494 1017 489 q 1097 496 1057 500 l 1747 436 q 1856 455 1814 431 q 1897 554 1897 479 q 1856 658 1897 631 q 1747 674 1814 685 l 1074 556 q 1013 556 1033 549 q 989 586 993 564 q 1002 622 985 608 q 1054 644 1019 636 l 1525 760 q 1651 815 1600 779 q 1701 919 1701 851 q 1661 1026 1701 981 q 1556 1072 1621 1072 q 1371 986 1468 1072 l 1064 717 q 1033 694 1046 700 q 1001 689 1021 689 q 956 744 967 689 l 921 922 "},"B":{"ha":1200,"x_min":63,"x_max":1144,"o":"m 917 667 q 1022 687 972 664 q 1104 755 1072 710 q 1136 863 1136 800 q 1048 1014 1136 972 q 764 1056 960 1056 l 589 1056 q 308 993 426 1056 q 126 812 190 931 q 63 522 63 693 q 130 244 63 367 q 335 50 197 121 q 683 -21 472 -21 q 923 23 819 -21 q 1085 145 1026 67 q 1144 328 1144 224 q 1128 419 1144 372 q 1065 503 1111 465 q 926 554 1018 540 l 775 578 q 746 595 756 581 q 736 624 736 610 q 753 658 736 643 q 800 672 769 674 l 917 667 m 351 226 q 245 253 288 226 q 185 324 203 279 q 174 403 171 360 q 207 486 178 446 l 489 869 q 607 975 546 947 q 722 992 668 1003 q 807 942 775 981 q 842 867 835 908 q 827 785 849 826 q 744 707 806 743 l 324 457 q 279 369 264 421 q 309 340 286 350 q 371 336 332 329 l 872 436 q 1008 428 960 454 q 1057 339 1057 403 q 1017 265 1057 297 q 901 231 978 232 l 351 226 "},"C":{"ha":1167,"x_min":83,"x_max":1069,"o":"m 563 -21 q 752 8 661 -21 q 915 83 843 38 q 1028 181 986 129 q 1069 279 1069 233 q 1047 347 1069 317 q 989 389 1025 376 q 910 388 953 401 q 828 328 868 375 l 624 89 q 553 44 592 53 q 479 49 515 36 q 416 88 443 61 q 379 147 389 114 q 385 215 369 181 q 449 274 400 249 l 525 314 q 585 369 569 338 q 595 433 601 401 q 565 491 589 465 q 503 526 540 517 l 253 596 q 210 640 210 608 q 251 696 211 671 l 700 968 q 772 974 749 997 q 788 903 796 950 l 764 771 q 758 707 758 742 q 766 640 757 672 q 799 585 775 607 q 867 558 824 563 q 978 574 938 551 q 1034 640 1018 597 q 1050 731 1050 682 q 1000 900 1050 821 q 855 1028 950 979 q 626 1076 760 1076 q 407 1035 507 1076 q 235 917 307 993 q 123 736 163 840 q 83 508 83 632 q 135 240 83 360 q 292 49 186 119 q 563 -21 399 -21 "},"Ć":{"ha":1167,"x_min":83,"x_max":1069,"o":"m 832 1165 q 909 1212 892 1176 q 914 1288 926 1247 q 877 1338 904 1321 q 817 1353 850 1354 q 756 1328 783 1351 l 553 1161 q 547 1131 539 1150 q 578 1117 556 1113 l 832 1165 m 563 -21 q 752 8 661 -21 q 915 83 843 38 q 1028 181 986 129 q 1069 279 1069 233 q 1047 347 1069 317 q 989 389 1025 376 q 910 388 953 401 q 828 328 868 375 l 624 89 q 553 44 592 53 q 479 49 515 36 q 416 88 443 61 q 379 147 389 114 q 385 215 369 181 q 449 274 400 249 l 525 314 q 585 369 569 338 q 595 433 601 401 q 565 491 589 465 q 503 526 540 517 l 253 596 q 210 640 210 608 q 251 696 211 671 l 700 968 q 772 974 749 997 q 788 903 796 950 l 764 771 q 758 707 758 742 q 766 640 757 672 q 799 585 775 607 q 867 558 824 563 q 978 574 938 551 q 1034 640 1018 597 q 1050 731 1050 682 q 1000 900 1050 821 q 855 1028 950 979 q 626 1076 760 1076 q 407 1035 507 1076 q 235 917 307 993 q 123 736 163 840 q 83 508 83 632 q 135 240 83 360 q 292 49 186 119 q 563 -21 399 -21 "},"Č":{"ha":1167,"x_min":83,"x_max":1069,"o":"m 626 1163 q 590 1185 607 1163 l 513 1297 q 474 1339 490 1329 q 438 1349 457 1349 q 373 1320 397 1349 q 349 1239 349 1292 q 369 1170 349 1200 q 438 1136 389 1140 q 532 1129 485 1132 q 626 1128 579 1126 q 721 1129 674 1126 q 815 1136 768 1132 q 884 1170 864 1140 q 904 1239 904 1200 q 880 1320 904 1292 q 815 1349 856 1349 q 780 1339 797 1349 q 740 1297 763 1329 l 663 1185 q 626 1163 646 1163 m 563 -21 q 752 8 661 -21 q 915 83 843 38 q 1028 181 986 129 q 1069 279 1069 233 q 1047 347 1069 317 q 989 389 1025 376 q 910 388 953 401 q 828 328 868 375 l 624 89 q 553 44 592 53 q 479 49 515 36 q 416 88 443 61 q 379 147 389 114 q 385 215 369 181 q 449 274 400 249 l 525 314 q 585 369 569 338 q 595 433 601 401 q 565 491 589 465 q 503 526 540 517 l 253 596 q 210 640 210 608 q 251 696 211 671 l 700 968 q 772 974 749 997 q 788 903 796 950 l 764 771 q 758 707 758 742 q 766 640 757 672 q 799 585 775 607 q 867 558 824 563 q 978 574 938 551 q 1034 640 1018 597 q 1050 731 1050 682 q 1000 900 1050 821 q 855 1028 950 979 q 626 1076 760 1076 q 407 1035 507 1076 q 235 917 307 993 q 123 736 163 840 q 83 508 83 632 q 135 240 83 360 q 292 49 186 119 q 563 -21 399 -21 "},"Ç":{"ha":1167,"x_min":83,"x_max":1069,"o":"m 1069 279 q 1047 347 1069 317 q 989 389 1025 376 q 910 388 953 401 q 828 328 868 375 l 624 89 q 553 44 592 53 q 479 49 515 36 q 416 88 443 61 q 379 147 389 114 q 385 215 369 181 q 449 274 400 249 l 525 314 q 585 369 569 338 q 595 433 601 401 q 565 491 589 465 q 503 526 540 517 l 253 596 q 210 640 210 608 q 251 696 211 671 l 700 968 q 772 974 749 997 q 788 903 796 950 l 764 771 q 758 707 758 742 q 766 640 757 672 q 799 585 775 607 q 867 558 824 563 q 978 574 938 551 q 1034 640 1018 597 q 1050 731 1050 682 q 1000 900 1050 821 q 855 1028 950 979 q 626 1076 760 1076 q 407 1035 507 1076 q 235 917 307 993 q 123 736 163 840 q 83 508 83 632 q 131 249 83 365 q 278 60 179 132 q 528 -19 376 -11 l 483 -133 l 451 -107 q 397 -86 426 -86 q 344 -104 367 -86 q 315 -157 321 -122 q 349 -226 310 -200 q 467 -267 389 -251 q 636 -276 558 -283 q 762 -236 714 -268 q 810 -147 810 -204 q 792 -93 810 -117 q 746 -55 774 -69 q 689 -40 718 -40 q 644 -47 663 -40 q 611 -53 626 -53 q 598 -47 600 -53 q 603 -19 596 -40 q 780 17 696 -12 q 929 92 864 47 q 1032 187 994 138 q 1069 279 1069 236 m 688 -110 q 735 -150 735 -110 q 703 -194 735 -174 q 624 -215 672 -215 q 584 -201 597 -215 q 572 -169 571 -187 q 590 -140 574 -151 q 644 -115 622 -121 q 688 -110 667 -110 "},"Ċ":{"ha":1167,"x_min":83,"x_max":1069,"o":"m 581 1132 q 665 1122 622 1122 q 738 1142 707 1121 q 776 1214 769 1163 q 763 1294 786 1267 q 703 1332 739 1322 q 615 1342 661 1343 q 535 1322 569 1342 q 492 1254 500 1303 q 501 1181 486 1214 q 581 1132 517 1147 m 563 -21 q 752 8 661 -21 q 915 83 843 38 q 1028 181 986 129 q 1069 279 1069 233 q 1047 347 1069 317 q 989 389 1025 376 q 910 388 953 401 q 828 328 868 375 l 624 89 q 553 44 592 53 q 479 49 515 36 q 416 88 443 61 q 379 147 389 114 q 385 215 369 181 q 449 274 400 249 l 525 314 q 585 369 569 338 q 595 433 601 401 q 565 491 589 465 q 503 526 540 517 l 253 596 q 210 640 210 608 q 251 696 211 671 l 700 968 q 772 974 749 997 q 788 903 796 950 l 764 771 q 758 707 758 742 q 766 640 757 672 q 799 585 775 607 q 867 558 824 563 q 978 574 938 551 q 1034 640 1018 597 q 1050 731 1050 682 q 1000 900 1050 821 q 855 1028 950 979 q 626 1076 760 1076 q 407 1035 507 1076 q 235 917 307 993 q 123 736 163 840 q 83 508 83 632 q 135 240 83 360 q 292 49 186 119 q 563 -21 399 -21 "},"D":{"ha":1201,"x_min":76,"x_max":1118,"o":"m 217 1056 q 140 1034 171 1056 q 92 979 108 1013 q 76 910 76 946 q 104 826 76 863 q 190 779 132 790 q 253 753 238 771 q 250 699 268 735 l 199 594 q 142 424 157 511 q 139 258 126 338 q 194 117 151 179 q 310 17 236 54 q 492 -19 385 -19 q 964 116 810 -21 q 1118 521 1118 253 q 1076 811 1118 692 q 942 993 1033 931 q 699 1056 850 1056 l 217 1056 m 699 135 q 649 74 682 96 q 578 49 617 51 q 508 71 540 47 q 461 149 476 94 l 318 651 q 330 768 299 722 q 450 831 361 814 l 797 897 q 892 890 850 908 q 951 826 935 871 q 939 714 967 782 l 699 135 "},"Ð":{"ha":1204,"x_min":72,"x_max":1121,"o":"m 219 1056 q 142 1034 174 1056 q 95 979 111 1013 q 79 910 79 946 q 107 826 79 863 q 193 779 135 790 q 243 758 228 774 q 258 721 258 742 q 235 659 258 685 q 172 622 213 633 l 110 607 q 78 588 85 601 q 81 563 72 575 q 107 551 89 551 l 168 550 l 167 550 q 229 534 218 550 q 240 503 240 518 q 233 468 240 485 q 208 436 226 451 q 163 391 186 418 q 140 314 140 364 q 157 203 140 261 q 214 95 174 146 q 323 13 254 44 q 494 -19 392 -19 q 967 116 813 -21 q 1121 521 1121 253 q 1078 811 1121 692 q 944 993 1036 931 q 701 1056 853 1056 l 219 1056 m 701 135 q 652 74 685 96 q 581 49 619 51 q 511 71 543 47 q 464 149 479 94 l 429 271 q 376 374 410 340 q 313 422 343 408 q 276 482 276 440 q 299 524 278 506 q 379 546 321 543 l 647 542 q 726 563 697 540 q 762 617 754 585 q 756 678 769 649 q 708 723 743 708 q 618 725 674 738 l 438 683 l 386 675 q 331 688 347 669 q 314 738 314 707 q 351 791 314 769 q 453 826 388 813 l 800 897 q 895 890 853 908 q 953 826 938 871 q 942 714 969 782 l 701 135 "},"Ď":{"ha":1201,"x_min":76,"x_max":1118,"o":"m 601 1163 q 565 1185 582 1163 l 488 1297 q 449 1339 465 1329 q 413 1349 432 1349 q 348 1320 372 1349 q 324 1239 324 1292 q 344 1170 324 1200 q 413 1136 364 1140 q 507 1129 460 1132 q 601 1128 554 1126 q 696 1129 649 1126 q 790 1136 743 1132 q 859 1170 839 1140 q 879 1239 879 1200 q 855 1320 879 1292 q 790 1349 831 1349 q 755 1339 772 1349 q 715 1297 738 1329 l 638 1185 q 601 1163 621 1163 m 217 1056 q 140 1034 171 1056 q 92 979 108 1013 q 76 910 76 946 q 104 826 76 863 q 190 779 132 790 q 253 753 238 771 q 250 699 268 735 l 199 594 q 142 424 157 511 q 139 258 126 338 q 194 117 151 179 q 310 17 236 54 q 492 -19 385 -19 q 964 116 810 -21 q 1118 521 1118 253 q 1076 811 1118 692 q 942 993 1033 931 q 699 1056 850 1056 l 217 1056 m 699 135 q 649 74 682 96 q 578 49 617 51 q 508 71 540 47 q 461 149 476 94 l 318 651 q 330 768 299 722 q 450 831 361 814 l 797 897 q 892 890 850 908 q 951 826 935 871 q 939 714 967 782 l 699 135 "},"Đ":{"ha":1204,"x_min":72,"x_max":1121,"o":"m 219 1056 q 142 1034 174 1056 q 95 979 111 1013 q 79 910 79 946 q 107 826 79 863 q 193 779 135 790 q 243 758 228 774 q 258 721 258 742 q 235 659 258 685 q 172 622 213 633 l 110 607 q 78 588 85 601 q 81 563 72 575 q 107 551 89 551 l 168 550 l 167 550 q 229 534 218 550 q 240 503 240 518 q 233 468 240 485 q 208 436 226 451 q 163 391 186 418 q 140 314 140 364 q 157 203 140 261 q 214 95 174 146 q 323 13 254 44 q 494 -19 392 -19 q 967 116 813 -21 q 1121 521 1121 253 q 1078 811 1121 692 q 944 993 1036 931 q 701 1056 853 1056 l 219 1056 m 701 135 q 652 74 685 96 q 581 49 619 51 q 511 71 543 47 q 464 149 479 94 l 429 271 q 376 374 410 340 q 313 422 343 408 q 276 482 276 440 q 299 524 278 506 q 379 546 321 543 l 647 542 q 726 563 697 540 q 762 617 754 585 q 756 678 769 649 q 708 723 743 708 q 618 725 674 738 l 438 683 l 386 675 q 331 688 347 669 q 314 738 314 707 q 351 791 314 769 q 453 826 388 813 l 800 897 q 895 890 853 908 q 953 826 938 871 q 942 714 969 782 l 701 135 "},"E":{"ha":1138,"x_min":69,"x_max":1064,"o":"m 322 144 q 234 162 263 139 q 206 214 206 185 q 232 265 206 244 q 322 293 258 285 l 819 354 q 930 406 899 364 q 961 497 961 447 q 951 552 961 524 q 911 607 942 581 q 819 653 881 633 l 278 825 q 215 861 229 840 q 201 908 201 882 q 214 943 201 924 q 250 974 226 963 q 307 972 274 985 l 875 774 q 1012 765 965 743 q 1061 849 1058 786 q 1036 944 1064 908 q 953 1007 1008 981 q 836 1042 913 1026 q 665 1067 760 1057 q 478 1075 571 1076 q 306 1059 386 1075 q 176 1003 225 1043 q 126 894 126 964 q 224 749 126 818 l 638 461 q 667 422 665 442 q 651 393 669 401 q 601 397 633 385 l 324 511 q 198 528 256 539 q 105 478 140 518 q 69 374 69 438 q 122 206 69 279 q 265 81 174 132 q 476 4 357 31 q 728 -22 594 -22 q 926 -4 853 -22 q 1030 47 999 14 q 1061 122 1061 79 q 1036 181 1061 156 q 933 199 1011 206 l 322 144 "},"É":{"ha":1138,"x_min":69,"x_max":1064,"o":"m 808 1165 q 885 1212 868 1176 q 890 1288 903 1247 q 853 1338 881 1321 q 793 1353 826 1354 q 732 1328 760 1351 l 529 1161 q 524 1131 515 1150 q 554 1117 532 1113 l 808 1165 m 322 144 q 234 162 263 139 q 206 214 206 185 q 232 265 206 244 q 322 293 258 285 l 819 354 q 930 406 899 364 q 961 497 961 447 q 951 552 961 524 q 911 607 942 581 q 819 653 881 633 l 278 825 q 215 861 229 840 q 201 908 201 882 q 214 943 201 924 q 250 974 226 963 q 307 972 274 985 l 875 774 q 1012 765 965 743 q 1061 849 1058 786 q 1036 944 1064 908 q 953 1007 1008 981 q 836 1042 913 1026 q 665 1067 760 1057 q 478 1075 571 1076 q 306 1059 386 1075 q 176 1003 225 1043 q 126 894 126 964 q 224 749 126 818 l 638 461 q 667 422 665 442 q 651 393 669 401 q 601 397 633 385 l 324 511 q 198 528 256 539 q 105 478 140 518 q 69 374 69 438 q 122 206 69 279 q 265 81 174 132 q 476 4 357 31 q 728 -22 594 -22 q 926 -4 853 -22 q 1030 47 999 14 q 1061 122 1061 79 q 1036 181 1061 156 q 933 199 1011 206 l 322 144 "},"Ě":{"ha":1138,"x_min":69,"x_max":1064,"o":"m 603 1163 q 567 1185 583 1163 l 489 1297 q 450 1339 467 1329 q 414 1349 433 1349 q 349 1320 374 1349 q 325 1239 325 1292 q 345 1170 325 1200 q 414 1136 365 1140 q 508 1129 461 1132 q 603 1128 556 1126 q 697 1129 650 1126 q 792 1136 744 1132 q 860 1170 840 1140 q 881 1239 881 1200 q 856 1320 881 1292 q 792 1349 832 1349 q 756 1339 774 1349 q 717 1297 739 1329 l 639 1185 q 603 1163 622 1163 m 322 144 q 234 162 263 139 q 206 214 206 185 q 232 265 206 244 q 322 293 258 285 l 819 354 q 930 406 899 364 q 961 497 961 447 q 951 552 961 524 q 911 607 942 581 q 819 653 881 633 l 278 825 q 215 861 229 840 q 201 908 201 882 q 214 943 201 924 q 250 974 226 963 q 307 972 274 985 l 875 774 q 1012 765 965 743 q 1061 849 1058 786 q 1036 944 1064 908 q 953 1007 1008 981 q 836 1042 913 1026 q 665 1067 760 1057 q 478 1075 571 1076 q 306 1059 386 1075 q 176 1003 225 1043 q 126 894 126 964 q 224 749 126 818 l 638 461 q 667 422 665 442 q 651 393 669 401 q 601 397 633 385 l 324 511 q 198 528 256 539 q 105 478 140 518 q 69 374 69 438 q 122 206 69 279 q 265 81 174 132 q 476 4 357 31 q 728 -22 594 -22 q 926 -4 853 -22 q 1030 47 999 14 q 1061 122 1061 79 q 1036 181 1061 156 q 933 199 1011 206 l 322 144 "},"Ê":{"ha":1138,"x_min":69,"x_max":1064,"o":"m 610 1314 q 646 1292 629 1314 l 724 1179 q 763 1138 746 1149 q 799 1128 781 1128 q 863 1156 839 1128 q 888 1238 888 1185 q 867 1307 888 1278 q 799 1340 847 1336 q 704 1347 751 1344 q 610 1349 657 1350 q 515 1347 563 1350 q 421 1340 468 1344 q 352 1307 372 1336 q 332 1238 332 1278 q 356 1156 332 1185 q 421 1128 381 1128 q 457 1138 440 1128 q 496 1179 474 1149 l 574 1292 q 610 1314 590 1314 m 322 144 q 234 162 263 139 q 206 214 206 185 q 232 265 206 244 q 322 293 258 285 l 819 354 q 930 406 899 364 q 961 497 961 447 q 951 552 961 524 q 911 607 942 581 q 819 653 881 633 l 278 825 q 215 861 229 840 q 201 908 201 882 q 214 943 201 924 q 250 974 226 963 q 307 972 274 985 l 875 774 q 1012 765 965 743 q 1061 849 1058 786 q 1036 944 1064 908 q 953 1007 1008 981 q 836 1042 913 1026 q 665 1067 760 1057 q 478 1075 571 1076 q 306 1059 386 1075 q 176 1003 225 1043 q 126 894 126 964 q 224 749 126 818 l 638 461 q 667 422 665 442 q 651 393 669 401 q 601 397 633 385 l 324 511 q 198 528 256 539 q 105 478 140 518 q 69 374 69 438 q 122 206 69 279 q 265 81 174 132 q 476 4 357 31 q 728 -22 594 -22 q 926 -4 853 -22 q 1030 47 999 14 q 1061 122 1061 79 q 1036 181 1061 156 q 933 199 1011 206 l 322 144 "},"Ë":{"ha":1138,"x_min":69,"x_max":1064,"o":"m 457 1160 q 525 1179 493 1165 q 574 1219 557 1193 q 581 1288 592 1246 q 544 1346 571 1332 q 485 1354 517 1360 q 415 1333 450 1349 q 359 1291 379 1318 q 349 1224 339 1264 q 379 1171 357 1192 q 457 1160 401 1150 m 708 1183 q 775 1163 740 1169 q 839 1170 810 1157 q 882 1224 868 1183 q 882 1292 897 1265 q 838 1332 867 1318 q 767 1353 806 1347 q 697 1348 728 1360 q 651 1297 665 1336 q 649 1236 642 1265 q 708 1183 657 1207 m 322 144 q 234 162 263 139 q 206 214 206 185 q 232 265 206 244 q 322 293 258 285 l 819 354 q 930 406 899 364 q 961 497 961 447 q 951 552 961 524 q 911 607 942 581 q 819 653 881 633 l 278 825 q 215 861 229 840 q 201 908 201 882 q 214 943 201 924 q 250 974 226 963 q 307 972 274 985 l 875 774 q 1012 765 965 743 q 1061 849 1058 786 q 1036 944 1064 908 q 953 1007 1008 981 q 836 1042 913 1026 q 665 1067 760 1057 q 478 1075 571 1076 q 306 1059 386 1075 q 176 1003 225 1043 q 126 894 126 964 q 224 749 126 818 l 638 461 q 667 422 665 442 q 651 393 669 401 q 601 397 633 385 l 324 511 q 198 528 256 539 q 105 478 140 518 q 69 374 69 438 q 122 206 69 279 q 265 81 174 132 q 476 4 357 31 q 728 -22 594 -22 q 926 -4 853 -22 q 1030 47 999 14 q 1061 122 1061 79 q 1036 181 1061 156 q 933 199 1011 206 l 322 144 "},"Ė":{"ha":1138,"x_min":69,"x_max":1064,"o":"m 557 1132 q 641 1122 599 1122 q 715 1142 683 1121 q 753 1214 746 1163 q 739 1294 763 1267 q 679 1332 715 1322 q 592 1342 638 1343 q 511 1322 546 1342 q 468 1254 476 1303 q 478 1181 463 1214 q 557 1132 493 1147 m 322 144 q 234 162 263 139 q 206 214 206 185 q 232 265 206 244 q 322 293 258 285 l 819 354 q 930 406 899 364 q 961 497 961 447 q 951 552 961 524 q 911 607 942 581 q 819 653 881 633 l 278 825 q 215 861 229 840 q 201 908 201 882 q 214 943 201 924 q 250 974 226 963 q 307 972 274 985 l 875 774 q 1012 765 965 743 q 1061 849 1058 786 q 1036 944 1064 908 q 953 1007 1008 981 q 836 1042 913 1026 q 665 1067 760 1057 q 478 1075 571 1076 q 306 1059 386 1075 q 176 1003 225 1043 q 126 894 126 964 q 224 749 126 818 l 638 461 q 667 422 665 442 q 651 393 669 401 q 601 397 633 385 l 324 511 q 198 528 256 539 q 105 478 140 518 q 69 374 69 438 q 122 206 69 279 q 265 81 174 132 q 476 4 357 31 q 728 -22 594 -22 q 926 -4 853 -22 q 1030 47 999 14 q 1061 122 1061 79 q 1036 181 1061 156 q 933 199 1011 206 l 322 144 "},"È":{"ha":1138,"x_min":69,"x_max":1064,"o":"m 650 1117 q 681 1131 672 1113 q 675 1161 689 1150 l 472 1328 q 411 1353 444 1351 q 351 1338 378 1354 q 314 1288 324 1321 q 319 1212 301 1247 q 396 1165 336 1176 l 650 1117 m 322 144 q 234 162 263 139 q 206 214 206 185 q 232 265 206 244 q 322 293 258 285 l 819 354 q 930 406 899 364 q 961 497 961 447 q 951 552 961 524 q 911 607 942 581 q 819 653 881 633 l 278 825 q 215 861 229 840 q 201 908 201 882 q 214 943 201 924 q 250 974 226 963 q 307 972 274 985 l 875 774 q 1012 765 965 743 q 1061 849 1058 786 q 1036 944 1064 908 q 953 1007 1008 981 q 836 1042 913 1026 q 665 1067 760 1057 q 478 1075 571 1076 q 306 1059 386 1075 q 176 1003 225 1043 q 126 894 126 964 q 224 749 126 818 l 638 461 q 667 422 665 442 q 651 393 669 401 q 601 397 633 385 l 324 511 q 198 528 256 539 q 105 478 140 518 q 69 374 69 438 q 122 206 69 279 q 265 81 174 132 q 476 4 357 31 q 728 -22 594 -22 q 926 -4 853 -22 q 1030 47 999 14 q 1061 122 1061 79 q 1036 181 1061 156 q 933 199 1011 206 l 322 144 "},"Ē":{"ha":1138,"x_min":69,"x_max":1064,"o":"m 799 1156 q 885 1184 863 1154 q 896 1256 907 1214 q 854 1307 886 1294 q 744 1308 822 1319 l 428 1263 q 364 1210 364 1254 q 379 1176 364 1186 q 425 1165 394 1167 l 799 1156 m 322 144 q 234 162 263 139 q 206 214 206 185 q 232 265 206 244 q 322 293 258 285 l 819 354 q 930 406 899 364 q 961 497 961 447 q 951 552 961 524 q 911 607 942 581 q 819 653 881 633 l 278 825 q 215 861 229 840 q 201 908 201 882 q 214 943 201 924 q 250 974 226 963 q 307 972 274 985 l 875 774 q 1012 765 965 743 q 1061 849 1058 786 q 1036 944 1064 908 q 953 1007 1008 981 q 836 1042 913 1026 q 665 1067 760 1057 q 478 1075 571 1076 q 306 1059 386 1075 q 176 1003 225 1043 q 126 894 126 964 q 224 749 126 818 l 638 461 q 667 422 665 442 q 651 393 669 401 q 601 397 633 385 l 324 511 q 198 528 256 539 q 105 478 140 518 q 69 374 69 438 q 122 206 69 279 q 265 81 174 132 q 476 4 357 31 q 728 -22 594 -22 q 926 -4 853 -22 q 1030 47 999 14 q 1061 122 1061 79 q 1036 181 1061 156 q 933 199 1011 206 l 322 144 "},"Ę":{"ha":1138,"x_min":69,"x_max":1096,"o":"m 863 -142 q 815 -138 832 -150 q 799 -106 799 -126 q 808 -74 799 -86 q 839 -51 817 -61 l 954 1 q 963 7 961 4 q 1038 56 1015 26 q 1061 122 1061 85 q 1036 181 1061 156 q 933 199 1011 206 l 322 144 q 234 162 263 139 q 206 214 206 185 q 232 265 206 244 q 322 293 258 285 l 819 354 q 930 406 899 364 q 961 497 961 447 q 951 552 961 524 q 911 607 942 581 q 819 653 881 633 l 278 825 q 215 861 229 840 q 201 908 201 882 q 214 943 201 924 q 250 974 226 963 q 307 972 274 985 l 875 774 q 1012 765 965 743 q 1061 849 1058 786 q 1036 944 1064 908 q 953 1007 1008 981 q 836 1042 913 1026 q 665 1067 760 1057 q 478 1075 571 1076 q 306 1059 386 1075 q 176 1003 225 1043 q 126 894 126 964 q 224 749 126 818 l 638 461 q 667 422 665 442 q 651 393 669 401 q 601 397 633 385 l 324 511 q 198 528 256 539 q 105 478 140 518 q 69 374 69 438 q 122 206 69 279 q 265 81 174 132 q 476 4 357 31 q 728 -22 594 -22 l 754 -22 l 747 -33 q 722 -122 718 -78 q 756 -201 726 -165 q 834 -257 786 -236 q 942 -278 882 -278 q 1051 -250 1007 -278 q 1096 -172 1096 -222 q 1076 -123 1096 -137 q 1025 -108 1056 -108 q 964 -115 994 -107 l 863 -142 "},"F":{"ha":1050,"x_min":75,"x_max":1050,"o":"m 324 817 q 279 868 286 840 q 283 921 272 896 q 332 960 297 947 q 431 944 367 974 l 682 831 q 758 797 715 815 q 840 764 800 778 q 903 750 879 750 q 1007 785 964 750 q 1050 908 1050 819 q 1024 992 1050 960 q 958 1040 999 1025 q 871 1056 918 1056 l 388 1056 q 237 1000 294 1056 q 167 840 179 944 l 85 151 q 115 25 75 71 q 228 -21 156 -21 q 336 10 294 -21 q 384 92 378 40 q 349 207 390 144 l 211 419 q 192 490 188 457 q 224 540 197 524 q 294 539 251 556 l 675 375 q 804 335 749 343 q 883 371 860 328 q 884 438 903 407 q 822 494 865 468 l 324 817 "},"G":{"ha":1243,"x_min":83,"x_max":1165,"o":"m 446 790 q 413 864 421 822 q 421 943 404 906 q 486 1001 438 981 q 610 1011 549 1029 q 706 949 671 993 l 860 746 q 939 694 893 703 q 1026 702 985 685 q 1091 757 1068 719 q 1099 843 1114 794 q 941 1015 1067 954 q 617 1076 815 1076 q 339 1010 460 1076 q 151 816 218 943 q 83 508 83 689 q 128 215 83 333 q 246 38 174 97 q 400 -21 318 -21 q 508 -3 463 -21 q 595 55 553 14 q 690 165 638 96 l 918 463 q 976 522 956 513 q 1015 532 996 532 q 1056 510 1039 532 q 1051 456 1074 489 l 903 226 q 863 101 857 157 q 906 12 868 44 q 996 -21 944 -21 q 1119 28 1074 -21 q 1160 189 1165 76 l 1146 481 q 1111 569 1143 538 q 1026 602 1079 601 q 907 563 974 603 l 319 213 q 259 199 288 193 q 210 226 231 204 q 183 278 190 249 q 185 338 175 308 q 225 389 194 368 l 449 542 q 519 637 513 585 q 486 739 526 689 l 446 790 "},"Ğ":{"ha":1243,"x_min":83,"x_max":1165,"o":"m 626 1121 q 767 1133 706 1119 q 863 1183 828 1147 q 897 1281 897 1219 q 874 1332 897 1315 q 826 1349 851 1349 q 772 1334 796 1349 q 733 1283 749 1319 q 691 1196 711 1232 q 626 1160 671 1160 q 562 1196 582 1160 q 519 1283 542 1232 q 481 1334 504 1319 q 426 1349 458 1349 q 378 1332 401 1349 q 356 1281 356 1315 q 390 1183 356 1219 q 486 1133 425 1147 q 626 1121 547 1119 m 446 790 q 413 864 421 822 q 421 943 404 906 q 486 1001 438 981 q 610 1011 549 1029 q 706 949 671 993 l 860 746 q 939 694 893 703 q 1026 702 985 685 q 1091 757 1068 719 q 1099 843 1114 794 q 941 1015 1067 954 q 617 1076 815 1076 q 339 1010 460 1076 q 151 816 218 943 q 83 508 83 689 q 128 215 83 333 q 246 38 174 97 q 400 -21 318 -21 q 508 -3 463 -21 q 595 55 553 14 q 690 165 638 96 l 918 463 q 976 522 956 513 q 1015 532 996 532 q 1056 510 1039 532 q 1051 456 1074 489 l 903 226 q 863 101 857 157 q 906 12 868 44 q 996 -21 944 -21 q 1119 28 1074 -21 q 1160 189 1165 76 l 1146 481 q 1111 569 1143 538 q 1026 602 1079 601 q 907 563 974 603 l 319 213 q 259 199 288 193 q 210 226 231 204 q 183 278 190 249 q 185 338 175 308 q 225 389 194 368 l 449 542 q 519 637 513 585 q 486 739 526 689 l 446 790 "},"Ģ":{"ha":1243,"x_min":83,"x_max":1165,"o":"m 446 790 q 413 864 421 822 q 421 943 404 906 q 486 1001 438 981 q 610 1011 549 1029 q 706 949 671 993 l 860 746 q 939 694 893 703 q 1026 702 985 685 q 1091 757 1068 719 q 1099 843 1114 794 q 941 1015 1067 954 q 617 1076 815 1076 q 339 1010 460 1076 q 151 816 218 943 q 83 508 83 689 q 128 215 83 333 q 246 38 174 97 q 400 -21 318 -21 q 508 -3 463 -21 q 595 55 553 14 q 690 165 638 96 l 918 463 q 976 522 956 513 q 1015 532 996 532 q 1056 510 1039 532 q 1051 456 1074 489 l 903 226 q 863 101 857 157 q 906 12 868 44 q 996 -21 944 -21 q 1119 28 1074 -21 q 1160 189 1165 76 l 1146 481 q 1111 569 1143 538 q 1026 602 1079 601 q 907 563 974 603 l 319 213 q 259 199 288 193 q 210 226 231 204 q 183 278 190 249 q 185 338 175 308 q 225 389 194 368 l 449 542 q 519 637 513 585 q 486 739 526 689 l 446 790 m 571 -306 q 585 -342 569 -332 q 619 -340 601 -351 l 814 -221 q 860 -159 854 -196 q 844 -87 867 -122 q 771 -36 821 -53 q 688 -22 732 -22 q 613 -40 644 -21 q 579 -110 582 -60 l 571 -306 "},"Ġ":{"ha":1243,"x_min":83,"x_max":1165,"o":"m 581 1132 q 665 1122 622 1122 q 738 1142 707 1121 q 776 1214 769 1163 q 763 1294 786 1267 q 703 1332 739 1322 q 615 1342 661 1343 q 535 1322 569 1342 q 492 1254 500 1303 q 501 1181 486 1214 q 581 1132 517 1147 m 446 790 q 413 864 421 822 q 421 943 404 906 q 486 1001 438 981 q 610 1011 549 1029 q 706 949 671 993 l 860 746 q 939 694 893 703 q 1026 702 985 685 q 1091 757 1068 719 q 1099 843 1114 794 q 941 1015 1067 954 q 617 1076 815 1076 q 339 1010 460 1076 q 151 816 218 943 q 83 508 83 689 q 128 215 83 333 q 246 38 174 97 q 400 -21 318 -21 q 508 -3 463 -21 q 595 55 553 14 q 690 165 638 96 l 918 463 q 976 522 956 513 q 1015 532 996 532 q 1056 510 1039 532 q 1051 456 1074 489 l 903 226 q 863 101 857 157 q 906 12 868 44 q 996 -21 944 -21 q 1119 28 1074 -21 q 1160 189 1165 76 l 1146 481 q 1111 569 1143 538 q 1026 602 1079 601 q 907 563 974 603 l 319 213 q 259 199 288 193 q 210 226 231 204 q 183 278 190 249 q 185 338 175 308 q 225 389 194 368 l 449 542 q 519 637 513 585 q 486 739 526 689 l 446 790 "},"H":{"ha":1203,"x_min":78,"x_max":1124,"o":"m 974 1076 q 849 1036 889 1076 q 810 939 810 996 q 828 873 810 907 q 878 801 846 839 l 938 733 q 973 694 957 711 q 982 642 989 676 q 953 599 976 611 q 886 588 929 588 l 296 588 q 238 602 261 588 q 215 644 215 617 q 224 681 215 664 q 264 715 233 697 l 422 806 q 482 864 458 826 q 506 949 506 901 q 467 1041 506 1006 q 357 1076 428 1076 q 265 1055 301 1076 q 206 998 228 1033 q 174 922 185 963 q 158 844 163 882 l 85 160 q 97 54 78 94 q 151 -3 117 14 q 225 -21 186 -21 q 304 -2 267 -21 q 365 49 342 17 q 389 122 389 82 q 321 265 389 190 q 272 315 294 293 q 249 361 249 336 q 262 388 249 376 q 321 410 275 400 l 849 514 q 915 517 885 522 q 946 483 946 513 q 937 444 946 467 q 904 401 928 422 l 775 279 q 713 194 726 233 q 699 122 699 156 q 735 24 699 69 q 842 -21 772 -21 q 956 6 917 -21 q 1013 76 996 33 q 1036 169 1031 119 l 1119 942 q 1103 1013 1124 983 q 1049 1060 1083 1043 q 974 1076 1014 1076 "},"Ħ":{"ha":1203,"x_min":17,"x_max":1271,"o":"m 79 692 q 125 681 111 692 q 136 640 139 671 l 85 160 q 97 54 78 94 q 151 -3 117 14 q 225 -21 186 -21 q 304 -6 267 -21 q 365 38 342 10 q 389 106 389 67 q 368 181 389 151 q 307 229 347 210 q 251 265 267 249 q 236 301 236 281 q 252 330 236 317 q 308 351 268 343 l 858 460 q 927 456 907 469 q 947 414 947 442 q 901 346 947 371 l 785 279 q 728 228 746 257 q 704 172 710 200 q 699 122 699 144 q 735 24 699 69 q 842 -21 772 -21 q 956 6 917 -21 q 1013 76 996 33 q 1036 169 1031 119 l 1088 639 q 1099 672 1090 663 q 1135 682 1108 682 l 1171 682 q 1248 704 1225 681 q 1271 771 1271 728 q 1158 849 1271 849 q 1113 894 1107 849 l 1119 942 q 1106 1013 1126 983 q 1049 1060 1085 1043 q 974 1076 1014 1076 q 849 1036 889 1076 q 810 939 810 996 q 826 875 810 913 q 799 818 850 822 l 496 789 q 457 806 463 786 q 469 847 451 825 q 496 892 486 867 q 506 949 506 918 q 467 1041 506 1006 q 357 1076 428 1076 q 265 1054 301 1076 q 206 997 228 1032 q 174 921 185 961 q 158 844 163 881 q 132 772 153 792 q 83 750 111 753 l 50 747 q 17 719 17 746 q 47 692 17 692 l 79 692 m 215 589 q 224 623 215 608 q 264 660 233 638 q 303 680 279 671 q 363 689 326 689 l 869 683 q 923 676 906 683 q 950 647 940 668 q 960 563 974 594 q 883 532 946 532 l 296 532 q 238 547 261 532 q 215 589 215 561 "},"I":{"ha":596,"x_min":56,"x_max":526,"o":"m 56 747 q 65 716 56 729 q 101 703 75 703 l 161 703 q 213 693 194 703 q 231 660 231 683 q 226 635 231 650 l 114 224 q 113 99 96 154 q 179 11 129 43 q 308 -21 229 -21 q 412 -5 363 -21 q 492 42 461 11 q 517 119 522 74 q 492 178 513 160 q 441 196 471 196 q 382 183 411 196 l 215 111 q 181 117 196 103 q 165 151 165 131 q 172 173 165 163 q 194 201 178 183 l 460 504 q 507 608 506 557 q 472 689 508 658 q 364 711 435 719 l 269 700 q 247 701 260 699 q 233 722 233 704 q 260 754 233 746 l 413 807 q 494 856 463 825 q 526 944 526 886 q 483 1042 526 1007 q 388 1076 440 1076 q 328 1065 357 1076 q 278 1028 300 1053 l 121 847 q 75 790 94 817 q 56 747 56 764 "},"Í":{"ha":596,"x_min":56,"x_max":654,"o":"m 560 1165 q 637 1212 619 1176 q 642 1288 654 1247 q 605 1338 632 1321 q 544 1353 578 1354 q 483 1328 511 1351 l 281 1161 q 275 1131 267 1150 q 306 1117 283 1113 l 560 1165 m 56 747 q 65 716 56 729 q 101 703 75 703 l 161 703 q 213 693 194 703 q 231 660 231 683 q 226 635 231 650 l 114 224 q 113 99 96 154 q 179 11 129 43 q 308 -21 229 -21 q 412 -5 363 -21 q 492 42 461 11 q 517 119 522 74 q 492 178 513 160 q 441 196 471 196 q 382 183 411 196 l 215 111 q 181 117 196 103 q 165 151 165 131 q 172 173 165 163 q 194 201 178 183 l 460 504 q 507 608 506 557 q 472 689 508 658 q 364 711 435 719 l 269 700 q 247 701 260 699 q 233 722 233 704 q 260 754 233 746 l 413 807 q 494 856 463 825 q 526 944 526 886 q 483 1042 526 1007 q 388 1076 440 1076 q 328 1065 357 1076 q 278 1028 300 1053 l 121 847 q 75 790 94 817 q 56 747 56 764 "},"Î":{"ha":596,"x_min":56,"x_max":639,"o":"m 361 1314 q 397 1292 381 1314 l 475 1179 q 515 1138 497 1149 q 550 1128 532 1128 q 615 1156 590 1128 q 639 1238 639 1185 q 619 1307 639 1278 q 550 1340 599 1336 q 456 1347 503 1344 q 361 1349 408 1350 q 267 1347 314 1350 q 172 1340 219 1344 q 103 1307 124 1336 q 83 1238 83 1278 q 108 1156 83 1185 q 172 1128 132 1128 q 208 1138 192 1128 q 247 1179 225 1149 l 325 1292 q 361 1314 342 1314 m 56 747 q 65 716 56 729 q 101 703 75 703 l 161 703 q 213 693 194 703 q 231 660 231 683 q 226 635 231 650 l 114 224 q 113 99 96 154 q 179 11 129 43 q 308 -21 229 -21 q 412 -5 363 -21 q 492 42 461 11 q 517 119 522 74 q 492 178 513 160 q 441 196 471 196 q 382 183 411 196 l 215 111 q 181 117 196 103 q 165 151 165 131 q 172 173 165 163 q 194 201 178 183 l 460 504 q 507 608 506 557 q 472 689 508 658 q 364 711 435 719 l 269 700 q 247 701 260 699 q 233 722 233 704 q 260 754 233 746 l 413 807 q 494 856 463 825 q 526 944 526 886 q 483 1042 526 1007 q 388 1076 440 1076 q 328 1065 357 1076 q 278 1028 300 1053 l 121 847 q 75 790 94 817 q 56 747 56 764 "},"Ï":{"ha":596,"x_min":56,"x_max":649,"o":"m 208 1160 q 276 1179 244 1165 q 326 1219 308 1193 q 332 1288 343 1246 q 295 1346 322 1332 q 236 1354 268 1360 q 165 1333 201 1349 q 110 1291 129 1318 q 100 1224 90 1264 q 131 1171 108 1192 q 208 1160 153 1150 m 460 1183 q 526 1163 492 1169 q 590 1170 561 1157 q 633 1224 619 1183 q 633 1292 649 1265 q 589 1332 618 1318 q 518 1353 557 1347 q 448 1348 479 1360 q 403 1297 417 1336 q 401 1236 393 1265 q 460 1183 408 1207 m 56 747 q 65 716 56 729 q 101 703 75 703 l 161 703 q 213 693 194 703 q 231 660 231 683 q 226 635 231 650 l 114 224 q 113 99 96 154 q 179 11 129 43 q 308 -21 229 -21 q 412 -5 363 -21 q 492 42 461 11 q 517 119 522 74 q 492 178 513 160 q 441 196 471 196 q 382 183 411 196 l 215 111 q 181 117 196 103 q 165 151 165 131 q 172 173 165 163 q 194 201 178 183 l 460 504 q 507 608 506 557 q 472 689 508 658 q 364 711 435 719 l 269 700 q 247 701 260 699 q 233 722 233 704 q 260 754 233 746 l 413 807 q 494 856 463 825 q 526 944 526 886 q 483 1042 526 1007 q 388 1076 440 1076 q 328 1065 357 1076 q 278 1028 300 1053 l 121 847 q 75 790 94 817 q 56 747 56 764 "},"İ":{"ha":596,"x_min":56,"x_max":526,"o":"m 308 1132 q 392 1122 350 1122 q 466 1142 435 1121 q 504 1214 497 1163 q 490 1294 514 1267 q 431 1332 467 1322 q 343 1342 389 1343 q 263 1322 297 1342 q 219 1254 228 1303 q 229 1181 214 1214 q 308 1132 244 1147 m 56 747 q 65 716 56 729 q 101 703 75 703 l 161 703 q 213 693 194 703 q 231 660 231 683 q 226 635 231 650 l 114 224 q 113 99 96 154 q 179 11 129 43 q 308 -21 229 -21 q 412 -5 363 -21 q 492 42 461 11 q 517 119 522 74 q 492 178 513 160 q 441 196 471 196 q 382 183 411 196 l 215 111 q 181 117 196 103 q 165 151 165 131 q 172 173 165 163 q 194 201 178 183 l 460 504 q 507 608 506 557 q 472 689 508 658 q 364 711 435 719 l 269 700 q 247 701 260 699 q 233 722 233 704 q 260 754 233 746 l 413 807 q 494 856 463 825 q 526 944 526 886 q 483 1042 526 1007 q 388 1076 440 1076 q 328 1065 357 1076 q 278 1028 300 1053 l 121 847 q 75 790 94 817 q 56 747 56 764 "},"Ì":{"ha":596,"x_min":53,"x_max":526,"o":"m 401 1117 q 432 1131 424 1113 q 426 1161 440 1150 l 224 1328 q 163 1353 196 1351 q 102 1338 129 1354 q 65 1288 75 1321 q 70 1212 53 1247 q 147 1165 88 1176 l 401 1117 m 56 747 q 65 716 56 729 q 101 703 75 703 l 161 703 q 213 693 194 703 q 231 660 231 683 q 226 635 231 650 l 114 224 q 113 99 96 154 q 179 11 129 43 q 308 -21 229 -21 q 412 -5 363 -21 q 492 42 461 11 q 517 119 522 74 q 492 178 513 160 q 441 196 471 196 q 382 183 411 196 l 215 111 q 181 117 196 103 q 165 151 165 131 q 172 173 165 163 q 194 201 178 183 l 460 504 q 507 608 506 557 q 472 689 508 658 q 364 711 435 719 l 269 700 q 247 701 260 699 q 233 722 233 704 q 260 754 233 746 l 413 807 q 494 856 463 825 q 526 944 526 886 q 483 1042 526 1007 q 388 1076 440 1076 q 328 1065 357 1076 q 278 1028 300 1053 l 121 847 q 75 790 94 817 q 56 747 56 764 "},"Ī":{"ha":596,"x_min":56,"x_max":658,"o":"m 550 1156 q 636 1184 614 1154 q 647 1256 658 1214 q 606 1307 638 1294 q 496 1308 574 1319 l 179 1263 q 115 1210 115 1254 q 131 1176 115 1186 q 176 1165 146 1167 l 550 1156 m 56 747 q 65 716 56 729 q 101 703 75 703 l 161 703 q 213 693 194 703 q 231 660 231 683 q 226 635 231 650 l 114 224 q 113 99 96 154 q 179 11 129 43 q 308 -21 229 -21 q 412 -5 363 -21 q 492 42 461 11 q 517 119 522 74 q 492 178 513 160 q 441 196 471 196 q 382 183 411 196 l 215 111 q 181 117 196 103 q 165 151 165 131 q 172 173 165 163 q 194 201 178 183 l 460 504 q 507 608 506 557 q 472 689 508 658 q 364 711 435 719 l 269 700 q 247 701 260 699 q 233 722 233 704 q 260 754 233 746 l 413 807 q 494 856 463 825 q 526 944 526 886 q 483 1042 526 1007 q 388 1076 440 1076 q 328 1065 357 1076 q 278 1028 300 1053 l 121 847 q 75 790 94 817 q 56 747 56 764 "},"J":{"ha":731,"x_min":42,"x_max":647,"o":"m 176 174 q 131 182 150 168 q 110 222 111 196 q 136 275 110 247 l 321 468 q 351 536 353 501 q 322 594 349 571 q 250 618 294 618 q 177 590 214 618 q 110 513 140 563 q 60 402 79 464 q 42 271 42 340 q 85 132 42 199 q 209 22 129 65 q 394 -21 289 -21 q 556 19 501 -21 q 628 142 610 60 q 647 346 647 224 l 647 871 q 622 995 647 950 q 557 1059 596 1040 q 479 1078 518 1078 q 388 1052 421 1078 q 340 990 354 1026 q 326 917 326 953 q 347 814 326 872 q 390 715 367 756 l 579 392 q 601 295 613 335 q 547 247 590 256 l 176 174 "},"K":{"ha":1197,"x_min":78,"x_max":1167,"o":"m 300 1076 q 224 1059 261 1076 q 163 1003 188 1042 q 132 897 138 964 l 83 171 q 115 30 78 81 q 226 -21 151 -21 q 346 18 300 -21 q 401 108 392 57 q 399 195 410 158 q 367 263 388 232 l 193 528 q 182 586 171 561 q 221 615 193 611 q 276 585 249 618 l 657 132 q 726 50 697 85 q 787 -3 756 15 q 864 -21 818 -21 q 978 17 926 -21 q 1042 143 1029 54 l 1092 490 q 1069 576 1100 549 q 1003 601 1039 603 q 949 574 971 600 q 940 500 926 549 l 992 332 q 990 294 999 313 q 963 267 981 275 q 925 268 946 258 l 442 500 q 396 540 407 517 q 389 585 385 563 q 415 617 393 606 q 467 634 436 628 q 524 646 497 640 l 958 740 q 1100 797 1053 761 q 1160 904 1147 832 q 1152 985 1167 946 q 1108 1051 1138 1025 q 1039 1076 1078 1076 q 923 1050 975 1076 q 803 972 871 1024 l 440 697 q 351 644 389 658 q 286 674 314 631 q 285 730 272 697 q 325 797 297 763 l 347 824 q 397 908 381 864 q 410 990 414 951 q 380 1052 407 1028 q 300 1076 353 1076 "},"Ķ":{"ha":1197,"x_min":78,"x_max":1167,"o":"m 300 1076 q 224 1059 261 1076 q 163 1003 188 1042 q 132 897 138 964 l 83 171 q 115 30 78 81 q 226 -21 151 -21 q 346 18 300 -21 q 401 108 392 57 q 399 195 410 158 q 367 263 388 232 l 193 528 q 182 586 171 561 q 221 615 193 611 q 276 585 249 618 l 657 132 q 726 50 697 85 q 787 -3 756 15 q 864 -21 818 -21 q 978 17 926 -21 q 1042 143 1029 54 l 1092 490 q 1069 576 1100 549 q 1003 601 1039 603 q 949 574 971 600 q 940 500 926 549 l 992 332 q 990 294 999 313 q 963 267 981 275 q 925 268 946 258 l 442 500 q 396 540 407 517 q 389 585 385 563 q 415 617 393 606 q 467 634 436 628 q 524 646 497 640 l 958 740 q 1100 797 1053 761 q 1160 904 1147 832 q 1152 985 1167 946 q 1108 1051 1138 1025 q 1039 1076 1078 1076 q 923 1050 975 1076 q 803 972 871 1024 l 440 697 q 351 644 389 658 q 286 674 314 631 q 285 730 272 697 q 325 797 297 763 l 347 824 q 397 908 381 864 q 410 990 414 951 q 380 1052 407 1028 q 300 1076 353 1076 m 440 -306 q 455 -342 439 -332 q 489 -340 471 -351 l 683 -221 q 730 -159 724 -196 q 713 -87 736 -122 q 640 -36 690 -53 q 558 -22 601 -22 q 483 -40 514 -21 q 449 -110 451 -60 l 440 -306 "},"L":{"ha":819,"x_min":83,"x_max":757,"o":"m 89 269 q 85 230 86 249 q 83 194 83 211 q 100 81 83 124 q 158 19 117 38 q 275 0 200 0 l 551 0 q 670 23 625 0 q 736 83 715 46 q 757 158 757 119 q 738 235 757 199 q 685 294 719 271 q 604 317 650 317 q 538 303 574 317 q 461 260 501 290 l 333 161 q 248 99 281 121 q 193 76 215 76 q 157 93 175 76 q 139 136 139 110 q 150 185 139 157 q 179 244 161 213 l 472 789 q 501 859 492 826 q 510 918 510 892 q 484 1006 510 971 q 420 1059 458 1042 q 342 1076 382 1076 q 171 857 201 1076 l 89 269 "},"Ĺ":{"ha":819,"x_min":83,"x_max":757,"o":"m 614 1165 q 691 1212 674 1176 q 696 1288 708 1247 q 659 1338 686 1321 q 599 1353 632 1354 q 538 1328 565 1351 l 335 1161 q 329 1131 321 1150 q 360 1117 338 1113 l 614 1165 m 89 269 q 85 230 86 249 q 83 194 83 211 q 100 81 83 124 q 158 19 117 38 q 275 0 200 0 l 551 0 q 670 23 625 0 q 736 83 715 46 q 757 158 757 119 q 738 235 757 199 q 685 294 719 271 q 604 317 650 317 q 538 303 574 317 q 461 260 501 290 l 333 161 q 248 99 281 121 q 193 76 215 76 q 157 93 175 76 q 139 136 139 110 q 150 185 139 157 q 179 244 161 213 l 472 789 q 501 859 492 826 q 510 918 510 892 q 484 1006 510 971 q 420 1059 458 1042 q 342 1076 382 1076 q 171 857 201 1076 l 89 269 "},"Ľ":{"ha":833,"x_min":83,"x_max":757,"o":"m 415 1163 q 379 1185 396 1163 l 301 1297 q 263 1339 279 1329 q 226 1349 246 1349 q 162 1320 186 1349 q 138 1239 138 1292 q 158 1170 138 1200 q 226 1136 178 1140 q 321 1129 274 1132 q 415 1128 368 1126 q 510 1129 463 1126 q 604 1136 557 1132 q 673 1170 653 1140 q 693 1239 693 1200 q 669 1320 693 1292 q 604 1349 644 1349 q 569 1339 586 1349 q 529 1297 551 1329 l 451 1185 q 415 1163 435 1163 m 89 269 q 85 230 86 249 q 83 194 83 211 q 100 81 83 124 q 158 19 117 38 q 275 0 200 0 l 551 0 q 670 23 625 0 q 736 83 715 46 q 757 158 757 119 q 738 235 757 199 q 685 294 719 271 q 604 317 650 317 q 538 303 574 317 q 461 260 501 290 l 333 161 q 248 99 281 121 q 193 76 215 76 q 157 93 175 76 q 139 136 139 110 q 150 185 139 157 q 179 244 161 213 l 472 789 q 501 859 492 826 q 510 918 510 892 q 484 1006 510 971 q 420 1059 458 1042 q 342 1076 382 1076 q 171 857 201 1076 l 89 269 "},"Ł":{"ha":819,"x_min":-14,"x_max":757,"o":"m 10 386 q -13 359 -12 374 q -1 336 -14 344 q 28 333 11 328 l 54 342 q 89 269 96 354 l 83 200 q 118 49 75 99 q 275 0 161 0 l 551 0 q 670 23 625 0 q 736 83 715 46 q 757 158 757 119 q 738 235 757 199 q 685 294 719 271 q 604 317 650 317 q 538 303 574 317 q 461 260 501 290 l 333 161 q 248 99 281 121 q 193 76 215 76 q 157 93 175 76 q 139 136 139 110 q 150 185 139 157 q 179 244 161 213 l 231 339 q 285 404 254 381 q 364 444 315 428 l 638 536 q 706 599 699 556 q 689 678 714 643 q 629 718 667 710 q 529 674 592 726 l 389 557 q 360 556 375 544 q 357 590 344 568 l 472 789 q 501 858 493 825 q 510 918 510 892 q 484 1006 510 971 q 420 1059 458 1042 q 342 1076 382 1076 q 171 857 201 1076 l 119 500 q 101 447 114 465 q 60 414 89 429 l 10 386 "},"M":{"ha":1578,"x_min":90,"x_max":1489,"o":"m 956 410 q 953 299 967 333 q 906 264 939 264 q 866 278 886 264 q 831 332 846 293 l 606 878 q 494 1032 561 986 q 344 1078 426 1078 q 207 1038 264 1078 q 120 906 150 997 q 90 657 90 814 l 90 364 q 97 219 90 289 q 124 96 104 150 q 185 10 144 42 q 294 -21 226 -21 q 406 21 369 -21 q 443 128 442 63 q 415 264 444 193 l 224 735 q 203 798 214 758 q 193 867 193 838 q 226 965 193 926 q 317 1004 258 1004 q 400 977 365 1004 q 426 897 435 950 l 414 818 q 418 644 400 732 q 467 494 436 557 l 628 175 q 728 21 685 63 q 818 -21 771 -21 q 927 39 888 -21 q 997 203 967 99 l 1217 928 q 1260 991 1231 974 q 1319 1001 1289 1008 q 1365 967 1349 994 q 1369 896 1382 939 l 1213 342 q 1194 279 1206 315 q 1175 207 1183 243 q 1167 140 1167 171 q 1181 68 1167 106 q 1228 5 1194 31 q 1319 -21 1261 -21 q 1397 -2 1358 -21 q 1463 62 1436 17 q 1488 186 1489 107 l 1485 649 q 1459 910 1485 817 q 1379 1040 1433 1003 q 1238 1076 1325 1076 q 1049 1026 1128 1076 q 936 881 971 975 q 919 657 901 786 l 956 410 "},"N":{"ha":1225,"x_min":83,"x_max":1146,"o":"m 269 -21 q 380 18 344 -21 q 416 122 415 57 q 385 264 417 188 l 196 726 q 178 790 186 750 q 171 858 171 829 q 203 957 171 918 q 294 996 236 996 q 358 969 332 996 q 376 889 385 942 l 364 810 q 368 694 356 753 q 406 585 381 636 q 460 494 432 533 l 690 175 q 775 64 740 107 q 842 0 810 21 q 917 -21 875 -21 q 1021 26 985 -21 q 1068 174 1057 74 l 1139 817 q 1133 940 1146 881 q 1081 1039 1119 1000 q 974 1078 1043 1078 q 882 1052 915 1078 q 835 990 849 1026 q 821 917 821 953 q 824 854 821 892 q 853 750 826 817 l 981 421 q 1002 362 994 386 q 1010 318 1010 338 q 958 272 1010 272 q 923 289 940 272 q 881 344 906 306 l 551 860 q 472 974 510 925 q 394 1049 435 1022 q 297 1076 353 1076 q 176 1046 224 1076 q 106 933 128 1015 q 83 694 83 851 l 83 319 q 88 182 83 244 q 108 74 92 119 q 163 3 125 28 q 269 -21 201 -21 "},"Ń":{"ha":1225,"x_min":83,"x_max":1146,"o":"m 811 1165 q 888 1212 871 1176 q 893 1288 906 1247 q 856 1338 883 1321 q 796 1353 829 1354 q 735 1328 763 1351 l 532 1161 q 526 1131 518 1150 q 557 1117 535 1113 l 811 1165 m 269 -21 q 380 18 344 -21 q 416 122 415 57 q 385 264 417 188 l 196 726 q 178 790 186 750 q 171 858 171 829 q 203 957 171 918 q 294 996 236 996 q 358 969 332 996 q 376 889 385 942 l 364 810 q 368 694 356 753 q 406 585 381 636 q 460 494 432 533 l 690 175 q 775 64 740 107 q 842 0 810 21 q 917 -21 875 -21 q 1021 26 985 -21 q 1068 174 1057 74 l 1139 817 q 1133 940 1146 881 q 1081 1039 1119 1000 q 974 1078 1043 1078 q 882 1052 915 1078 q 835 990 849 1026 q 821 917 821 953 q 824 854 821 892 q 853 750 826 817 l 981 421 q 1002 362 994 386 q 1010 318 1010 338 q 958 272 1010 272 q 923 289 940 272 q 881 344 906 306 l 551 860 q 472 974 510 925 q 394 1049 435 1022 q 297 1076 353 1076 q 176 1046 224 1076 q 106 933 128 1015 q 83 694 83 851 l 83 319 q 88 182 83 244 q 108 74 92 119 q 163 3 125 28 q 269 -21 201 -21 "},"Ň":{"ha":1225,"x_min":83,"x_max":1146,"o":"m 606 1163 q 569 1185 586 1163 l 492 1297 q 453 1339 469 1329 q 417 1349 436 1349 q 352 1320 376 1349 q 328 1239 328 1292 q 348 1170 328 1200 q 417 1136 368 1140 q 511 1129 464 1132 q 606 1128 558 1126 q 700 1129 653 1126 q 794 1136 747 1132 q 863 1170 843 1140 q 883 1239 883 1200 q 859 1320 883 1292 q 794 1349 835 1349 q 759 1339 776 1349 q 719 1297 742 1329 l 642 1185 q 606 1163 625 1163 m 269 -21 q 380 18 344 -21 q 416 122 415 57 q 385 264 417 188 l 196 726 q 178 790 186 750 q 171 858 171 829 q 203 957 171 918 q 294 996 236 996 q 358 969 332 996 q 376 889 385 942 l 364 810 q 368 694 356 753 q 406 585 381 636 q 460 494 432 533 l 690 175 q 775 64 740 107 q 842 0 810 21 q 917 -21 875 -21 q 1021 26 985 -21 q 1068 174 1057 74 l 1139 817 q 1133 940 1146 881 q 1081 1039 1119 1000 q 974 1078 1043 1078 q 882 1052 915 1078 q 835 990 849 1026 q 821 917 821 953 q 824 854 821 892 q 853 750 826 817 l 981 421 q 1002 362 994 386 q 1010 318 1010 338 q 958 272 1010 272 q 923 289 940 272 q 881 344 906 306 l 551 860 q 472 974 510 925 q 394 1049 435 1022 q 297 1076 353 1076 q 176 1046 224 1076 q 106 933 128 1015 q 83 694 83 851 l 83 319 q 88 182 83 244 q 108 74 92 119 q 163 3 125 28 q 269 -21 201 -21 "},"Ņ":{"ha":1225,"x_min":83,"x_max":1146,"o":"m 269 -21 q 380 18 344 -21 q 416 122 415 57 q 385 264 417 188 l 196 726 q 178 790 186 750 q 171 858 171 829 q 203 957 171 918 q 294 996 236 996 q 358 969 332 996 q 376 889 385 942 l 364 810 q 368 694 356 753 q 406 585 381 636 q 460 494 432 533 l 690 175 q 775 64 740 107 q 842 0 810 21 q 917 -21 875 -21 q 1021 26 985 -21 q 1068 174 1057 74 l 1139 817 q 1133 940 1146 881 q 1081 1039 1119 1000 q 974 1078 1043 1078 q 882 1052 915 1078 q 835 990 849 1026 q 821 917 821 953 q 824 854 821 892 q 853 750 826 817 l 981 421 q 1002 362 994 386 q 1010 318 1010 338 q 958 272 1010 272 q 923 289 940 272 q 881 344 906 306 l 551 860 q 472 974 510 925 q 394 1049 435 1022 q 297 1076 353 1076 q 176 1046 224 1076 q 106 933 128 1015 q 83 694 83 851 l 83 319 q 88 182 83 244 q 108 74 92 119 q 163 3 125 28 q 269 -21 201 -21 m 440 -306 q 455 -342 439 -332 q 489 -340 471 -351 l 683 -221 q 730 -159 724 -196 q 713 -87 736 -122 q 640 -36 690 -53 q 558 -22 601 -22 q 483 -40 514 -21 q 449 -110 451 -60 l 440 -306 "},"Ŋ":{"ha":1225,"x_min":83,"x_max":1146,"o":"m 865 14 q 922 -62 908 -37 q 935 -106 935 -86 q 917 -141 935 -126 q 871 -142 900 -156 l 769 -93 q 709 -81 742 -79 q 654 -101 676 -82 q 632 -160 632 -119 q 673 -244 632 -210 q 792 -278 714 -278 q 931 -247 881 -278 q 1008 -160 982 -215 q 1042 -33 1033 -106 l 1139 817 q 1133 940 1146 881 q 1081 1039 1119 1000 q 974 1078 1043 1078 q 882 1052 915 1078 q 835 990 849 1026 q 821 917 821 953 q 824 854 821 892 q 853 750 826 817 l 981 421 q 1002 362 994 386 q 1010 318 1010 338 q 958 272 1010 272 q 923 289 940 272 q 881 344 906 306 l 551 860 q 472 974 510 925 q 394 1049 435 1022 q 297 1076 353 1076 q 176 1046 224 1076 q 106 933 128 1015 q 83 694 83 851 l 83 319 q 88 182 83 244 q 108 74 92 119 q 163 3 125 28 q 269 -21 201 -21 q 380 18 344 -21 q 416 122 415 57 q 385 264 417 188 l 196 726 q 178 790 186 750 q 171 858 171 829 q 203 957 171 918 q 294 996 236 996 q 358 969 332 996 q 376 889 385 942 l 364 810 q 367 694 356 753 q 403 583 378 635 q 460 494 429 532 l 865 14 "},"Ñ":{"ha":1225,"x_min":83,"x_max":1146,"o":"m 636 1244 q 563 1312 594 1292 q 493 1332 531 1332 q 376 1317 429 1332 q 297 1270 322 1303 q 288 1183 271 1238 q 329 1133 299 1147 q 393 1128 360 1119 q 446 1164 426 1136 l 499 1240 q 553 1240 522 1276 l 579 1208 q 649 1144 617 1163 q 719 1126 682 1126 q 873 1157 817 1126 q 919 1268 929 1188 q 888 1322 915 1304 q 825 1335 860 1340 q 767 1294 790 1329 l 714 1218 q 660 1218 692 1185 l 636 1244 m 269 -21 q 380 18 344 -21 q 416 122 415 57 q 385 264 417 188 l 196 726 q 178 790 186 750 q 171 858 171 829 q 203 957 171 918 q 294 996 236 996 q 358 969 332 996 q 376 889 385 942 l 364 810 q 368 694 356 753 q 406 585 381 636 q 460 494 432 533 l 690 175 q 775 64 740 107 q 842 0 810 21 q 917 -21 875 -21 q 1021 26 985 -21 q 1068 174 1057 74 l 1139 817 q 1133 940 1146 881 q 1081 1039 1119 1000 q 974 1078 1043 1078 q 882 1052 915 1078 q 835 990 849 1026 q 821 917 821 953 q 824 854 821 892 q 853 750 826 817 l 981 421 q 1002 362 994 386 q 1010 318 1010 338 q 958 272 1010 272 q 923 289 940 272 q 881 344 906 306 l 551 860 q 472 974 510 925 q 394 1049 435 1022 q 297 1076 353 1076 q 176 1046 224 1076 q 106 933 128 1015 q 83 694 83 851 l 83 319 q 88 182 83 244 q 108 74 92 119 q 163 3 125 28 q 269 -21 201 -21 "},"O":{"ha":1151,"x_min":83,"x_max":1068,"o":"m 575 -21 q 943 119 818 -21 q 1068 531 1068 258 q 943 940 1068 804 q 575 1076 818 1076 q 208 940 333 1076 q 83 531 83 804 q 208 119 83 258 q 575 -21 333 -21 m 599 100 q 538 67 572 69 q 475 86 504 65 q 435 143 446 107 l 247 742 q 246 851 228 807 q 307 908 264 894 q 406 900 350 922 l 932 689 q 992 628 982 669 q 965 543 1001 586 l 599 100 "},"Ó":{"ha":1151,"x_min":83,"x_max":1068,"o":"m 769 1165 q 847 1212 829 1176 q 851 1288 864 1247 q 815 1338 842 1321 q 754 1353 788 1354 q 693 1328 721 1351 l 490 1161 q 485 1131 476 1150 q 515 1117 493 1113 l 769 1165 m 575 -21 q 943 119 818 -21 q 1068 531 1068 258 q 943 940 1068 804 q 575 1076 818 1076 q 208 940 333 1076 q 83 531 83 804 q 208 119 83 258 q 575 -21 333 -21 m 599 100 q 538 67 572 69 q 475 86 504 65 q 435 143 446 107 l 247 742 q 246 851 228 807 q 307 908 264 894 q 406 900 350 922 l 932 689 q 992 628 982 669 q 965 543 1001 586 l 599 100 "},"Ô":{"ha":1151,"x_min":83,"x_max":1068,"o":"m 571 1314 q 607 1292 590 1314 l 685 1179 q 724 1138 707 1149 q 760 1128 742 1128 q 824 1156 800 1128 q 849 1238 849 1185 q 828 1307 849 1278 q 760 1340 808 1336 q 665 1347 713 1344 q 571 1349 618 1350 q 476 1347 524 1350 q 382 1340 429 1344 q 313 1307 333 1336 q 293 1238 293 1278 q 317 1156 293 1185 q 382 1128 342 1128 q 418 1138 401 1128 q 457 1179 435 1149 l 535 1292 q 571 1314 551 1314 m 575 -21 q 943 119 818 -21 q 1068 531 1068 258 q 943 940 1068 804 q 575 1076 818 1076 q 208 940 333 1076 q 83 531 83 804 q 208 119 83 258 q 575 -21 333 -21 m 599 100 q 538 67 572 69 q 475 86 504 65 q 435 143 446 107 l 247 742 q 246 851 228 807 q 307 908 264 894 q 406 900 350 922 l 932 689 q 992 628 982 669 q 965 543 1001 586 l 599 100 "},"Ö":{"ha":1151,"x_min":83,"x_max":1068,"o":"m 418 1160 q 486 1179 454 1165 q 535 1219 518 1193 q 542 1288 553 1246 q 505 1346 532 1332 q 446 1354 478 1360 q 375 1333 411 1349 q 319 1291 339 1318 q 310 1224 300 1264 q 340 1171 318 1192 q 418 1160 363 1150 m 669 1183 q 736 1163 701 1169 q 800 1170 771 1157 q 843 1224 829 1183 q 843 1292 858 1265 q 799 1332 828 1318 q 728 1353 767 1347 q 658 1348 689 1360 q 613 1297 626 1336 q 610 1236 603 1265 q 669 1183 618 1207 m 575 -21 q 943 119 818 -21 q 1068 531 1068 258 q 943 940 1068 804 q 575 1076 818 1076 q 208 940 333 1076 q 83 531 83 804 q 208 119 83 258 q 575 -21 333 -21 m 599 100 q 538 67 572 69 q 475 86 504 65 q 435 143 446 107 l 247 742 q 246 851 228 807 q 307 908 264 894 q 406 900 350 922 l 932 689 q 992 628 982 669 q 965 543 1001 586 l 599 100 "},"Ò":{"ha":1151,"x_min":83,"x_max":1068,"o":"m 611 1117 q 642 1131 633 1113 q 636 1161 650 1150 l 433 1328 q 372 1353 406 1351 q 312 1338 339 1354 q 275 1288 285 1321 q 280 1212 263 1247 q 357 1165 297 1176 l 611 1117 m 575 -21 q 943 119 818 -21 q 1068 531 1068 258 q 943 940 1068 804 q 575 1076 818 1076 q 208 940 333 1076 q 83 531 83 804 q 208 119 83 258 q 575 -21 333 -21 m 599 100 q 538 67 572 69 q 475 86 504 65 q 435 143 446 107 l 247 742 q 246 851 228 807 q 307 908 264 894 q 406 900 350 922 l 932 689 q 992 628 982 669 q 965 543 1001 586 l 599 100 "},"Ő":{"ha":1151,"x_min":83,"x_max":1068,"o":"m 931 1178 q 1001 1234 988 1197 q 996 1310 1014 1271 q 953 1355 982 1342 q 891 1362 924 1368 q 833 1329 858 1356 l 654 1139 q 652 1108 642 1125 q 685 1097 663 1092 l 931 1178 m 613 1201 q 670 1254 661 1221 q 661 1319 679 1288 q 621 1356 647 1346 q 567 1358 594 1365 q 519 1325 539 1350 l 376 1147 q 377 1121 367 1135 q 406 1114 388 1107 l 613 1201 m 575 -21 q 943 119 818 -21 q 1068 531 1068 258 q 943 940 1068 804 q 575 1076 818 1076 q 208 940 333 1076 q 83 531 83 804 q 208 119 83 258 q 575 -21 333 -21 m 599 100 q 538 67 572 69 q 475 86 504 65 q 435 143 446 107 l 247 742 q 246 851 228 807 q 307 908 264 894 q 406 900 350 922 l 932 689 q 992 628 982 669 q 965 543 1001 586 l 599 100 "},"Ō":{"ha":1151,"x_min":83,"x_max":1068,"o":"m 760 1156 q 846 1184 824 1154 q 857 1256 868 1214 q 815 1307 847 1294 q 706 1308 783 1319 l 389 1263 q 325 1210 325 1254 q 340 1176 325 1186 q 386 1165 356 1167 l 760 1156 m 575 -21 q 943 119 818 -21 q 1068 531 1068 258 q 943 940 1068 804 q 575 1076 818 1076 q 208 940 333 1076 q 83 531 83 804 q 208 119 83 258 q 575 -21 333 -21 m 599 100 q 538 67 572 69 q 475 86 504 65 q 435 143 446 107 l 247 742 q 246 851 228 807 q 307 908 264 894 q 406 900 350 922 l 932 689 q 992 628 982 669 q 965 543 1001 586 l 599 100 "},"Ø":{"ha":1181,"x_min":83,"x_max":1097,"o":"m 1006 775 q 1019 822 1006 803 q 1051 857 1033 840 q 1083 895 1069 874 q 1097 949 1097 917 q 1060 1038 1097 1000 q 972 1076 1022 1076 q 915 1058 936 1076 q 876 1023 894 1040 q 831 1006 858 1006 q 780 1016 807 1006 q 718 1041 753 1026 q 634 1066 683 1056 q 515 1076 585 1076 q 278 1010 375 1076 q 133 819 182 943 q 83 525 83 696 q 163 176 83 306 q 177 140 172 161 q 167 99 182 118 l 110 24 q 101 -7 96 6 q 119 -21 106 -19 q 149 -8 133 -22 l 210 46 q 249 63 231 64 q 297 43 268 63 q 422 -6 351 8 q 575 -21 492 -21 q 832 27 718 -21 q 1013 169 946 75 q 1081 403 1081 264 q 1073 529 1081 481 q 1054 608 1065 578 q 1032 662 1043 639 q 1013 710 1021 685 q 1006 775 1006 736 m 435 913 q 481 975 450 956 q 549 994 513 994 q 618 977 585 994 q 673 928 651 960 q 694 854 694 897 q 683 796 694 828 q 646 729 672 764 l 285 253 q 242 222 263 222 q 213 240 221 222 q 214 281 206 258 l 435 913 m 406 128 q 361 122 381 118 q 342 147 342 125 q 367 196 342 169 l 763 611 q 824 658 794 643 q 881 672 854 672 q 968 628 933 672 q 1003 528 1003 585 q 974 433 1003 481 q 881 354 946 386 l 406 128 "},"Õ":{"ha":1151,"x_min":83,"x_max":1068,"o":"m 594 1244 q 521 1312 553 1292 q 451 1332 489 1332 q 334 1317 388 1332 q 255 1270 281 1303 q 246 1183 229 1238 q 288 1133 257 1147 q 351 1128 318 1119 q 404 1164 385 1136 l 457 1240 q 511 1240 481 1276 l 538 1208 q 608 1144 575 1163 q 678 1126 640 1126 q 831 1157 775 1126 q 878 1268 888 1188 q 846 1322 874 1304 q 783 1335 818 1340 q 725 1294 749 1329 l 672 1218 q 618 1218 650 1185 l 594 1244 m 575 -21 q 943 119 818 -21 q 1068 531 1068 258 q 943 940 1068 804 q 575 1076 818 1076 q 208 940 333 1076 q 83 531 83 804 q 208 119 83 258 q 575 -21 333 -21 m 599 100 q 538 67 572 69 q 475 86 504 65 q 435 143 446 107 l 247 742 q 246 851 228 807 q 307 908 264 894 q 406 900 350 922 l 932 689 q 992 628 982 669 q 965 543 1001 586 l 599 100 "},"Œ":{"ha":2050,"x_min":83,"x_max":2022,"o":"m 575 -21 q 778 10 692 -21 q 925 118 864 40 q 1025 335 986 196 q 1042 376 1032 361 q 1071 390 1053 390 q 1103 383 1090 390 q 1133 363 1115 376 l 1565 63 q 1663 4 1618 28 q 1750 -19 1707 -19 q 1856 26 1815 -19 q 1896 133 1896 72 q 1845 239 1896 201 q 1719 293 1794 276 l 1203 407 q 1151 428 1168 414 q 1138 465 1133 443 q 1162 494 1142 489 q 1222 496 1182 500 l 1872 436 q 1981 455 1939 431 q 2022 554 2022 479 q 1981 658 2022 631 q 1872 674 1939 686 l 1222 557 q 1162 558 1182 550 q 1138 588 1142 565 q 1151 624 1133 610 q 1203 646 1168 638 l 1650 760 q 1776 815 1725 779 q 1826 919 1826 851 q 1786 1026 1826 981 q 1681 1072 1746 1072 q 1591 1049 1638 1072 q 1496 986 1544 1026 l 1133 690 q 1103 669 1115 676 q 1071 663 1090 663 q 1042 677 1053 663 q 1025 718 1032 692 q 925 936 986 858 q 778 1045 864 1014 q 575 1076 692 1076 q 208 940 333 1076 q 83 531 83 804 q 208 119 83 258 q 575 -21 333 -21 m 599 100 q 534 72 568 74 q 473 88 500 69 q 435 143 446 107 l 247 742 q 247 852 228 807 q 310 912 267 897 q 406 900 354 926 l 988 606 q 1048 539 1035 582 q 1021 460 1061 496 l 599 100 "},"P":{"ha":1119,"x_min":90,"x_max":1078,"o":"m 356 1056 q 206 1020 265 1056 q 119 924 147 985 q 90 785 90 863 l 90 186 q 116 54 90 99 q 184 -6 142 10 q 274 -21 226 -21 q 397 13 354 -21 q 440 118 440 46 q 422 213 440 169 q 360 304 403 256 l 189 496 q 159 567 163 526 q 183 639 156 608 q 258 674 215 675 q 326 639 300 672 l 486 429 q 624 298 556 338 q 781 258 692 258 q 951 306 886 258 q 1047 437 1017 354 q 1078 624 1078 519 q 972 945 1078 835 q 639 1056 867 1056 l 356 1056 m 294 768 q 310 803 294 790 q 353 826 326 815 l 610 932 q 672 949 647 947 q 715 935 696 950 q 760 885 735 921 l 971 582 q 997 490 1007 531 q 941 438 986 449 q 825 461 896 426 l 343 706 q 294 768 294 731 "},"Þ":{"ha":1119,"x_min":90,"x_max":1078,"o":"m 825 997 q 721 985 765 997 q 637 949 676 974 q 551 883 597 924 l 243 640 q 183 623 207 614 q 159 659 160 632 q 189 713 158 686 q 349 845 292 790 q 406 964 406 900 q 369 1045 406 1008 q 253 1082 333 1082 q 135 1031 181 1082 q 90 900 90 981 l 90 161 q 135 30 90 81 q 253 -21 181 -21 q 369 16 333 -21 q 406 97 406 53 q 349 217 406 163 q 189 349 292 271 q 159 403 158 376 q 183 439 160 429 q 243 421 207 449 l 551 178 q 637 113 597 139 q 721 76 676 88 q 825 64 765 64 q 953 91 904 64 q 1030 160 1003 118 q 1067 251 1057 203 q 1078 343 1078 300 l 1078 718 q 1067 810 1078 761 q 1030 901 1057 858 q 953 970 1003 943 q 825 997 904 997 m 950 357 q 991 318 982 342 q 990 273 1000 294 q 956 241 981 251 q 899 243 932 231 l 356 435 q 302 456 329 444 q 257 485 275 468 q 239 531 239 503 q 272 588 239 568 q 356 626 306 608 l 899 818 q 956 820 932 831 q 990 788 981 810 q 991 743 1000 767 q 950 704 982 719 l 789 607 q 755 573 767 593 q 743 531 743 553 q 755 488 743 508 q 789 454 767 468 l 950 357 "},"Q":{"ha":1311,"x_min":76,"x_max":1219,"o":"m 733 92 q 681 113 696 99 q 668 153 667 128 q 688 188 671 176 q 743 196 704 200 l 936 175 q 1150 209 1081 160 q 1219 406 1219 258 q 1184 663 1219 542 q 1081 878 1149 785 q 916 1024 1013 971 q 699 1076 819 1076 q 483 1030 578 1076 q 317 906 388 983 q 199 735 247 829 q 124 545 151 642 q 88 367 96 449 q 99 174 76 263 q 179 33 122 86 q 324 -21 236 -21 q 403 -3 369 -21 q 464 36 438 14 q 512 76 490 58 q 554 93 533 93 q 593 79 579 93 l 896 -199 q 977 -254 932 -231 q 1065 -278 1022 -278 q 1180 -235 1142 -278 q 1218 -142 1218 -193 q 1191 -40 1218 -86 q 1093 19 1164 6 l 733 92 m 340 701 q 379 846 335 800 q 538 861 424 892 l 1004 736 q 1065 698 1042 726 q 1089 626 1089 669 q 1066 563 1089 597 q 1003 497 1043 528 l 574 181 q 503 138 531 149 q 447 129 476 126 q 392 160 414 132 q 367 231 369 188 l 340 701 "},"R":{"ha":1199,"x_min":83,"x_max":1129,"o":"m 1121 154 q 1075 258 1121 219 q 960 299 1029 297 l 686 301 q 629 311 647 301 q 611 344 611 321 q 628 383 611 369 q 671 406 646 397 l 899 486 q 1047 560 997 521 q 1113 644 1096 600 q 1129 735 1129 688 q 1110 840 1129 782 q 1045 953 1092 899 q 916 1042 999 1007 q 704 1076 833 1076 q 429 1013 546 1076 q 235 838 313 950 q 121 574 158 725 q 83 244 83 422 q 111 88 83 146 q 181 4 139 29 q 265 -21 222 -21 q 379 15 344 -21 q 414 108 414 51 q 386 229 414 165 l 244 563 q 226 643 226 606 q 283 772 226 717 q 447 826 340 826 l 882 826 q 997 792 958 826 q 1036 706 1036 757 q 1018 639 1036 669 q 957 592 1000 608 q 839 586 914 576 l 417 640 q 336 601 338 651 q 381 514 336 571 l 724 99 q 834 4 781 29 q 929 -21 888 -21 q 1043 5 1001 -21 q 1103 71 1085 31 q 1121 154 1121 111 "},"Ŕ":{"ha":1199,"x_min":83,"x_max":1129,"o":"m 903 1165 q 980 1212 963 1176 q 985 1288 997 1247 q 948 1338 975 1321 q 888 1353 921 1354 q 826 1328 854 1351 l 624 1161 q 618 1131 610 1150 q 649 1117 626 1113 l 903 1165 m 1121 154 q 1075 258 1121 219 q 960 299 1029 297 l 686 301 q 629 311 647 301 q 611 344 611 321 q 628 383 611 369 q 671 406 646 397 l 899 486 q 1047 560 997 521 q 1113 644 1096 600 q 1129 735 1129 688 q 1110 840 1129 782 q 1045 953 1092 899 q 916 1042 999 1007 q 704 1076 833 1076 q 429 1013 546 1076 q 235 838 313 950 q 121 574 158 725 q 83 244 83 422 q 111 88 83 146 q 181 4 139 29 q 265 -21 222 -21 q 379 15 344 -21 q 414 108 414 51 q 386 229 414 165 l 244 563 q 226 643 226 606 q 283 772 226 717 q 447 826 340 826 l 882 826 q 997 792 958 826 q 1036 706 1036 757 q 1018 639 1036 669 q 957 592 1000 608 q 839 586 914 576 l 417 640 q 336 601 338 651 q 381 514 336 571 l 724 99 q 834 4 781 29 q 929 -21 888 -21 q 1043 5 1001 -21 q 1103 71 1085 31 q 1121 154 1121 111 "},"Ř":{"ha":1199,"x_min":83,"x_max":1129,"o":"m 697 1163 q 661 1185 678 1163 l 583 1297 q 544 1339 561 1329 q 508 1349 528 1349 q 444 1320 468 1349 q 419 1239 419 1292 q 440 1170 419 1200 q 508 1136 460 1140 q 603 1129 556 1132 q 697 1128 650 1126 q 792 1129 744 1126 q 886 1136 839 1132 q 955 1170 935 1140 q 975 1239 975 1200 q 951 1320 975 1292 q 886 1349 926 1349 q 851 1339 868 1349 q 811 1297 833 1329 l 733 1185 q 697 1163 717 1163 m 1121 154 q 1075 258 1121 219 q 960 299 1029 297 l 686 301 q 629 311 647 301 q 611 344 611 321 q 628 383 611 369 q 671 406 646 397 l 899 486 q 1047 560 997 521 q 1113 644 1096 600 q 1129 735 1129 688 q 1110 840 1129 782 q 1045 953 1092 899 q 916 1042 999 1007 q 704 1076 833 1076 q 429 1013 546 1076 q 235 838 313 950 q 121 574 158 725 q 83 244 83 422 q 111 88 83 146 q 181 4 139 29 q 265 -21 222 -21 q 379 15 344 -21 q 414 108 414 51 q 386 229 414 165 l 244 563 q 226 643 226 606 q 283 772 226 717 q 447 826 340 826 l 882 826 q 997 792 958 826 q 1036 706 1036 757 q 1018 639 1036 669 q 957 592 1000 608 q 839 586 914 576 l 417 640 q 336 601 338 651 q 381 514 336 571 l 724 99 q 834 4 781 29 q 929 -21 888 -21 q 1043 5 1001 -21 q 1103 71 1085 31 q 1121 154 1121 111 "},"Ŗ":{"ha":1199,"x_min":83,"x_max":1129,"o":"m 1121 154 q 1075 258 1121 219 q 960 299 1029 297 l 686 301 q 629 311 647 301 q 611 344 611 321 q 628 383 611 369 q 671 406 646 397 l 899 486 q 1047 560 997 521 q 1113 644 1096 600 q 1129 735 1129 688 q 1110 840 1129 782 q 1045 953 1092 899 q 916 1042 999 1007 q 704 1076 833 1076 q 429 1013 546 1076 q 235 838 313 950 q 121 574 158 725 q 83 244 83 422 q 111 88 83 146 q 181 4 139 29 q 265 -21 222 -21 q 379 15 344 -21 q 414 108 414 51 q 386 229 414 165 l 244 563 q 226 643 226 606 q 283 772 226 717 q 447 826 340 826 l 882 826 q 997 792 958 826 q 1036 706 1036 757 q 1018 639 1036 669 q 957 592 1000 608 q 839 586 914 576 l 417 640 q 336 601 338 651 q 381 514 336 571 l 724 99 q 834 4 781 29 q 929 -21 888 -21 q 1043 5 1001 -21 q 1103 71 1085 31 q 1121 154 1121 111 m 440 -306 q 455 -342 439 -332 q 489 -340 471 -351 l 683 -221 q 730 -159 724 -196 q 713 -87 736 -122 q 640 -36 690 -53 q 558 -22 601 -22 q 483 -40 514 -21 q 449 -110 451 -60 l 440 -306 "},"S":{"ha":1158,"x_min":58,"x_max":1075,"o":"m 506 -19 q 728 13 625 -19 q 910 101 832 46 q 1031 226 988 157 q 1075 368 1075 296 q 1046 456 1075 418 q 957 504 1017 494 l 250 632 q 201 650 217 639 q 183 683 186 661 q 194 724 181 706 q 253 751 208 742 l 851 881 q 909 888 886 888 q 949 876 932 888 q 961 853 960 869 q 950 817 963 836 l 889 725 q 859 652 861 683 q 871 600 857 621 q 907 569 885 579 q 950 560 929 560 q 1040 606 1011 560 q 1069 726 1069 653 q 1029 888 1069 821 q 921 997 989 954 q 767 1059 853 1039 q 592 1079 682 1079 q 413 1055 500 1079 q 254 983 325 1031 q 142 866 183 936 q 100 706 100 796 q 126 626 100 663 q 194 579 151 590 l 282 558 q 342 538 324 549 q 361 488 360 526 l 363 435 q 392 344 364 385 q 472 290 421 304 q 588 307 522 276 l 882 443 q 947 453 918 460 q 986 407 976 446 q 967 347 997 368 q 892 306 936 326 l 406 71 q 312 61 343 40 q 281 132 281 82 l 281 368 q 251 448 281 413 q 172 483 222 483 q 106 458 131 483 q 69 394 81 432 q 58 318 58 357 q 82 198 58 258 q 157 89 106 138 q 294 10 208 40 q 506 -19 381 -19 "},"Ś":{"ha":1158,"x_min":58,"x_max":1075,"o":"m 793 1165 q 870 1212 853 1176 q 875 1288 888 1247 q 838 1338 865 1321 q 778 1353 811 1354 q 717 1328 744 1351 l 514 1161 q 508 1131 500 1150 q 539 1117 517 1113 l 793 1165 m 506 -19 q 728 13 625 -19 q 910 101 832 46 q 1031 226 988 157 q 1075 368 1075 296 q 1046 456 1075 418 q 957 504 1017 494 l 250 632 q 201 650 217 639 q 183 683 186 661 q 194 724 181 706 q 253 751 208 742 l 851 881 q 909 888 886 888 q 949 876 932 888 q 961 853 960 869 q 950 817 963 836 l 889 725 q 859 652 861 683 q 871 600 857 621 q 907 569 885 579 q 950 560 929 560 q 1040 606 1011 560 q 1069 726 1069 653 q 1029 888 1069 821 q 921 997 989 954 q 767 1059 853 1039 q 592 1079 682 1079 q 413 1055 500 1079 q 254 983 325 1031 q 142 866 183 936 q 100 706 100 796 q 126 626 100 663 q 194 579 151 590 l 282 558 q 342 538 324 549 q 361 488 360 526 l 363 435 q 392 344 364 385 q 472 290 421 304 q 588 307 522 276 l 882 443 q 947 453 918 460 q 986 407 976 446 q 967 347 997 368 q 892 306 936 326 l 406 71 q 312 61 343 40 q 281 132 281 82 l 281 368 q 251 448 281 413 q 172 483 222 483 q 106 458 131 483 q 69 394 81 432 q 58 318 58 357 q 82 198 58 258 q 157 89 106 138 q 294 10 208 40 q 506 -19 381 -19 "},"Š":{"ha":1158,"x_min":58,"x_max":1075,"o":"m 588 1163 q 551 1185 568 1163 l 474 1297 q 435 1339 451 1329 q 399 1349 418 1349 q 334 1320 358 1349 q 310 1239 310 1292 q 330 1170 310 1200 q 399 1136 350 1140 q 493 1129 446 1132 q 588 1128 540 1126 q 682 1129 635 1126 q 776 1136 729 1132 q 845 1170 825 1140 q 865 1239 865 1200 q 841 1320 865 1292 q 776 1349 817 1349 q 741 1339 758 1349 q 701 1297 724 1329 l 624 1185 q 588 1163 607 1163 m 506 -19 q 728 13 625 -19 q 910 101 832 46 q 1031 226 988 157 q 1075 368 1075 296 q 1046 456 1075 418 q 957 504 1017 494 l 250 632 q 201 650 217 639 q 183 683 186 661 q 194 724 181 706 q 253 751 208 742 l 851 881 q 909 888 886 888 q 949 876 932 888 q 961 853 960 869 q 950 817 963 836 l 889 725 q 859 652 861 683 q 871 600 857 621 q 907 569 885 579 q 950 560 929 560 q 1040 606 1011 560 q 1069 726 1069 653 q 1029 888 1069 821 q 921 997 989 954 q 767 1059 853 1039 q 592 1079 682 1079 q 413 1055 500 1079 q 254 983 325 1031 q 142 866 183 936 q 100 706 100 796 q 126 626 100 663 q 194 579 151 590 l 282 558 q 342 538 324 549 q 361 488 360 526 l 363 435 q 392 344 364 385 q 472 290 421 304 q 588 307 522 276 l 882 443 q 947 453 918 460 q 986 407 976 446 q 967 347 997 368 q 892 306 936 326 l 406 71 q 312 61 343 40 q 281 132 281 82 l 281 368 q 251 448 281 413 q 172 483 222 483 q 106 458 131 483 q 69 394 81 432 q 58 318 58 357 q 82 198 58 258 q 157 89 106 138 q 294 10 208 40 q 506 -19 381 -19 "},"Ş":{"ha":1158,"x_min":58,"x_max":1075,"o":"m 1075 368 q 1046 456 1075 418 q 957 504 1017 494 l 250 632 q 201 650 217 639 q 183 683 186 661 q 194 724 181 706 q 253 751 208 742 l 851 881 q 909 888 886 888 q 949 876 932 888 q 961 853 960 869 q 950 817 963 836 l 889 725 q 859 652 861 683 q 871 600 857 621 q 907 569 885 579 q 950 560 929 560 q 1040 606 1011 560 q 1069 726 1069 653 q 1029 888 1069 821 q 921 997 989 954 q 767 1059 853 1039 q 592 1079 682 1079 q 413 1055 500 1079 q 254 983 325 1031 q 142 866 183 936 q 100 706 100 796 q 126 626 100 663 q 194 579 151 590 l 282 558 q 342 538 324 549 q 361 488 360 526 l 363 435 q 392 344 364 385 q 472 290 421 304 q 588 307 522 276 l 882 443 q 947 453 918 460 q 986 407 976 446 q 967 347 997 368 q 892 306 936 326 l 406 71 q 312 61 343 40 q 281 132 281 82 l 281 368 q 251 448 281 413 q 172 483 222 483 q 106 458 131 483 q 69 394 81 432 q 58 318 58 357 q 82 198 58 258 q 157 89 106 138 q 294 10 208 40 q 506 -19 381 -19 l 528 -19 l 483 -133 l 451 -107 q 397 -86 426 -86 q 344 -104 367 -86 q 315 -157 321 -122 q 349 -226 310 -200 q 467 -267 389 -251 q 636 -276 558 -283 q 762 -236 714 -268 q 810 -147 810 -204 q 792 -93 810 -117 q 746 -55 774 -69 q 689 -40 718 -40 q 644 -47 663 -40 q 611 -53 626 -53 q 597 -46 599 -53 q 604 -12 596 -39 q 792 37 706 0 q 941 126 878 74 q 1040 242 1004 179 q 1075 368 1075 304 m 688 -110 q 735 -150 735 -110 q 703 -194 735 -174 q 624 -215 672 -215 q 584 -201 597 -215 q 572 -169 571 -187 q 590 -140 574 -151 q 644 -115 622 -121 q 688 -110 667 -110 "},"Ș":{"ha":1158,"x_min":58,"x_max":1075,"o":"m 506 -19 q 728 13 625 -19 q 910 101 832 46 q 1031 226 988 157 q 1075 368 1075 296 q 1046 456 1075 418 q 957 504 1017 494 l 250 632 q 201 650 217 639 q 183 683 186 661 q 194 724 181 706 q 253 751 208 742 l 851 881 q 909 888 886 888 q 949 876 932 888 q 961 853 960 869 q 950 817 963 836 l 889 725 q 859 652 861 683 q 871 600 857 621 q 907 569 885 579 q 950 560 929 560 q 1040 606 1011 560 q 1069 726 1069 653 q 1029 888 1069 821 q 921 997 989 954 q 767 1059 853 1039 q 592 1079 682 1079 q 413 1055 500 1079 q 254 983 325 1031 q 142 866 183 936 q 100 706 100 796 q 126 626 100 663 q 194 579 151 590 l 282 558 q 342 538 324 549 q 361 488 360 526 l 363 435 q 392 344 364 385 q 472 290 421 304 q 588 307 522 276 l 882 443 q 947 453 918 460 q 986 407 976 446 q 967 347 997 368 q 892 306 936 326 l 406 71 q 312 61 343 40 q 281 132 281 82 l 281 368 q 251 448 281 413 q 172 483 222 483 q 106 458 131 483 q 69 394 81 432 q 58 318 58 357 q 82 198 58 258 q 157 89 106 138 q 294 10 208 40 q 506 -19 381 -19 m 440 -306 q 455 -342 439 -332 q 489 -340 471 -351 l 683 -221 q 728 -142 743 -185 q 640 -72 714 -99 q 558 -58 601 -58 q 483 -76 514 -57 q 449 -146 451 -96 l 440 -306 "},"T":{"ha":1063,"x_min":14,"x_max":1083,"o":"m 529 888 q 517 973 508 947 q 553 999 525 999 q 594 976 574 999 l 750 803 q 856 735 799 750 q 965 739 913 721 q 1050 799 1017 757 q 1083 901 1083 842 q 1066 973 1083 938 q 1007 1032 1049 1008 q 893 1056 965 1056 l 418 1056 q 202 1013 293 1056 q 63 895 111 969 q 14 724 14 821 q 34 644 14 681 q 90 583 54 607 q 169 558 125 560 q 300 625 264 556 q 336 838 336 694 l 336 899 q 349 975 336 944 q 397 1006 363 1006 q 438 976 425 1006 q 451 882 450 947 l 467 203 q 481 79 468 129 q 529 4 494 29 q 631 -21 564 -21 q 769 51 742 -21 q 753 238 796 124 l 529 888 "},"Ŧ":{"ha":1063,"x_min":14,"x_max":1083,"o":"m 14 724 q 34 644 14 681 q 90 583 54 607 q 169 558 125 560 q 300 625 264 556 q 336 838 336 694 l 336 899 q 349 975 336 944 q 397 1006 363 1006 q 436 976 425 1006 q 451 882 447 947 l 472 506 q 432 469 475 465 l 235 488 q 169 474 193 492 q 138 429 144 457 q 138 374 131 401 q 162 328 144 349 q 211 304 179 308 q 289 321 243 300 l 425 383 q 462 386 449 394 q 474 358 475 378 l 467 203 q 496 36 461 93 q 631 -21 531 -21 q 770 52 742 -21 q 753 238 799 125 l 696 374 q 695 410 689 393 q 728 424 701 426 l 886 406 q 953 418 929 401 q 983 463 976 435 q 983 519 990 492 q 959 565 978 546 q 909 590 940 585 q 832 572 878 594 l 711 515 q 660 508 678 499 q 636 543 643 517 l 529 888 q 518 974 511 949 q 553 999 525 999 q 594 976 574 999 l 750 803 q 856 735 799 750 q 965 739 913 721 q 1050 799 1017 757 q 1083 901 1083 842 q 1066 973 1083 938 q 1007 1032 1049 1008 q 893 1056 965 1056 l 418 1056 q 202 1013 293 1056 q 63 895 111 969 q 14 724 14 821 "},"Ť":{"ha":1063,"x_min":14,"x_max":1083,"o":"m 483 1163 q 447 1185 464 1163 l 369 1297 q 331 1339 347 1329 q 294 1349 314 1349 q 230 1320 254 1349 q 206 1239 206 1292 q 226 1170 206 1200 q 294 1136 246 1140 q 389 1129 342 1132 q 483 1128 436 1126 q 578 1129 531 1126 q 672 1136 625 1132 q 741 1170 721 1140 q 761 1239 761 1200 q 737 1320 761 1292 q 672 1349 713 1349 q 637 1339 654 1349 q 597 1297 619 1329 l 519 1185 q 483 1163 503 1163 m 529 888 q 517 973 508 947 q 553 999 525 999 q 594 976 574 999 l 750 803 q 856 735 799 750 q 965 739 913 721 q 1050 799 1017 757 q 1083 901 1083 842 q 1066 973 1083 938 q 1007 1032 1049 1008 q 893 1056 965 1056 l 418 1056 q 202 1013 293 1056 q 63 895 111 969 q 14 724 14 821 q 34 644 14 681 q 90 583 54 607 q 169 558 125 560 q 300 625 264 556 q 336 838 336 694 l 336 899 q 349 975 336 944 q 397 1006 363 1006 q 438 976 425 1006 q 451 882 450 947 l 467 203 q 481 79 468 129 q 529 4 494 29 q 631 -21 564 -21 q 769 51 742 -21 q 753 238 796 124 l 529 888 "},"Ţ":{"ha":1063,"x_min":14,"x_max":1083,"o":"m 418 1056 q 202 1013 293 1056 q 63 895 111 969 q 14 724 14 821 q 34 644 14 681 q 90 583 54 607 q 169 558 125 560 q 300 625 264 556 q 336 838 336 694 l 336 899 q 349 975 336 944 q 397 1006 363 1006 q 438 976 425 1006 q 451 882 450 947 l 467 203 q 497 42 469 97 q 611 -21 524 -14 l 567 -133 l 535 -107 q 480 -86 510 -86 q 427 -104 450 -86 q 399 -157 404 -122 q 433 -226 393 -200 q 550 -267 472 -251 q 719 -276 642 -283 q 845 -236 797 -268 q 893 -147 893 -204 q 875 -93 893 -117 q 829 -55 857 -69 q 772 -40 801 -40 q 728 -47 746 -40 q 694 -53 710 -53 q 681 -46 682 -53 q 688 -14 679 -39 q 775 73 761 6 q 753 238 789 140 l 529 888 q 517 973 508 947 q 553 999 525 999 q 594 976 574 999 l 750 803 q 856 735 799 750 q 965 739 913 721 q 1050 799 1017 757 q 1083 901 1083 842 q 1066 973 1083 938 q 1007 1032 1049 1008 q 893 1056 965 1056 l 418 1056 m 771 -110 q 818 -150 818 -110 q 787 -194 818 -174 q 707 -215 756 -215 q 667 -201 681 -215 q 656 -169 654 -187 q 674 -140 657 -151 q 728 -115 706 -121 q 771 -110 750 -110 "},"Ț":{"ha":1063,"x_min":14,"x_max":1083,"o":"m 529 888 q 517 973 508 947 q 553 999 525 999 q 594 976 574 999 l 750 803 q 856 735 799 750 q 965 739 913 721 q 1050 799 1017 757 q 1083 901 1083 842 q 1066 973 1083 938 q 1007 1032 1049 1008 q 893 1056 965 1056 l 418 1056 q 202 1013 293 1056 q 63 895 111 969 q 14 724 14 821 q 34 644 14 681 q 90 583 54 607 q 169 558 125 560 q 300 625 264 556 q 336 838 336 694 l 336 899 q 349 975 336 944 q 397 1006 363 1006 q 438 976 425 1006 q 451 882 450 947 l 467 203 q 481 79 468 129 q 529 4 494 29 q 631 -21 564 -21 q 769 51 742 -21 q 753 238 796 124 l 529 888 m 519 -306 q 534 -342 518 -332 q 568 -340 550 -351 l 763 -221 q 808 -142 822 -185 q 719 -72 793 -99 q 637 -58 681 -58 q 562 -76 593 -57 q 528 -146 531 -96 l 519 -306 "},"U":{"ha":1100,"x_min":83,"x_max":1017,"o":"m 843 322 q 873 281 860 306 q 887 226 886 256 q 867 167 888 196 q 779 119 836 124 q 632 161 722 115 l 238 364 q 163 449 176 396 q 193 565 150 501 l 364 818 q 394 900 389 856 q 385 985 400 944 q 336 1051 371 1025 q 246 1076 301 1076 q 125 1026 167 1076 q 83 860 83 975 l 83 410 q 143 181 83 278 q 309 32 203 85 q 556 -21 415 -21 q 899 75 782 -21 q 1017 372 1017 171 l 1017 893 q 985 1030 1017 983 q 878 1076 953 1076 q 785 1043 818 1076 q 751 960 751 1010 q 774 888 751 921 q 843 801 797 854 l 924 708 q 941 667 944 685 q 926 638 938 649 q 901 626 918 629 q 861 640 883 622 l 700 771 q 605 813 649 813 q 536 787 561 814 q 515 717 511 760 q 560 629 518 675 l 843 322 "},"Ú":{"ha":1100,"x_min":83,"x_max":1017,"o":"m 753 1165 q 830 1212 813 1176 q 835 1288 847 1247 q 798 1338 825 1321 q 738 1353 771 1354 q 676 1328 704 1351 l 474 1161 q 468 1131 460 1150 q 499 1117 476 1113 l 753 1165 m 843 322 q 873 281 860 306 q 887 226 886 256 q 867 167 888 196 q 779 119 836 124 q 632 161 722 115 l 238 364 q 163 449 176 396 q 193 565 150 501 l 364 818 q 394 900 389 856 q 385 985 400 944 q 336 1051 371 1025 q 246 1076 301 1076 q 125 1026 167 1076 q 83 860 83 975 l 83 410 q 143 181 83 278 q 309 32 203 85 q 556 -21 415 -21 q 899 75 782 -21 q 1017 372 1017 171 l 1017 893 q 985 1030 1017 983 q 878 1076 953 1076 q 785 1043 818 1076 q 751 960 751 1010 q 774 888 751 921 q 843 801 797 854 l 924 708 q 941 667 944 685 q 926 638 938 649 q 901 626 918 629 q 861 640 883 622 l 700 771 q 605 813 649 813 q 536 787 561 814 q 515 717 511 760 q 560 629 518 675 l 843 322 "},"Û":{"ha":1100,"x_min":83,"x_max":1017,"o":"m 554 1314 q 590 1292 574 1314 l 668 1179 q 708 1138 690 1149 q 743 1128 725 1128 q 808 1156 783 1128 q 832 1238 832 1185 q 812 1307 832 1278 q 743 1340 792 1336 q 649 1347 696 1344 q 554 1349 601 1350 q 460 1347 507 1350 q 365 1340 413 1344 q 297 1307 317 1336 q 276 1238 276 1278 q 301 1156 276 1185 q 365 1128 325 1128 q 401 1138 385 1128 q 440 1179 418 1149 l 518 1292 q 554 1314 535 1314 m 843 322 q 873 281 860 306 q 887 226 886 256 q 867 167 888 196 q 779 119 836 124 q 632 161 722 115 l 238 364 q 163 449 176 396 q 193 565 150 501 l 364 818 q 394 900 389 856 q 385 985 400 944 q 336 1051 371 1025 q 246 1076 301 1076 q 125 1026 167 1076 q 83 860 83 975 l 83 410 q 143 181 83 278 q 309 32 203 85 q 556 -21 415 -21 q 899 75 782 -21 q 1017 372 1017 171 l 1017 893 q 985 1030 1017 983 q 878 1076 953 1076 q 785 1043 818 1076 q 751 960 751 1010 q 774 888 751 921 q 843 801 797 854 l 924 708 q 941 667 944 685 q 926 638 938 649 q 901 626 918 629 q 861 640 883 622 l 700 771 q 605 813 649 813 q 536 787 561 814 q 515 717 511 760 q 560 629 518 675 l 843 322 "},"Ü":{"ha":1100,"x_min":83,"x_max":1017,"o":"m 401 1160 q 469 1179 438 1165 q 519 1219 501 1193 q 525 1288 536 1246 q 488 1346 515 1332 q 429 1354 461 1360 q 358 1333 394 1349 q 303 1291 322 1318 q 293 1224 283 1264 q 324 1171 301 1192 q 401 1160 346 1150 m 653 1183 q 719 1163 685 1169 q 783 1170 754 1157 q 826 1224 813 1183 q 826 1292 842 1265 q 782 1332 811 1318 q 711 1353 750 1347 q 641 1348 672 1360 q 596 1297 610 1336 q 594 1236 586 1265 q 653 1183 601 1207 m 843 322 q 873 281 860 306 q 887 226 886 256 q 867 167 888 196 q 779 119 836 124 q 632 161 722 115 l 238 364 q 163 449 176 396 q 193 565 150 501 l 364 818 q 394 900 389 856 q 385 985 400 944 q 336 1051 371 1025 q 246 1076 301 1076 q 125 1026 167 1076 q 83 860 83 975 l 83 410 q 143 181 83 278 q 309 32 203 85 q 556 -21 415 -21 q 899 75 782 -21 q 1017 372 1017 171 l 1017 893 q 985 1030 1017 983 q 878 1076 953 1076 q 785 1043 818 1076 q 751 960 751 1010 q 774 888 751 921 q 843 801 797 854 l 924 708 q 941 667 944 685 q 926 638 938 649 q 901 626 918 629 q 861 640 883 622 l 700 771 q 605 813 649 813 q 536 787 561 814 q 515 717 511 760 q 560 629 518 675 l 843 322 "},"Ù":{"ha":1100,"x_min":83,"x_max":1017,"o":"m 594 1117 q 625 1131 617 1113 q 619 1161 633 1150 l 417 1328 q 356 1353 389 1351 q 295 1338 322 1354 q 258 1288 268 1321 q 263 1212 246 1247 q 340 1165 281 1176 l 594 1117 m 843 322 q 873 281 860 306 q 887 226 886 256 q 867 167 888 196 q 779 119 836 124 q 632 161 722 115 l 238 364 q 163 449 176 396 q 193 565 150 501 l 364 818 q 394 900 389 856 q 385 985 400 944 q 336 1051 371 1025 q 246 1076 301 1076 q 125 1026 167 1076 q 83 860 83 975 l 83 410 q 143 181 83 278 q 309 32 203 85 q 556 -21 415 -21 q 899 75 782 -21 q 1017 372 1017 171 l 1017 893 q 985 1030 1017 983 q 878 1076 953 1076 q 785 1043 818 1076 q 751 960 751 1010 q 774 888 751 921 q 843 801 797 854 l 924 708 q 941 667 944 685 q 926 638 938 649 q 901 626 918 629 q 861 640 883 622 l 700 771 q 605 813 649 813 q 536 787 561 814 q 515 717 511 760 q 560 629 518 675 l 843 322 "},"Ű":{"ha":1100,"x_min":83,"x_max":1017,"o":"m 914 1178 q 984 1234 971 1197 q 979 1310 997 1271 q 936 1355 965 1342 q 874 1362 907 1368 q 817 1329 842 1356 l 638 1139 q 635 1108 625 1125 q 668 1097 646 1092 l 914 1178 m 596 1201 q 653 1254 644 1221 q 644 1319 663 1288 q 604 1356 631 1346 q 550 1358 578 1365 q 503 1325 522 1350 l 360 1147 q 360 1121 350 1135 q 389 1114 371 1107 l 596 1201 m 843 322 q 873 281 860 306 q 887 226 886 256 q 867 167 888 196 q 779 119 836 124 q 632 161 722 115 l 238 364 q 163 449 176 396 q 193 565 150 501 l 364 818 q 394 900 389 856 q 385 985 400 944 q 336 1051 371 1025 q 246 1076 301 1076 q 125 1026 167 1076 q 83 860 83 975 l 83 410 q 143 181 83 278 q 309 32 203 85 q 556 -21 415 -21 q 899 75 782 -21 q 1017 372 1017 171 l 1017 893 q 985 1030 1017 983 q 878 1076 953 1076 q 785 1043 818 1076 q 751 960 751 1010 q 774 888 751 921 q 843 801 797 854 l 924 708 q 941 667 944 685 q 926 638 938 649 q 901 626 918 629 q 861 640 883 622 l 700 771 q 605 813 649 813 q 536 787 561 814 q 515 717 511 760 q 560 629 518 675 l 843 322 "},"Ū":{"ha":1100,"x_min":83,"x_max":1017,"o":"m 743 1156 q 829 1184 807 1154 q 840 1256 851 1214 q 799 1307 831 1294 q 689 1308 767 1319 l 372 1263 q 308 1210 308 1254 q 324 1176 308 1186 q 369 1165 339 1167 l 743 1156 m 843 322 q 873 281 860 306 q 887 226 886 256 q 867 167 888 196 q 779 119 836 124 q 632 161 722 115 l 238 364 q 163 449 176 396 q 193 565 150 501 l 364 818 q 394 900 389 856 q 385 985 400 944 q 336 1051 371 1025 q 246 1076 301 1076 q 125 1026 167 1076 q 83 860 83 975 l 83 410 q 143 181 83 278 q 309 32 203 85 q 556 -21 415 -21 q 899 75 782 -21 q 1017 372 1017 171 l 1017 893 q 985 1030 1017 983 q 878 1076 953 1076 q 785 1043 818 1076 q 751 960 751 1010 q 774 888 751 921 q 843 801 797 854 l 924 708 q 941 667 944 685 q 926 638 938 649 q 901 626 918 629 q 861 640 883 622 l 700 771 q 605 813 649 813 q 536 787 561 814 q 515 717 511 760 q 560 629 518 675 l 843 322 "},"Ų":{"ha":1100,"x_min":83,"x_max":1017,"o":"m 878 1076 q 785 1043 818 1076 q 751 960 751 1010 q 774 888 751 921 q 843 801 797 854 l 924 708 q 941 667 944 685 q 926 638 938 649 q 901 626 918 629 q 861 640 883 622 l 700 771 q 605 813 649 813 q 536 787 561 814 q 515 717 511 760 q 560 629 518 675 l 843 322 q 873 281 860 306 q 887 226 886 256 q 867 167 888 196 q 779 119 836 124 q 632 161 722 115 l 238 364 q 163 449 176 396 q 193 565 150 501 l 364 818 q 394 900 389 856 q 385 985 400 944 q 336 1051 371 1025 q 246 1076 301 1076 q 125 1026 167 1076 q 83 860 83 975 l 83 410 q 142 183 83 279 q 306 34 201 88 q 549 -21 411 -19 l 540 -33 q 515 -122 511 -78 q 549 -201 519 -165 q 627 -257 579 -236 q 735 -278 675 -278 q 844 -250 800 -278 q 889 -172 889 -222 q 869 -123 889 -137 q 818 -108 849 -108 q 757 -115 788 -107 l 656 -142 q 608 -138 625 -150 q 592 -106 592 -126 q 601 -74 592 -86 q 632 -51 610 -61 l 744 0 q 948 126 879 35 q 1017 372 1017 218 l 1017 893 q 985 1030 1017 983 q 878 1076 953 1076 "},"Ů":{"ha":1100,"x_min":83,"x_max":1017,"o":"m 504 1135 q 599 1126 551 1126 q 683 1146 647 1126 q 728 1217 719 1165 q 707 1298 738 1269 q 626 1335 676 1326 q 527 1343 579 1343 q 436 1324 475 1343 q 388 1257 397 1306 q 389 1206 383 1231 q 422 1164 394 1182 q 504 1135 449 1146 m 585 1182 q 524 1179 554 1174 q 489 1225 494 1185 q 496 1267 486 1253 q 521 1288 506 1282 q 585 1291 551 1297 q 625 1246 619 1285 q 621 1208 628 1225 q 585 1182 614 1190 m 843 322 q 873 281 860 306 q 887 226 886 256 q 867 167 888 196 q 779 119 836 124 q 632 161 722 115 l 238 364 q 163 449 176 396 q 193 565 150 501 l 364 818 q 394 900 389 856 q 385 985 400 944 q 336 1051 371 1025 q 246 1076 301 1076 q 125 1026 167 1076 q 83 860 83 975 l 83 410 q 143 181 83 278 q 309 32 203 85 q 556 -21 415 -21 q 899 75 782 -21 q 1017 372 1017 171 l 1017 893 q 985 1030 1017 983 q 878 1076 953 1076 q 785 1043 818 1076 q 751 960 751 1010 q 774 888 751 921 q 843 801 797 854 l 924 708 q 941 667 944 685 q 926 638 938 649 q 901 626 918 629 q 861 640 883 622 l 700 771 q 605 813 649 813 q 536 787 561 814 q 515 717 511 760 q 560 629 518 675 l 843 322 "},"V":{"ha":1058,"x_min":42,"x_max":1072,"o":"m 521 629 q 562 713 544 682 q 579 771 579 744 q 559 820 579 799 q 504 842 539 842 q 447 822 475 842 q 381 771 418 801 l 285 694 q 240 663 258 674 q 203 672 222 653 q 197 713 188 688 q 229 768 206 739 q 253 797 236 776 q 288 844 269 818 q 320 898 307 871 q 333 947 333 925 q 297 1042 335 1007 q 203 1076 260 1076 q 124 1056 161 1076 q 65 1000 88 1036 q 42 915 42 964 q 49 861 42 892 q 64 800 56 831 l 243 111 q 308 9 263 39 q 403 -21 353 -21 q 467 -12 439 -21 q 526 26 496 -3 q 590 111 556 54 l 993 754 q 1046 838 1019 794 q 1072 924 1072 881 q 1030 1038 1072 1000 q 936 1076 988 1076 q 839 1047 881 1076 q 775 951 797 1017 l 535 231 q 510 161 525 200 q 470 94 494 122 q 408 65 446 65 q 351 88 372 65 q 329 154 329 111 q 343 215 329 181 q 371 281 357 249 l 521 629 "},"W":{"ha":1592,"x_min":42,"x_max":1522,"o":"m 1421 551 q 1444 490 1444 519 q 1437 451 1444 472 q 1415 407 1429 431 l 1361 307 q 1306 238 1332 253 q 1251 222 1281 222 q 1184 254 1208 222 q 1147 339 1160 286 l 1047 779 q 1006 871 1032 846 q 939 896 979 896 q 851 864 892 896 q 778 782 811 832 l 461 308 q 406 238 428 258 q 357 217 385 217 q 301 237 319 217 q 282 288 282 257 q 296 342 282 315 q 335 407 310 368 l 536 726 q 599 840 575 788 q 622 938 622 893 q 571 1038 622 1000 q 401 1076 519 1076 q 251 1033 318 1076 q 138 921 185 990 q 66 772 90 851 q 42 621 42 693 q 61 578 42 594 q 99 563 81 563 q 151 583 132 563 q 176 647 171 603 l 210 900 q 236 957 215 940 q 281 974 257 974 q 319 951 307 974 q 325 889 332 929 l 201 269 q 196 228 197 247 q 194 189 194 208 q 251 33 194 86 q 392 -21 307 -21 q 481 3 435 -21 q 563 74 528 26 l 950 617 q 974 643 961 632 q 1000 654 986 654 q 1023 644 1017 654 q 1029 624 1029 635 q 1028 607 1029 617 q 1022 589 1026 597 l 918 368 q 866 83 833 188 q 1054 -21 899 -21 q 1218 22 1144 -21 q 1348 138 1292 65 q 1443 299 1404 210 q 1502 480 1482 388 q 1522 653 1522 572 q 1501 905 1522 813 q 1442 1037 1481 997 q 1349 1076 1403 1076 q 1220 1035 1268 1076 q 1172 936 1172 994 q 1186 883 1172 910 q 1222 825 1200 856 l 1421 551 "},"Ẃ":{"ha":1592,"x_min":42,"x_max":1522,"o":"m 1090 1165 q 1167 1212 1150 1176 q 1172 1288 1185 1247 q 1135 1338 1163 1321 q 1075 1353 1108 1354 q 1014 1328 1042 1351 l 811 1161 q 806 1131 797 1150 q 836 1117 814 1113 l 1090 1165 m 1421 551 q 1444 490 1444 519 q 1437 451 1444 472 q 1415 407 1429 431 l 1361 307 q 1306 238 1332 253 q 1251 222 1281 222 q 1184 254 1208 222 q 1147 339 1160 286 l 1047 779 q 1006 871 1032 846 q 939 896 979 896 q 851 864 892 896 q 778 782 811 832 l 461 308 q 406 238 428 258 q 357 217 385 217 q 301 237 319 217 q 282 288 282 257 q 296 342 282 315 q 335 407 310 368 l 536 726 q 599 840 575 788 q 622 938 622 893 q 571 1038 622 1000 q 401 1076 519 1076 q 251 1033 318 1076 q 138 921 185 990 q 66 772 90 851 q 42 621 42 693 q 61 578 42 594 q 99 563 81 563 q 151 583 132 563 q 176 647 171 603 l 210 900 q 236 957 215 940 q 281 974 257 974 q 319 951 307 974 q 325 889 332 929 l 201 269 q 196 228 197 247 q 194 189 194 208 q 251 33 194 86 q 392 -21 307 -21 q 481 3 435 -21 q 563 74 528 26 l 950 617 q 974 643 961 632 q 1000 654 986 654 q 1023 644 1017 654 q 1029 624 1029 635 q 1028 607 1029 617 q 1022 589 1026 597 l 918 368 q 866 83 833 188 q 1054 -21 899 -21 q 1218 22 1144 -21 q 1348 138 1292 65 q 1443 299 1404 210 q 1502 480 1482 388 q 1522 653 1522 572 q 1501 905 1522 813 q 1442 1037 1481 997 q 1349 1076 1403 1076 q 1220 1035 1268 1076 q 1172 936 1172 994 q 1186 883 1172 910 q 1222 825 1200 856 l 1421 551 "},"Ŵ":{"ha":1592,"x_min":42,"x_max":1522,"o":"m 892 1314 q 928 1292 911 1314 l 1006 1179 q 1045 1138 1028 1149 q 1081 1128 1063 1128 q 1145 1156 1121 1128 q 1169 1238 1169 1185 q 1149 1307 1169 1278 q 1081 1340 1129 1336 q 986 1347 1033 1344 q 892 1349 939 1350 q 797 1347 844 1350 q 703 1340 750 1344 q 634 1307 654 1336 q 614 1238 614 1278 q 638 1156 614 1185 q 703 1128 663 1128 q 739 1138 722 1128 q 778 1179 756 1149 l 856 1292 q 892 1314 872 1314 m 1421 551 q 1444 490 1444 519 q 1437 451 1444 472 q 1415 407 1429 431 l 1361 307 q 1306 238 1332 253 q 1251 222 1281 222 q 1184 254 1208 222 q 1147 339 1160 286 l 1047 779 q 1006 871 1032 846 q 939 896 979 896 q 851 864 892 896 q 778 782 811 832 l 461 308 q 406 238 428 258 q 357 217 385 217 q 301 237 319 217 q 282 288 282 257 q 296 342 282 315 q 335 407 310 368 l 536 726 q 599 840 575 788 q 622 938 622 893 q 571 1038 622 1000 q 401 1076 519 1076 q 251 1033 318 1076 q 138 921 185 990 q 66 772 90 851 q 42 621 42 693 q 61 578 42 594 q 99 563 81 563 q 151 583 132 563 q 176 647 171 603 l 210 900 q 236 957 215 940 q 281 974 257 974 q 319 951 307 974 q 325 889 332 929 l 201 269 q 196 228 197 247 q 194 189 194 208 q 251 33 194 86 q 392 -21 307 -21 q 481 3 435 -21 q 563 74 528 26 l 950 617 q 974 643 961 632 q 1000 654 986 654 q 1023 644 1017 654 q 1029 624 1029 635 q 1028 607 1029 617 q 1022 589 1026 597 l 918 368 q 866 83 833 188 q 1054 -21 899 -21 q 1218 22 1144 -21 q 1348 138 1292 65 q 1443 299 1404 210 q 1502 480 1482 388 q 1522 653 1522 572 q 1501 905 1522 813 q 1442 1037 1481 997 q 1349 1076 1403 1076 q 1220 1035 1268 1076 q 1172 936 1172 994 q 1186 883 1172 910 q 1222 825 1200 856 l 1421 551 "},"Ẅ":{"ha":1592,"x_min":42,"x_max":1522,"o":"m 739 1160 q 807 1179 775 1165 q 856 1219 839 1193 q 863 1288 874 1246 q 826 1346 853 1332 q 767 1354 799 1360 q 697 1333 732 1349 q 641 1291 661 1318 q 631 1224 621 1264 q 661 1171 639 1192 q 739 1160 683 1150 m 990 1183 q 1057 1163 1022 1169 q 1121 1170 1092 1157 q 1164 1224 1150 1183 q 1164 1292 1179 1265 q 1119 1332 1149 1318 q 1049 1353 1088 1347 q 978 1348 1010 1360 q 933 1297 947 1336 q 931 1236 924 1265 q 990 1183 939 1207 m 1421 551 q 1444 490 1444 519 q 1437 451 1444 472 q 1415 407 1429 431 l 1361 307 q 1306 238 1332 253 q 1251 222 1281 222 q 1184 254 1208 222 q 1147 339 1160 286 l 1047 779 q 1006 871 1032 846 q 939 896 979 896 q 851 864 892 896 q 778 782 811 832 l 461 308 q 406 238 428 258 q 357 217 385 217 q 301 237 319 217 q 282 288 282 257 q 296 342 282 315 q 335 407 310 368 l 536 726 q 599 840 575 788 q 622 938 622 893 q 571 1038 622 1000 q 401 1076 519 1076 q 251 1033 318 1076 q 138 921 185 990 q 66 772 90 851 q 42 621 42 693 q 61 578 42 594 q 99 563 81 563 q 151 583 132 563 q 176 647 171 603 l 210 900 q 236 957 215 940 q 281 974 257 974 q 319 951 307 974 q 325 889 332 929 l 201 269 q 196 228 197 247 q 194 189 194 208 q 251 33 194 86 q 392 -21 307 -21 q 481 3 435 -21 q 563 74 528 26 l 950 617 q 974 643 961 632 q 1000 654 986 654 q 1023 644 1017 654 q 1029 624 1029 635 q 1028 607 1029 617 q 1022 589 1026 597 l 918 368 q 866 83 833 188 q 1054 -21 899 -21 q 1218 22 1144 -21 q 1348 138 1292 65 q 1443 299 1404 210 q 1502 480 1482 388 q 1522 653 1522 572 q 1501 905 1522 813 q 1442 1037 1481 997 q 1349 1076 1403 1076 q 1220 1035 1268 1076 q 1172 936 1172 994 q 1186 883 1172 910 q 1222 825 1200 856 l 1421 551 "},"Ẁ":{"ha":1592,"x_min":42,"x_max":1522,"o":"m 932 1117 q 963 1131 954 1113 q 957 1161 971 1150 l 754 1328 q 693 1353 726 1351 q 633 1338 660 1354 q 596 1288 606 1321 q 601 1212 583 1247 q 678 1165 618 1176 l 932 1117 m 1421 551 q 1444 490 1444 519 q 1437 451 1444 472 q 1415 407 1429 431 l 1361 307 q 1306 238 1332 253 q 1251 222 1281 222 q 1184 254 1208 222 q 1147 339 1160 286 l 1047 779 q 1006 871 1032 846 q 939 896 979 896 q 851 864 892 896 q 778 782 811 832 l 461 308 q 406 238 428 258 q 357 217 385 217 q 301 237 319 217 q 282 288 282 257 q 296 342 282 315 q 335 407 310 368 l 536 726 q 599 840 575 788 q 622 938 622 893 q 571 1038 622 1000 q 401 1076 519 1076 q 251 1033 318 1076 q 138 921 185 990 q 66 772 90 851 q 42 621 42 693 q 61 578 42 594 q 99 563 81 563 q 151 583 132 563 q 176 647 171 603 l 210 900 q 236 957 215 940 q 281 974 257 974 q 319 951 307 974 q 325 889 332 929 l 201 269 q 196 228 197 247 q 194 189 194 208 q 251 33 194 86 q 392 -21 307 -21 q 481 3 435 -21 q 563 74 528 26 l 950 617 q 974 643 961 632 q 1000 654 986 654 q 1023 644 1017 654 q 1029 624 1029 635 q 1028 607 1029 617 q 1022 589 1026 597 l 918 368 q 866 83 833 188 q 1054 -21 899 -21 q 1218 22 1144 -21 q 1348 138 1292 65 q 1443 299 1404 210 q 1502 480 1482 388 q 1522 653 1522 572 q 1501 905 1522 813 q 1442 1037 1481 997 q 1349 1076 1403 1076 q 1220 1035 1268 1076 q 1172 936 1172 994 q 1186 883 1172 910 q 1222 825 1200 856 l 1421 551 "},"X":{"ha":1108,"x_min":35,"x_max":1094,"o":"m 756 571 q 733 540 754 544 q 700 550 711 535 l 442 946 q 361 1042 400 1010 q 257 1074 322 1074 q 146 1040 190 1074 q 76 954 101 1007 q 43 841 51 901 q 40 725 35 781 q 61 631 46 669 q 96 594 72 603 q 135 592 119 586 q 176 633 167 607 q 171 707 186 660 l 113 879 q 115 920 106 906 q 142 933 124 935 q 178 904 160 931 l 389 604 q 422 516 429 549 q 369 443 414 483 l 146 250 q 85 167 103 213 q 75 78 67 121 q 118 9 83 36 q 215 -18 153 -18 q 331 24 293 -18 q 382 139 368 67 l 438 431 q 463 462 443 457 q 493 451 483 467 l 617 246 q 736 76 683 135 q 838 -3 789 18 q 943 -24 888 -24 q 1009 -10 974 -24 q 1069 34 1044 3 q 1094 118 1094 65 q 1056 228 1094 183 q 928 274 1017 272 l 708 275 q 661 292 672 275 q 649 326 650 308 q 656 358 649 342 q 683 396 664 374 l 988 742 q 1049 828 1031 792 q 1073 894 1068 864 q 1078 953 1078 924 q 1039 1036 1078 1000 q 931 1072 1000 1072 q 815 1033 858 1072 q 768 890 772 993 l 756 571 "},"Y":{"ha":1071,"x_min":25,"x_max":1067,"o":"m 768 565 q 760 525 769 543 q 732 508 750 507 q 688 547 714 510 l 408 950 q 326 1046 363 1015 q 231 1076 290 1076 q 129 1044 169 1076 q 65 962 89 1013 q 33 852 42 911 q 30 738 25 793 q 50 643 35 682 q 84 601 61 613 q 121 594 107 589 q 166 636 154 606 q 158 718 178 667 l 96 881 q 97 924 86 907 q 126 943 107 942 q 165 918 146 944 l 593 346 q 606 316 604 332 q 592 288 608 300 q 528 276 575 276 l 397 276 q 293 247 331 276 q 245 172 256 217 q 250 83 235 128 q 304 9 265 39 q 404 -21 343 -21 q 497 10 454 -21 q 576 86 540 40 q 640 178 613 132 l 981 736 q 1037 835 1010 783 q 1065 929 1064 886 q 1035 1022 1067 986 q 958 1069 1004 1057 q 864 1072 911 1082 q 786 1029 817 1063 q 757 938 756 996 l 768 565 "},"Ý":{"ha":1071,"x_min":25,"x_max":1067,"o":"m 747 1165 q 824 1212 807 1176 q 829 1288 842 1247 q 792 1338 819 1321 q 732 1353 765 1354 q 671 1328 699 1351 l 468 1161 q 463 1131 454 1150 q 493 1117 471 1113 l 747 1165 m 768 565 q 760 525 769 543 q 732 508 750 507 q 688 547 714 510 l 408 950 q 326 1046 363 1015 q 231 1076 290 1076 q 129 1044 169 1076 q 65 962 89 1013 q 33 852 42 911 q 30 738 25 793 q 50 643 35 682 q 84 601 61 613 q 121 594 107 589 q 166 636 154 606 q 158 718 178 667 l 96 881 q 97 924 86 907 q 126 943 107 942 q 165 918 146 944 l 593 346 q 606 316 604 332 q 592 288 608 300 q 528 276 575 276 l 397 276 q 293 247 331 276 q 245 172 256 217 q 250 83 235 128 q 304 9 265 39 q 404 -21 343 -21 q 497 10 454 -21 q 576 86 540 40 q 640 178 613 132 l 981 736 q 1037 835 1010 783 q 1065 929 1064 886 q 1035 1022 1067 986 q 958 1069 1004 1057 q 864 1072 911 1082 q 786 1029 817 1063 q 757 938 756 996 l 768 565 "},"Ŷ":{"ha":1071,"x_min":25,"x_max":1067,"o":"m 549 1314 q 585 1292 568 1314 l 663 1179 q 702 1138 685 1149 q 738 1128 719 1128 q 802 1156 778 1128 q 826 1238 826 1185 q 806 1307 826 1278 q 738 1340 786 1336 q 643 1347 690 1344 q 549 1349 596 1350 q 454 1347 501 1350 q 360 1340 407 1344 q 291 1307 311 1336 q 271 1238 271 1278 q 295 1156 271 1185 q 360 1128 319 1128 q 396 1138 379 1128 q 435 1179 413 1149 l 513 1292 q 549 1314 529 1314 m 768 565 q 760 525 769 543 q 732 508 750 507 q 688 547 714 510 l 408 950 q 326 1046 363 1015 q 231 1076 290 1076 q 129 1044 169 1076 q 65 962 89 1013 q 33 852 42 911 q 30 738 25 793 q 50 643 35 682 q 84 601 61 613 q 121 594 107 589 q 166 636 154 606 q 158 718 178 667 l 96 881 q 97 924 86 907 q 126 943 107 942 q 165 918 146 944 l 593 346 q 606 316 604 332 q 592 288 608 300 q 528 276 575 276 l 397 276 q 293 247 331 276 q 245 172 256 217 q 250 83 235 128 q 304 9 265 39 q 404 -21 343 -21 q 497 10 454 -21 q 576 86 540 40 q 640 178 613 132 l 981 736 q 1037 835 1010 783 q 1065 929 1064 886 q 1035 1022 1067 986 q 958 1069 1004 1057 q 864 1072 911 1082 q 786 1029 817 1063 q 757 938 756 996 l 768 565 "},"ÿ":{"ha":1071,"x_min":25,"x_max":1067,"o":"m 396 1160 q 464 1179 432 1165 q 513 1219 496 1193 q 519 1288 531 1246 q 483 1346 510 1332 q 424 1354 456 1360 q 353 1333 389 1349 q 297 1291 317 1318 q 288 1224 278 1264 q 318 1171 296 1192 q 396 1160 340 1150 m 647 1183 q 714 1163 679 1169 q 778 1170 749 1157 q 821 1224 807 1183 q 821 1292 836 1265 q 776 1332 806 1318 q 706 1353 744 1347 q 635 1348 667 1360 q 590 1297 604 1336 q 588 1236 581 1265 q 647 1183 596 1207 m 768 565 q 760 525 769 543 q 732 508 750 507 q 688 547 714 510 l 408 950 q 326 1046 363 1015 q 231 1076 290 1076 q 129 1044 169 1076 q 65 962 89 1013 q 33 852 42 911 q 30 738 25 793 q 50 643 35 682 q 84 601 61 613 q 121 594 107 589 q 166 636 154 606 q 158 718 178 667 l 96 881 q 97 924 86 907 q 126 943 107 942 q 165 918 146 944 l 593 346 q 606 316 604 332 q 592 288 608 300 q 528 276 575 276 l 397 276 q 293 247 331 276 q 245 172 256 217 q 250 83 235 128 q 304 9 265 39 q 404 -21 343 -21 q 497 10 454 -21 q 576 86 540 40 q 640 178 613 132 l 981 736 q 1037 835 1010 783 q 1065 929 1064 886 q 1035 1022 1067 986 q 958 1069 1004 1057 q 864 1072 911 1082 q 786 1029 817 1063 q 757 938 756 996 l 768 565 "},"Ỳ":{"ha":1071,"x_min":25,"x_max":1067,"o":"m 589 1117 q 619 1131 611 1113 q 614 1161 628 1150 l 411 1328 q 350 1353 383 1351 q 290 1338 317 1354 q 253 1288 263 1321 q 258 1212 240 1247 q 335 1165 275 1176 l 589 1117 m 768 565 q 760 525 769 543 q 732 508 750 507 q 688 547 714 510 l 408 950 q 326 1046 363 1015 q 231 1076 290 1076 q 129 1044 169 1076 q 65 962 89 1013 q 33 852 42 911 q 30 738 25 793 q 50 643 35 682 q 84 601 61 613 q 121 594 107 589 q 166 636 154 606 q 158 718 178 667 l 96 881 q 97 924 86 907 q 126 943 107 942 q 165 918 146 944 l 593 346 q 606 316 604 332 q 592 288 608 300 q 528 276 575 276 l 397 276 q 293 247 331 276 q 245 172 256 217 q 250 83 235 128 q 304 9 265 39 q 404 -21 343 -21 q 497 10 454 -21 q 576 86 540 40 q 640 178 613 132 l 981 736 q 1037 835 1010 783 q 1065 929 1064 886 q 1035 1022 1067 986 q 958 1069 1004 1057 q 864 1072 911 1082 q 786 1029 817 1063 q 757 938 756 996 l 768 565 "},"Z":{"ha":1150,"x_min":65,"x_max":1081,"o":"m 508 406 q 474 432 482 414 q 474 469 465 450 q 508 499 483 489 l 840 639 q 1021 756 961 690 q 1081 886 1081 822 q 1013 1006 1081 956 q 813 1056 944 1056 l 288 1056 q 174 1039 225 1056 q 94 985 122 1022 q 69 886 65 947 q 115 761 75 801 q 214 721 154 721 q 394 782 293 721 l 753 996 q 801 1001 781 1013 q 828 967 822 990 q 813 922 833 943 l 139 251 q 90 183 104 217 q 75 118 75 150 q 122 20 75 60 q 244 -19 169 -19 q 328 11 294 -19 q 377 90 361 42 q 393 190 393 139 l 393 285 q 404 351 393 333 q 433 369 415 369 q 460 360 446 369 q 483 342 475 350 l 753 61 q 846 -3 796 17 q 932 -22 896 -22 q 1010 1 979 -22 q 1057 60 1042 25 q 1072 132 1072 96 q 1048 207 1072 168 q 961 268 1024 246 l 508 406 "},"Ź":{"ha":1150,"x_min":65,"x_max":1081,"o":"m 772 1165 q 849 1212 832 1176 q 854 1288 867 1247 q 817 1338 844 1321 q 757 1353 790 1354 q 696 1328 724 1351 l 493 1161 q 488 1131 479 1150 q 518 1117 496 1113 l 772 1165 m 508 406 q 474 432 482 414 q 474 469 465 450 q 508 499 483 489 l 840 639 q 1021 756 961 690 q 1081 886 1081 822 q 1013 1006 1081 956 q 813 1056 944 1056 l 288 1056 q 174 1039 225 1056 q 94 985 122 1022 q 69 886 65 947 q 115 761 75 801 q 214 721 154 721 q 394 782 293 721 l 753 996 q 801 1001 781 1013 q 828 967 822 990 q 813 922 833 943 l 139 251 q 90 183 104 217 q 75 118 75 150 q 122 20 75 60 q 244 -19 169 -19 q 328 11 294 -19 q 377 90 361 42 q 393 190 393 139 l 393 285 q 404 351 393 333 q 433 369 415 369 q 460 360 446 369 q 483 342 475 350 l 753 61 q 846 -3 796 17 q 932 -22 896 -22 q 1010 1 979 -22 q 1057 60 1042 25 q 1072 132 1072 96 q 1048 207 1072 168 q 961 268 1024 246 l 508 406 "},"Ž":{"ha":1150,"x_min":65,"x_max":1081,"o":"m 567 1163 q 531 1185 547 1163 l 453 1297 q 414 1339 431 1329 q 378 1349 397 1349 q 313 1320 338 1349 q 289 1239 289 1292 q 309 1170 289 1200 q 378 1136 329 1140 q 472 1129 425 1132 q 567 1128 519 1126 q 661 1129 614 1126 q 756 1136 708 1132 q 824 1170 804 1140 q 844 1239 844 1200 q 820 1320 844 1292 q 756 1349 796 1349 q 720 1339 738 1349 q 681 1297 703 1329 l 603 1185 q 567 1163 586 1163 m 508 406 q 474 432 482 414 q 474 469 465 450 q 508 499 483 489 l 840 639 q 1021 756 961 690 q 1081 886 1081 822 q 1013 1006 1081 956 q 813 1056 944 1056 l 288 1056 q 174 1039 225 1056 q 94 985 122 1022 q 69 886 65 947 q 115 761 75 801 q 214 721 154 721 q 394 782 293 721 l 753 996 q 801 1001 781 1013 q 828 967 822 990 q 813 922 833 943 l 139 251 q 90 183 104 217 q 75 118 75 150 q 122 20 75 60 q 244 -19 169 -19 q 328 11 294 -19 q 377 90 361 42 q 393 190 393 139 l 393 285 q 404 351 393 333 q 433 369 415 369 q 460 360 446 369 q 483 342 475 350 l 753 61 q 846 -3 796 17 q 932 -22 896 -22 q 1010 1 979 -22 q 1057 60 1042 25 q 1072 132 1072 96 q 1048 207 1072 168 q 961 268 1024 246 l 508 406 "},"Ż":{"ha":1150,"x_min":65,"x_max":1081,"o":"m 521 1132 q 605 1122 563 1122 q 678 1142 647 1121 q 717 1214 710 1163 q 703 1294 726 1267 q 643 1332 679 1322 q 556 1342 601 1343 q 475 1322 510 1342 q 432 1254 440 1303 q 442 1181 426 1214 q 521 1132 457 1147 m 508 406 q 474 432 482 414 q 474 469 465 450 q 508 499 483 489 l 840 639 q 1021 756 961 690 q 1081 886 1081 822 q 1013 1006 1081 956 q 813 1056 944 1056 l 288 1056 q 174 1039 225 1056 q 94 985 122 1022 q 69 886 65 947 q 115 761 75 801 q 214 721 154 721 q 394 782 293 721 l 753 996 q 801 1001 781 1013 q 828 967 822 990 q 813 922 833 943 l 139 251 q 90 183 104 217 q 75 118 75 150 q 122 20 75 60 q 244 -19 169 -19 q 328 11 294 -19 q 377 90 361 42 q 393 190 393 139 l 393 285 q 404 351 393 333 q 433 369 415 369 q 460 360 446 369 q 483 342 475 350 l 753 61 q 846 -3 796 17 q 932 -22 896 -22 q 1010 1 979 -22 q 1057 60 1042 25 q 1072 132 1072 96 q 1048 207 1072 168 q 961 268 1024 246 l 508 406 "},"ß":{"ha":1197,"x_min":68,"x_max":1142,"o":"m 907 501 q 939 681 808 596 l 988 713 q 1106 813 1069 768 q 1142 908 1142 858 q 1077 1019 1142 983 q 878 1056 1013 1056 l 503 1056 q 379 1037 426 1056 q 303 970 332 1018 q 253 833 275 922 l 94 211 q 104 42 68 104 q 229 -19 140 -19 q 350 32 307 -19 q 386 167 393 83 l 335 774 q 369 894 329 856 q 514 907 408 933 l 829 831 q 901 800 874 821 q 925 756 929 779 q 838 711 917 700 q 628 712 697 731 q 543 628 560 693 q 565 525 529 574 q 699 418 601 476 l 988 251 q 1036 201 1025 231 q 1038 147 1047 172 q 1001 113 1028 122 q 938 122 975 103 l 690 253 q 591 274 640 281 q 508 236 542 268 q 469 151 474 204 q 535 27 464 75 q 728 -21 606 -21 q 941 13 849 -21 q 1085 100 1033 46 q 1138 218 1138 154 q 1074 343 1138 282 l 907 501 "},"º":{"ha":722,"x_min":89,"x_max":633,"o":"m 369 1076 q 164 1012 239 1076 q 89 821 89 947 q 164 631 89 694 q 369 568 239 568 q 633 821 633 568 q 369 1076 633 1076 m 394 692 q 338 676 369 665 q 294 718 306 686 l 243 875 q 256 951 225 931 q 332 951 288 971 l 465 892 q 507 849 500 876 q 489 794 514 822 l 394 692 m 511 296 q 597 331 575 294 q 608 410 619 368 q 565 467 599 449 q 457 463 531 486 l 140 361 q 108 328 104 350 q 138 306 111 307 l 511 296 "},"А":{"ha":1111,"x_min":42,"x_max":1063,"o":"m 264 315 q 152 297 203 314 q 72 246 101 281 q 42 156 42 211 q 67 51 42 90 q 133 -4 93 13 q 213 -21 172 -21 q 322 7 269 -21 q 417 72 374 35 q 493 136 461 110 l 629 253 q 692 275 665 285 q 718 208 718 265 l 718 136 q 760 26 718 72 q 886 -21 801 -21 q 999 15 958 -21 q 1051 114 1039 51 q 1047 254 1063 176 l 921 922 q 866 1035 907 993 q 763 1076 825 1076 q 681 1063 718 1076 q 603 1022 644 1050 q 501 944 563 993 l 222 722 q 146 642 175 683 q 117 557 117 601 q 160 448 117 493 q 265 403 204 403 q 324 411 292 403 q 386 443 356 419 q 439 513 417 467 l 607 857 q 637 915 618 879 q 681 981 656 950 q 736 1017 707 1011 q 805 992 781 1025 q 822 903 829 960 l 763 411 q 719 342 757 358 q 622 324 682 325 l 264 315 "},"Б":{"ha":1196,"x_min":76,"x_max":1140,"o":"m 76 396 q 110 235 76 311 q 214 102 143 160 q 399 12 285 44 q 674 -21 513 -21 q 926 24 822 -21 q 1084 149 1029 69 q 1139 332 1139 228 q 1103 466 1139 411 q 1018 561 1067 521 l 939 629 q 756 719 842 713 q 571 651 669 726 l 244 404 q 188 385 213 379 q 158 415 164 390 q 171 468 151 439 l 482 939 q 549 996 515 990 q 632 961 583 1001 l 810 818 q 930 758 871 769 q 1036 762 989 746 q 1112 813 1083 778 q 1140 894 1140 849 q 1076 1018 1140 981 q 883 1056 1011 1056 l 557 1056 q 330 1030 422 1056 q 182 935 238 1004 q 101 735 126 865 q 76 396 76 606 m 854 493 q 958 497 914 510 q 1027 452 1003 485 q 1051 375 1051 419 q 1010 269 1051 306 q 878 231 968 232 l 272 226 q 222 241 238 226 q 206 274 206 256 q 261 329 206 315 l 854 493 "},"В":{"ha":1200,"x_min":63,"x_max":1144,"o":"m 917 667 q 1022 687 972 664 q 1104 755 1072 710 q 1136 863 1136 800 q 1048 1014 1136 972 q 764 1056 960 1056 l 589 1056 q 308 993 426 1056 q 126 812 190 931 q 63 522 63 693 q 130 244 63 367 q 335 50 197 121 q 683 -21 472 -21 q 923 23 819 -21 q 1085 145 1026 67 q 1144 328 1144 224 q 1128 419 1144 372 q 1065 503 1111 465 q 926 554 1018 540 l 775 578 q 746 595 756 581 q 736 624 736 610 q 753 658 736 643 q 800 672 769 674 l 917 667 m 351 226 q 245 253 288 226 q 185 324 203 279 q 174 403 171 360 q 207 486 178 446 l 489 869 q 607 975 546 947 q 722 992 668 1003 q 807 942 775 981 q 842 867 835 908 q 827 785 849 826 q 744 707 806 743 l 324 457 q 279 369 264 421 q 309 340 286 350 q 371 336 332 329 l 872 436 q 1008 428 960 454 q 1057 339 1057 403 q 1017 265 1057 297 q 901 231 978 232 l 351 226 "},"Г":{"ha":924,"x_min":97,"x_max":903,"o":"m 97 196 q 142 24 97 69 q 267 -21 186 -21 q 369 11 325 -21 q 428 106 414 43 q 408 260 442 168 l 194 856 q 194 927 181 896 q 241 971 208 958 q 313 964 274 983 l 785 740 q 814 699 813 726 q 785 653 815 672 l 663 571 q 619 520 631 550 q 617 462 608 490 q 649 415 625 433 q 708 396 672 396 q 806 436 771 396 q 856 585 842 476 l 885 797 q 858 990 903 925 q 693 1056 814 1056 l 336 1056 q 190 1026 242 1056 q 119 941 139 997 q 99 801 99 885 l 97 196 "},"Ѓ":{"ha":924,"x_min":97,"x_max":903,"o":"m 614 1165 q 691 1212 674 1176 q 696 1288 708 1247 q 659 1338 686 1321 q 599 1353 632 1354 q 538 1328 565 1351 l 335 1161 q 329 1131 321 1150 q 360 1117 338 1113 l 614 1165 m 97 196 q 142 24 97 69 q 267 -21 186 -21 q 369 11 325 -21 q 428 106 414 43 q 408 260 442 168 l 194 856 q 194 927 181 896 q 241 971 208 958 q 313 964 274 983 l 785 740 q 814 699 813 726 q 785 653 815 672 l 663 571 q 619 520 631 550 q 617 462 608 490 q 649 415 625 433 q 708 396 672 396 q 806 436 771 396 q 856 585 842 476 l 885 797 q 858 990 903 925 q 693 1056 814 1056 l 336 1056 q 190 1026 242 1056 q 119 941 139 997 q 99 801 99 885 l 97 196 "},"Ґ":{"ha":807,"x_min":90,"x_max":786,"o":"m 90 196 q 136 24 90 69 q 265 -21 182 -21 q 365 13 322 -21 q 420 110 407 47 q 401 260 433 172 l 165 906 q 164 964 153 939 q 199 1001 175 989 q 249 1008 222 1014 q 299 974 276 1003 l 467 753 q 568 676 511 694 q 676 676 625 658 q 756 742 726 694 q 778 860 786 789 l 746 1111 q 689 1280 731 1233 q 571 1326 647 1326 q 492 1302 521 1326 q 458 1242 464 1278 q 469 1174 451 1207 q 528 1124 486 1140 l 667 1067 q 701 1037 693 1057 q 701 997 708 1017 q 675 967 693 978 q 631 967 657 957 l 390 1053 q 240 1074 307 1083 q 132 1017 172 1065 q 92 883 92 969 l 90 196 "},"Д":{"ha":1467,"x_min":10,"x_max":1425,"o":"m 39 -65 q 88 -233 47 -187 q 208 -278 129 -278 q 290 -253 260 -278 q 327 -190 319 -228 q 317 -116 335 -153 q 257 -57 300 -79 l 121 15 q 94 47 99 28 q 99 85 89 67 q 128 110 108 103 q 172 104 147 117 l 281 46 q 373 13 318 25 q 485 0 428 0 l 1006 0 q 1089 10 1054 0 q 1149 33 1124 19 l 1285 108 q 1330 115 1310 122 q 1360 90 1350 108 q 1367 53 1369 72 q 1343 21 1364 33 l 1222 -51 q 1163 -115 1179 -78 q 1155 -190 1147 -153 q 1191 -253 1163 -228 q 1265 -278 1219 -278 q 1383 -233 1340 -278 q 1425 -65 1425 -187 l 1425 281 q 1388 399 1425 358 q 1301 440 1350 440 q 1223 413 1258 440 q 1165 329 1188 386 l 1089 136 q 1056 99 1078 107 q 1014 100 1035 92 q 983 128 993 108 q 982 175 972 149 l 1211 754 q 1236 905 1244 836 q 1181 1015 1228 974 q 1047 1056 1133 1056 l 581 1056 q 412 991 474 1056 q 360 792 350 926 l 404 178 q 392 134 407 149 q 356 118 376 119 q 318 130 335 117 q 299 169 301 143 l 289 307 q 240 420 283 383 q 147 457 197 457 q 80 438 113 457 q 28 381 47 418 q 14 289 10 344 l 39 -65 m 740 931 q 794 986 763 971 q 856 994 825 1001 q 908 960 888 988 q 928 889 928 933 l 917 171 q 875 94 915 114 q 786 103 835 74 l 522 267 q 455 348 463 304 q 481 453 447 392 l 740 931 "},"Е":{"ha":1138,"x_min":69,"x_max":1064,"o":"m 322 144 q 234 162 263 139 q 206 214 206 185 q 232 265 206 244 q 322 293 258 285 l 819 354 q 930 406 899 364 q 961 497 961 447 q 951 552 961 524 q 911 607 942 581 q 819 653 881 633 l 278 825 q 215 861 229 840 q 201 908 201 882 q 214 943 201 924 q 250 974 226 963 q 307 972 274 985 l 875 774 q 1012 765 965 743 q 1061 849 1058 786 q 1036 944 1064 908 q 953 1007 1008 981 q 836 1042 913 1026 q 665 1067 760 1057 q 478 1075 571 1076 q 306 1059 386 1075 q 176 1003 225 1043 q 126 894 126 964 q 224 749 126 818 l 638 461 q 667 422 665 442 q 651 393 669 401 q 601 397 633 385 l 324 511 q 198 528 256 539 q 105 478 140 518 q 69 374 69 438 q 122 206 69 279 q 265 81 174 132 q 476 4 357 31 q 728 -22 594 -22 q 926 -4 853 -22 q 1030 47 999 14 q 1061 122 1061 79 q 1036 181 1061 156 q 933 199 1011 206 l 322 144 "},"Ѐ":{"ha":1138,"x_min":69,"x_max":1064,"o":"m 650 1117 q 681 1131 672 1113 q 675 1161 689 1150 l 472 1328 q 411 1353 444 1351 q 351 1338 378 1354 q 314 1288 324 1321 q 319 1212 301 1247 q 396 1165 336 1176 l 650 1117 m 322 144 q 234 162 263 139 q 206 214 206 185 q 232 265 206 244 q 322 293 258 285 l 819 354 q 930 406 899 364 q 961 497 961 447 q 951 552 961 524 q 911 607 942 581 q 819 653 881 633 l 278 825 q 215 861 229 840 q 201 908 201 882 q 214 943 201 924 q 250 974 226 963 q 307 972 274 985 l 875 774 q 1012 765 965 743 q 1061 849 1058 786 q 1036 944 1064 908 q 953 1007 1008 981 q 836 1042 913 1026 q 665 1067 760 1057 q 478 1075 571 1076 q 306 1059 386 1075 q 176 1003 225 1043 q 126 894 126 964 q 224 749 126 818 l 638 461 q 667 422 665 442 q 651 393 669 401 q 601 397 633 385 l 324 511 q 198 528 256 539 q 105 478 140 518 q 69 374 69 438 q 122 206 69 279 q 265 81 174 132 q 476 4 357 31 q 728 -22 594 -22 q 926 -4 853 -22 q 1030 47 999 14 q 1061 122 1061 79 q 1036 181 1061 156 q 933 199 1011 206 l 322 144 "},"Ё":{"ha":1138,"x_min":69,"x_max":1064,"o":"m 457 1160 q 525 1179 493 1165 q 574 1219 557 1193 q 581 1288 592 1246 q 544 1346 571 1332 q 485 1354 517 1360 q 415 1333 450 1349 q 359 1291 379 1318 q 349 1224 339 1264 q 379 1171 357 1192 q 457 1160 401 1150 m 708 1183 q 775 1163 740 1169 q 839 1170 810 1157 q 882 1224 868 1183 q 882 1292 897 1265 q 838 1332 867 1318 q 767 1353 806 1347 q 697 1348 728 1360 q 651 1297 665 1336 q 649 1236 642 1265 q 708 1183 657 1207 m 322 144 q 234 162 263 139 q 206 214 206 185 q 232 265 206 244 q 322 293 258 285 l 819 354 q 930 406 899 364 q 961 497 961 447 q 951 552 961 524 q 911 607 942 581 q 819 653 881 633 l 278 825 q 215 861 229 840 q 201 908 201 882 q 214 943 201 924 q 250 974 226 963 q 307 972 274 985 l 875 774 q 1012 765 965 743 q 1061 849 1058 786 q 1036 944 1064 908 q 953 1007 1008 981 q 836 1042 913 1026 q 665 1067 760 1057 q 478 1075 571 1076 q 306 1059 386 1075 q 176 1003 225 1043 q 126 894 126 964 q 224 749 126 818 l 638 461 q 667 422 665 442 q 651 393 669 401 q 601 397 633 385 l 324 511 q 198 528 256 539 q 105 478 140 518 q 69 374 69 438 q 122 206 69 279 q 265 81 174 132 q 476 4 357 31 q 728 -22 594 -22 q 926 -4 853 -22 q 1030 47 999 14 q 1061 122 1061 79 q 1036 181 1061 156 q 933 199 1011 206 l 322 144 "},"Ж":{"ha":1772,"x_min":49,"x_max":1743,"o":"m 49 135 q 94 23 49 67 q 213 -21 140 -21 q 305 1 263 -21 q 373 73 347 24 q 399 204 399 122 l 399 482 q 420 544 399 526 q 469 553 442 561 q 513 510 496 546 l 674 183 q 777 24 731 69 q 888 -21 824 -21 q 991 21 947 -21 q 1035 122 1035 63 q 1019 201 1035 167 q 985 265 1004 235 l 819 542 q 810 586 806 565 q 829 618 814 607 q 865 626 844 629 q 903 599 886 622 l 1240 132 q 1309 45 1279 79 q 1371 -5 1339 11 q 1447 -21 1403 -21 q 1560 19 1514 -21 q 1618 143 1606 58 l 1668 490 q 1646 576 1676 549 q 1579 601 1615 603 q 1525 574 1547 600 q 1517 500 1503 549 l 1568 332 q 1565 293 1575 313 q 1536 267 1556 274 q 1493 272 1517 260 l 1083 499 q 1037 537 1049 518 q 1028 579 1025 556 q 1072 628 1032 611 q 1167 657 1111 644 l 1535 740 q 1676 797 1629 763 q 1736 904 1724 832 q 1728 985 1743 946 q 1680 1051 1713 1025 q 1600 1076 1647 1076 q 1530 1068 1563 1076 q 1462 1037 1497 1060 q 1381 972 1426 1014 l 1085 707 q 929 676 976 608 q 925 736 911 703 q 969 804 939 769 l 992 831 q 1042 942 1038 885 q 1010 1038 1046 999 q 900 1076 975 1076 q 739 892 739 1076 l 740 460 q 719 414 740 428 q 675 408 699 400 q 643 447 651 415 l 565 774 q 448 1005 528 933 q 256 1076 368 1076 q 113 1033 163 1076 q 63 925 63 989 q 110 808 63 853 q 256 764 158 764 l 468 764 q 508 741 499 764 q 492 693 517 718 l 169 374 q 79 260 110 315 q 49 135 49 206 "},"З":{"ha":1168,"x_min":76,"x_max":1140,"o":"m 76 307 q 101 191 76 249 q 180 85 126 133 q 319 9 233 38 q 525 -19 404 -19 q 780 13 667 -19 q 974 103 893 46 q 1097 232 1054 160 q 1140 382 1140 304 q 1093 533 1140 485 q 961 588 1046 582 l 713 604 q 674 622 686 606 q 663 658 661 638 q 678 693 664 678 q 717 707 692 708 l 857 701 q 1025 745 968 697 q 1082 858 1082 793 q 1044 958 1082 908 q 915 1040 1006 1007 q 668 1074 825 1074 q 365 1036 496 1074 q 162 938 235 999 q 89 806 89 878 q 115 725 89 757 q 182 681 140 693 q 274 683 224 669 q 371 738 324 696 l 613 949 q 684 1001 654 985 q 753 1018 714 1018 q 803 994 783 1018 q 822 936 824 971 q 781 867 819 901 l 483 606 q 426 522 440 567 q 421 437 411 478 q 463 369 431 396 q 545 340 494 343 q 661 369 596 338 l 911 492 q 1001 505 964 518 q 1052 459 1038 492 q 1054 390 1067 426 q 996 331 1042 353 l 436 63 q 365 66 396 43 q 335 129 335 89 l 335 326 q 301 442 335 404 q 211 481 267 481 q 130 455 160 481 q 88 390 100 429 q 76 307 76 350 "},"И":{"ha":1211,"x_min":88,"x_max":1129,"o":"m 90 176 q 126 28 88 76 q 229 -21 165 -21 q 333 8 288 -21 q 431 125 379 38 l 901 914 q 949 958 922 950 q 999 952 976 965 q 1032 912 1022 939 q 1028 851 1042 885 l 821 335 q 783 211 796 274 q 778 96 771 149 q 818 11 785 43 q 919 -21 851 -21 q 1001 -2 961 -21 q 1069 62 1042 17 q 1099 186 1096 107 l 1119 767 q 876 1076 1129 1076 q 698 1024 767 1076 q 597 851 629 971 l 457 318 q 421 264 447 279 q 366 259 394 249 q 319 304 338 269 l 190 560 q 173 644 167 607 q 217 703 179 682 l 382 794 q 461 873 439 826 q 475 967 483 919 q 428 1045 467 1014 q 322 1076 389 1076 q 208 1046 250 1076 q 145 970 165 1015 q 118 878 125 925 q 110 800 111 832 l 90 176 "},"Й":{"ha":1211,"x_min":88,"x_max":1129,"o":"m 610 1121 q 750 1133 689 1119 q 846 1183 811 1147 q 881 1281 881 1219 q 858 1332 881 1315 q 810 1349 835 1349 q 756 1334 779 1349 q 717 1283 732 1319 q 674 1196 694 1232 q 610 1160 654 1160 q 545 1196 565 1160 q 503 1283 525 1232 q 465 1334 488 1319 q 410 1349 442 1349 q 362 1332 385 1349 q 339 1281 339 1315 q 374 1183 339 1219 q 469 1133 408 1147 q 610 1121 531 1119 m 90 176 q 126 28 88 76 q 229 -21 165 -21 q 333 8 288 -21 q 431 125 379 38 l 901 914 q 949 958 922 950 q 999 952 976 965 q 1032 912 1022 939 q 1028 851 1042 885 l 821 335 q 783 211 796 274 q 778 96 771 149 q 818 11 785 43 q 919 -21 851 -21 q 1001 -2 961 -21 q 1069 62 1042 17 q 1099 186 1096 107 l 1119 767 q 876 1076 1129 1076 q 698 1024 767 1076 q 597 851 629 971 l 457 318 q 421 264 447 279 q 366 259 394 249 q 319 304 338 269 l 190 560 q 173 644 167 607 q 217 703 179 682 l 382 794 q 461 873 439 826 q 475 967 483 919 q 428 1045 467 1014 q 322 1076 389 1076 q 208 1046 250 1076 q 145 970 165 1015 q 118 878 125 925 q 110 800 111 832 l 90 176 "},"Ѝ":{"ha":1211,"x_min":88,"x_max":1129,"o":"m 650 1117 q 681 1131 672 1113 q 675 1161 689 1150 l 472 1328 q 411 1353 444 1351 q 351 1338 378 1354 q 314 1288 324 1321 q 319 1212 301 1247 q 396 1165 336 1176 l 650 1117 m 90 176 q 126 28 88 76 q 229 -21 165 -21 q 333 8 288 -21 q 431 125 379 38 l 901 914 q 949 958 922 950 q 999 952 976 965 q 1032 912 1022 939 q 1028 851 1042 885 l 821 335 q 783 211 796 274 q 778 96 771 149 q 818 11 785 43 q 919 -21 851 -21 q 1001 -2 961 -21 q 1069 62 1042 17 q 1099 186 1096 107 l 1119 767 q 876 1076 1129 1076 q 698 1024 767 1076 q 597 851 629 971 l 457 318 q 421 264 447 279 q 366 259 394 249 q 319 304 338 269 l 190 560 q 173 644 167 607 q 217 703 179 682 l 382 794 q 461 873 439 826 q 475 967 483 919 q 428 1045 467 1014 q 322 1076 389 1076 q 208 1046 250 1076 q 145 970 165 1015 q 118 878 125 925 q 110 800 111 832 l 90 176 "},"К":{"ha":1197,"x_min":78,"x_max":1167,"o":"m 300 1076 q 224 1059 261 1076 q 163 1003 188 1042 q 132 897 138 964 l 83 171 q 115 30 78 81 q 226 -21 151 -21 q 346 18 300 -21 q 401 108 392 57 q 399 195 410 158 q 367 263 388 232 l 193 528 q 182 586 171 561 q 221 615 193 611 q 276 585 249 618 l 657 132 q 726 50 697 85 q 787 -3 756 15 q 864 -21 818 -21 q 978 17 926 -21 q 1042 143 1029 54 l 1092 490 q 1069 576 1100 549 q 1003 601 1039 603 q 949 574 971 600 q 940 500 926 549 l 992 332 q 990 294 999 313 q 963 267 981 275 q 925 268 946 258 l 442 500 q 396 540 407 517 q 389 585 385 563 q 415 617 393 606 q 467 634 436 628 q 524 646 497 640 l 958 740 q 1100 797 1053 761 q 1160 904 1147 832 q 1152 985 1167 946 q 1108 1051 1138 1025 q 1039 1076 1078 1076 q 923 1050 975 1076 q 803 972 871 1024 l 440 697 q 351 644 389 658 q 286 674 314 631 q 285 730 272 697 q 325 797 297 763 l 347 824 q 397 908 381 864 q 410 990 414 951 q 380 1052 407 1028 q 300 1076 353 1076 "},"Ќ":{"ha":1197,"x_min":78,"x_max":1167,"o":"m 806 1165 q 883 1212 865 1176 q 888 1288 900 1247 q 851 1338 878 1321 q 790 1353 824 1354 q 729 1328 757 1351 l 526 1161 q 521 1131 513 1150 q 551 1117 529 1113 l 806 1165 m 300 1076 q 224 1059 261 1076 q 163 1003 188 1042 q 132 897 138 964 l 83 171 q 115 30 78 81 q 226 -21 151 -21 q 346 18 300 -21 q 401 108 392 57 q 399 195 410 158 q 367 263 388 232 l 193 528 q 182 586 171 561 q 221 615 193 611 q 276 585 249 618 l 657 132 q 726 50 697 85 q 787 -3 756 15 q 864 -21 818 -21 q 978 17 926 -21 q 1042 143 1029 54 l 1092 490 q 1069 576 1100 549 q 1003 601 1039 603 q 949 574 971 600 q 940 500 926 549 l 992 332 q 990 294 999 313 q 963 267 981 275 q 925 268 946 258 l 442 500 q 396 540 407 517 q 389 585 385 563 q 415 617 393 606 q 467 634 436 628 q 524 646 497 640 l 958 740 q 1100 797 1053 761 q 1160 904 1147 832 q 1152 985 1167 946 q 1108 1051 1138 1025 q 1039 1076 1078 1076 q 923 1050 975 1076 q 803 972 871 1024 l 440 697 q 351 644 389 658 q 286 674 314 631 q 285 730 272 697 q 325 797 297 763 l 347 824 q 397 908 381 864 q 410 990 414 951 q 380 1052 407 1028 q 300 1076 353 1076 "},"Л":{"ha":1267,"x_min":21,"x_max":1186,"o":"m 21 289 q 54 109 21 178 q 147 10 88 40 q 285 -21 207 -21 q 474 59 417 -21 q 517 264 532 139 l 476 586 q 474 655 471 629 q 492 697 476 681 q 539 732 507 714 l 929 944 q 1014 959 978 971 q 1067 915 1050 947 q 1077 848 1083 883 q 1036 793 1071 813 l 725 618 q 686 574 696 601 q 684 520 676 547 q 715 476 692 493 q 775 460 739 458 l 1036 476 q 1079 464 1064 479 q 1094 427 1094 449 q 1069 386 1093 406 l 933 276 q 863 182 879 233 q 860 85 846 131 q 913 9 874 39 q 1013 -21 953 -21 q 1140 30 1094 -21 q 1183 196 1186 81 l 1167 801 q 1147 933 1165 876 q 1083 1023 1128 990 q 956 1056 1038 1056 l 728 1056 q 601 1030 649 1056 q 520 952 553 1004 q 454 822 488 900 l 197 217 q 160 174 183 183 q 117 172 138 164 q 88 204 96 181 q 96 263 81 228 l 181 451 q 200 538 206 506 q 175 586 194 571 q 138 601 156 601 q 101 592 121 603 q 63 549 81 581 q 33 455 44 517 q 21 293 21 393 l 21 289 "},"М":{"ha":1578,"x_min":90,"x_max":1489,"o":"m 956 410 q 953 299 967 333 q 906 264 939 264 q 866 278 886 264 q 831 332 846 293 l 606 878 q 494 1032 561 986 q 344 1078 426 1078 q 207 1038 264 1078 q 120 906 150 997 q 90 657 90 814 l 90 364 q 97 219 90 289 q 124 96 104 150 q 185 10 144 42 q 294 -21 226 -21 q 406 21 369 -21 q 443 128 442 63 q 415 264 444 193 l 224 735 q 203 798 214 758 q 193 867 193 838 q 226 965 193 926 q 317 1004 258 1004 q 400 977 365 1004 q 426 897 435 950 l 414 818 q 418 644 400 732 q 467 494 436 557 l 628 175 q 728 21 685 63 q 818 -21 771 -21 q 927 39 888 -21 q 997 203 967 99 l 1217 928 q 1260 991 1231 974 q 1319 1001 1289 1008 q 1365 967 1349 994 q 1369 896 1382 939 l 1213 342 q 1194 279 1206 315 q 1175 207 1183 243 q 1167 140 1167 171 q 1181 68 1167 106 q 1228 5 1194 31 q 1319 -21 1261 -21 q 1397 -2 1358 -21 q 1463 62 1436 17 q 1488 186 1489 107 l 1485 649 q 1459 910 1485 817 q 1379 1040 1433 1003 q 1238 1076 1325 1076 q 1049 1026 1128 1076 q 936 881 971 975 q 919 657 901 786 l 956 410 "},"Н":{"ha":1203,"x_min":78,"x_max":1124,"o":"m 974 1076 q 849 1036 889 1076 q 810 939 810 996 q 828 873 810 907 q 878 801 846 839 l 938 733 q 973 694 957 711 q 982 642 989 676 q 953 599 976 611 q 886 588 929 588 l 296 588 q 238 602 261 588 q 215 644 215 617 q 224 681 215 664 q 264 715 233 697 l 422 806 q 482 864 458 826 q 506 949 506 901 q 467 1041 506 1006 q 357 1076 428 1076 q 265 1055 301 1076 q 206 998 228 1033 q 174 922 185 963 q 158 844 163 882 l 85 160 q 97 54 78 94 q 151 -3 117 14 q 225 -21 186 -21 q 304 -2 267 -21 q 365 49 342 17 q 389 122 389 82 q 321 265 389 190 q 272 315 294 293 q 249 361 249 336 q 262 388 249 376 q 321 410 275 400 l 849 514 q 915 517 885 522 q 946 483 946 513 q 937 444 946 467 q 904 401 928 422 l 775 279 q 713 194 726 233 q 699 122 699 156 q 735 24 699 69 q 842 -21 772 -21 q 956 6 917 -21 q 1013 76 996 33 q 1036 169 1031 119 l 1119 942 q 1103 1013 1124 983 q 1049 1060 1083 1043 q 974 1076 1014 1076 "},"О":{"ha":1151,"x_min":83,"x_max":1068,"o":"m 575 -21 q 943 119 818 -21 q 1068 531 1068 258 q 943 940 1068 804 q 575 1076 818 1076 q 208 940 333 1076 q 83 531 83 804 q 208 119 83 258 q 575 -21 333 -21 m 599 100 q 538 67 572 69 q 475 86 504 65 q 435 143 446 107 l 247 742 q 246 851 228 807 q 307 908 264 894 q 406 900 350 922 l 932 689 q 992 628 982 669 q 965 543 1001 586 l 599 100 "},"П":{"ha":1140,"x_min":81,"x_max":1063,"o":"m 85 196 q 101 65 81 113 q 160 -1 121 18 q 254 -21 200 -21 q 348 8 308 -21 q 403 83 388 38 q 405 181 419 129 q 336 276 390 232 l 200 389 q 177 428 178 408 q 192 462 176 449 q 236 472 208 475 l 542 453 q 603 467 579 450 q 634 511 626 485 q 631 565 642 538 q 590 608 621 592 l 297 772 q 237 839 247 800 q 245 913 226 878 q 303 962 264 947 q 394 956 343 976 l 872 764 q 953 714 932 740 q 975 654 975 688 q 966 606 975 631 q 925 543 957 581 l 757 338 q 684 226 706 274 q 663 122 663 178 q 703 19 663 60 q 818 -21 744 -21 q 965 43 917 -21 q 1019 219 1013 107 l 1056 818 q 1009 997 1063 938 q 865 1056 956 1056 l 360 1056 q 227 1023 278 1056 q 152 933 176 990 q 122 801 128 876 l 85 196 "},"Р":{"ha":1119,"x_min":90,"x_max":1078,"o":"m 356 1056 q 206 1020 265 1056 q 119 924 147 985 q 90 785 90 863 l 90 186 q 116 54 90 99 q 184 -6 142 10 q 274 -21 226 -21 q 397 13 354 -21 q 440 118 440 46 q 422 213 440 169 q 360 304 403 256 l 189 496 q 159 567 163 526 q 183 639 156 608 q 258 674 215 675 q 326 639 300 672 l 486 429 q 624 298 556 338 q 781 258 692 258 q 951 306 886 258 q 1047 437 1017 354 q 1078 624 1078 519 q 972 945 1078 835 q 639 1056 867 1056 l 356 1056 m 294 768 q 310 803 294 790 q 353 826 326 815 l 610 932 q 672 949 647 947 q 715 935 696 950 q 760 885 735 921 l 971 582 q 997 490 1007 531 q 941 438 986 449 q 825 461 896 426 l 343 706 q 294 768 294 731 "},"С":{"ha":1167,"x_min":83,"x_max":1069,"o":"m 563 -21 q 752 8 661 -21 q 915 83 843 38 q 1028 181 986 129 q 1069 279 1069 233 q 1047 347 1069 317 q 989 389 1025 376 q 910 388 953 401 q 828 328 868 375 l 624 89 q 553 44 592 53 q 479 49 515 36 q 416 88 443 61 q 379 147 389 114 q 385 215 369 181 q 449 274 400 249 l 525 314 q 585 369 569 338 q 595 433 601 401 q 565 491 589 465 q 503 526 540 517 l 253 596 q 210 640 210 608 q 251 696 211 671 l 700 968 q 772 974 749 997 q 788 903 796 950 l 764 771 q 758 707 758 742 q 766 640 757 672 q 799 585 775 607 q 867 558 824 563 q 978 574 938 551 q 1034 640 1018 597 q 1050 731 1050 682 q 1000 900 1050 821 q 855 1028 950 979 q 626 1076 760 1076 q 407 1035 507 1076 q 235 917 307 993 q 123 736 163 840 q 83 508 83 632 q 135 240 83 360 q 292 49 186 119 q 563 -21 399 -21 "},"Т":{"ha":1063,"x_min":14,"x_max":1083,"o":"m 529 888 q 517 973 508 947 q 553 999 525 999 q 594 976 574 999 l 750 803 q 856 735 799 750 q 965 739 913 721 q 1050 799 1017 757 q 1083 901 1083 842 q 1066 973 1083 938 q 1007 1032 1049 1008 q 893 1056 965 1056 l 418 1056 q 202 1013 293 1056 q 63 895 111 969 q 14 724 14 821 q 34 644 14 681 q 90 583 54 607 q 169 558 125 560 q 300 625 264 556 q 336 838 336 694 l 336 899 q 349 975 336 944 q 397 1006 363 1006 q 438 976 425 1006 q 451 882 450 947 l 467 203 q 481 79 468 129 q 529 4 494 29 q 631 -21 564 -21 q 769 51 742 -21 q 753 238 796 124 l 529 888 "},"У":{"ha":1071,"x_min":25,"x_max":1067,"o":"m 768 565 q 760 525 769 543 q 732 508 750 507 q 688 547 714 510 l 408 950 q 326 1046 363 1015 q 231 1076 290 1076 q 129 1044 169 1076 q 65 962 89 1013 q 33 852 42 911 q 30 738 25 793 q 50 643 35 682 q 84 601 61 613 q 121 594 107 589 q 166 636 154 606 q 158 718 178 667 l 96 881 q 97 924 86 907 q 126 943 107 942 q 165 918 146 944 l 593 346 q 606 316 604 332 q 592 288 608 300 q 528 276 575 276 l 397 276 q 293 247 331 276 q 245 172 256 217 q 250 83 235 128 q 304 9 265 39 q 404 -21 343 -21 q 497 10 454 -21 q 576 86 540 40 q 640 178 613 132 l 981 736 q 1037 835 1010 783 q 1065 929 1064 886 q 1035 1022 1067 986 q 958 1069 1004 1057 q 864 1072 911 1082 q 786 1029 817 1063 q 757 938 756 996 l 768 565 "},"Ў":{"ha":1071,"x_min":25,"x_max":1067,"o":"m 549 1121 q 689 1133 628 1119 q 785 1183 750 1147 q 819 1281 819 1219 q 797 1332 819 1315 q 749 1349 774 1349 q 694 1334 718 1349 q 656 1283 671 1319 q 613 1196 633 1232 q 549 1160 593 1160 q 484 1196 504 1160 q 442 1283 464 1232 q 403 1334 426 1319 q 349 1349 381 1349 q 301 1332 324 1349 q 278 1281 278 1315 q 313 1183 278 1219 q 408 1133 347 1147 q 549 1121 469 1119 m 768 565 q 760 525 769 543 q 732 508 750 507 q 688 547 714 510 l 408 950 q 326 1046 363 1015 q 231 1076 290 1076 q 129 1044 169 1076 q 65 962 89 1013 q 33 852 42 911 q 30 738 25 793 q 50 643 35 682 q 84 601 61 613 q 121 594 107 589 q 166 636 154 606 q 158 718 178 667 l 96 881 q 97 924 86 907 q 126 943 107 942 q 165 918 146 944 l 593 346 q 606 316 604 332 q 592 288 608 300 q 528 276 575 276 l 397 276 q 293 247 331 276 q 245 172 256 217 q 250 83 235 128 q 304 9 265 39 q 404 -21 343 -21 q 497 10 454 -21 q 576 86 540 40 q 640 178 613 132 l 981 736 q 1037 835 1010 783 q 1065 929 1064 886 q 1035 1022 1067 986 q 958 1069 1004 1057 q 864 1072 911 1082 q 786 1029 817 1063 q 757 938 756 996 l 768 565 "},"Ф":{"ha":1679,"x_min":75,"x_max":1606,"o":"m 76 414 q 106 202 75 283 q 192 83 138 121 q 308 46 246 46 q 442 76 383 46 q 564 151 501 106 l 758 293 q 794 299 778 307 q 815 272 811 290 q 800 236 819 254 l 758 200 q 705 143 726 172 q 683 76 683 114 q 718 6 683 33 q 829 -22 753 -22 q 936 2 894 -22 q 988 68 978 26 q 969 161 999 110 l 879 319 q 872 367 864 346 q 899 400 879 389 q 940 407 918 411 q 978 376 963 403 l 1082 193 q 1176 85 1122 124 q 1315 46 1229 46 q 1517 136 1438 46 q 1599 415 1596 226 l 1603 658 q 1574 863 1606 785 q 1490 978 1543 942 q 1374 1015 1438 1015 q 1255 991 1310 1015 q 1129 913 1200 967 l 897 738 q 857 731 876 722 q 834 762 838 740 q 856 801 831 783 l 926 856 q 984 912 964 883 q 1004 976 1004 940 q 965 1051 1004 1018 q 843 1085 925 1085 q 702 1037 744 1085 q 699 896 660 989 l 769 726 q 772 672 782 696 q 738 638 761 649 q 691 636 715 628 q 653 675 667 644 l 575 858 q 490 974 543 933 q 358 1015 436 1015 q 226 979 289 1015 q 123 863 163 943 q 81 650 83 782 l 76 414 m 960 521 q 910 578 922 544 q 913 645 899 613 q 965 696 926 678 l 1190 801 q 1272 811 1238 824 q 1331 747 1306 799 l 1521 365 q 1529 306 1536 335 q 1501 257 1522 276 q 1451 234 1481 238 q 1393 249 1422 231 l 960 521 m 732 532 q 773 486 763 517 q 774 424 783 456 q 738 371 765 392 l 560 239 q 385 268 450 158 l 154 654 q 142 731 131 696 q 186 782 153 767 q 261 775 219 797 l 732 532 "},"Х":{"ha":1108,"x_min":35,"x_max":1094,"o":"m 756 571 q 733 540 754 544 q 700 550 711 535 l 442 946 q 361 1042 400 1010 q 257 1074 322 1074 q 146 1040 190 1074 q 76 954 101 1007 q 43 841 51 901 q 40 725 35 781 q 61 631 46 669 q 96 594 72 603 q 135 592 119 586 q 176 633 167 607 q 171 707 186 660 l 113 879 q 115 920 106 906 q 142 933 124 935 q 178 904 160 931 l 389 604 q 422 516 429 549 q 369 443 414 483 l 146 250 q 85 167 103 213 q 75 78 67 121 q 118 9 83 36 q 215 -18 153 -18 q 331 24 293 -18 q 382 139 368 67 l 438 431 q 463 462 443 457 q 493 451 483 467 l 617 246 q 736 76 683 135 q 838 -3 789 18 q 943 -24 888 -24 q 1009 -10 974 -24 q 1069 34 1044 3 q 1094 118 1094 65 q 1056 228 1094 183 q 928 274 1017 272 l 708 275 q 661 292 672 275 q 649 326 650 308 q 656 358 649 342 q 683 396 664 374 l 988 742 q 1049 828 1031 792 q 1073 894 1068 864 q 1078 953 1078 924 q 1039 1036 1078 1000 q 931 1072 1000 1072 q 815 1033 858 1072 q 768 890 772 993 l 756 571 "},"Ч":{"ha":1114,"x_min":69,"x_max":1043,"o":"m 304 1076 q 175 1028 225 1076 q 117 889 125 979 l 79 457 q 113 271 69 336 q 265 206 156 206 q 433 254 356 206 q 571 367 511 303 l 782 592 q 856 647 818 631 q 931 633 893 663 q 958 573 954 614 q 918 486 961 532 l 733 292 q 668 207 692 247 q 644 114 644 167 q 684 17 644 54 q 788 -21 724 -21 q 933 28 886 -21 q 986 163 981 78 l 1031 885 q 858 1076 1043 1076 q 751 1042 790 1076 q 708 951 711 1008 q 743 822 704 894 l 774 767 q 788 699 793 732 q 738 650 782 667 l 233 456 q 168 457 196 442 q 134 503 140 472 q 157 564 128 535 l 372 788 q 436 887 418 836 q 444 981 454 938 q 399 1050 435 1024 q 304 1076 364 1076 "},"Ц":{"ha":1254,"x_min":81,"x_max":1213,"o":"m 290 1076 q 171 1032 213 1076 q 124 889 129 988 l 88 218 q 120 35 81 92 q 236 -21 160 -21 q 337 3 296 -21 q 408 67 378 26 l 590 297 q 643 318 614 326 q 672 274 672 310 l 672 156 q 711 41 672 82 q 818 0 750 0 q 892 12 863 0 q 953 40 922 24 l 1072 104 q 1117 110 1097 118 q 1147 85 1138 103 q 1154 48 1157 68 q 1131 17 1151 28 l 1003 -56 q 944 -118 960 -81 q 935 -192 928 -156 q 972 -253 943 -228 q 1046 -278 1000 -278 q 1131 -258 1093 -278 q 1190 -192 1168 -239 q 1213 -65 1213 -146 l 1213 281 q 1176 399 1213 358 q 1093 439 1140 439 q 958 329 1001 439 l 882 136 q 848 95 869 104 q 807 94 826 86 q 778 122 788 101 q 778 169 768 143 l 1022 793 q 1049 939 1054 875 q 1003 1040 1043 1003 q 893 1076 964 1076 q 795 1050 838 1076 q 735 973 753 1024 q 732 847 717 922 l 793 546 q 790 465 804 494 q 735 421 776 435 l 261 271 q 193 273 219 257 q 167 324 167 289 q 175 366 167 347 q 206 428 183 385 l 367 722 q 422 838 403 788 q 440 932 440 888 q 401 1036 440 996 q 290 1076 361 1076 "},"Ш":{"ha":1563,"x_min":81,"x_max":1528,"o":"m 86 219 q 133 41 81 103 q 279 -21 186 -21 q 442 31 378 -21 q 522 217 507 82 l 556 500 q 579 555 560 536 q 622 574 599 574 q 665 556 646 574 q 685 500 683 538 l 707 142 q 840 -21 717 -21 q 933 12 897 -21 q 996 96 969 44 l 1092 286 q 1147 327 1114 329 q 1189 276 1179 325 l 1217 132 q 1275 13 1233 47 q 1382 -21 1317 -21 q 1490 19 1451 -21 q 1528 124 1528 58 q 1488 234 1528 196 q 1378 303 1449 272 l 1275 347 q 1257 422 1225 369 l 1481 794 q 1521 935 1526 871 q 1473 1038 1515 999 q 1365 1076 1431 1076 q 1240 1024 1288 1076 q 1192 874 1192 972 l 1193 521 q 1177 447 1193 475 q 1117 399 1161 418 l 853 283 q 791 287 818 268 q 764 335 764 306 q 768 376 764 358 q 790 436 772 393 l 964 840 q 988 958 992 904 q 953 1044 983 1011 q 871 1076 922 1076 q 789 1051 824 1076 q 717 958 754 1026 l 365 321 q 312 266 343 282 q 249 253 281 250 q 194 278 217 257 q 167 333 171 299 q 188 411 163 367 l 358 722 q 413 838 394 788 q 432 932 432 888 q 393 1036 432 996 q 289 1076 354 1076 q 169 1032 211 1076 q 122 889 128 988 l 86 219 "},"Щ":{"ha":1703,"x_min":81,"x_max":1661,"o":"m 86 219 q 133 41 81 103 q 279 -21 186 -21 q 396 1 344 -21 q 481 74 447 22 q 525 217 515 126 l 557 500 q 581 555 561 536 q 624 574 600 574 q 665 556 647 574 q 685 500 683 538 l 701 142 q 740 19 706 60 q 831 -21 775 -21 q 912 6 881 -21 q 964 89 943 33 l 1028 258 q 1061 294 1039 289 q 1102 286 1083 300 q 1121 242 1121 272 l 1121 161 q 1160 38 1121 76 q 1265 0 1200 0 q 1345 13 1310 0 q 1411 43 1381 25 l 1521 104 q 1566 111 1546 118 q 1596 86 1586 104 q 1603 48 1606 68 q 1579 17 1600 28 l 1451 -56 q 1392 -118 1408 -81 q 1384 -192 1376 -156 q 1420 -253 1392 -228 q 1494 -278 1449 -278 q 1618 -233 1575 -278 q 1661 -65 1661 -187 l 1661 294 q 1626 407 1661 368 q 1546 446 1590 446 q 1469 422 1503 446 q 1411 340 1435 397 l 1329 135 q 1294 95 1317 104 q 1251 94 1272 86 q 1220 123 1231 101 q 1222 174 1210 144 l 1471 793 q 1498 939 1504 875 q 1452 1040 1492 1003 q 1342 1076 1413 1076 q 1211 1023 1258 1076 q 1182 857 1164 969 l 1235 546 q 1230 466 1243 494 q 1176 421 1217 438 l 853 283 q 791 288 818 269 q 764 335 764 306 q 768 376 764 358 q 790 436 772 393 l 964 840 q 988 958 992 904 q 953 1044 983 1011 q 871 1076 922 1076 q 789 1051 824 1076 q 717 958 754 1026 l 365 321 q 313 267 344 282 q 249 255 281 251 q 194 278 217 258 q 167 333 171 299 q 188 411 163 367 l 358 722 q 413 838 394 788 q 432 932 432 888 q 393 1036 432 996 q 289 1076 354 1076 q 169 1032 211 1076 q 122 889 128 988 l 86 219 "},"Џ":{"ha":1146,"x_min":83,"x_max":1067,"o":"m 90 232 q 149 66 83 107 q 342 69 215 25 l 471 115 q 517 115 499 125 q 542 86 535 106 q 542 47 549 67 q 511 19 535 28 l 389 -25 q 272 -165 272 -68 q 308 -246 272 -214 q 415 -278 343 -278 q 556 -226 506 -278 q 606 -86 606 -175 l 606 -44 q 631 7 606 -8 q 686 7 656 22 l 710 -4 q 814 -27 761 -28 q 913 -1 867 -26 q 988 77 958 25 q 1022 207 1018 129 l 1061 861 q 1046 992 1067 946 q 985 1058 1025 1039 q 892 1078 946 1078 q 799 1050 838 1078 q 747 978 761 1022 q 746 881 732 933 q 810 781 760 829 l 946 646 q 965 588 978 615 q 910 563 951 560 l 604 582 q 543 567 567 585 q 512 523 519 550 q 515 469 504 496 q 556 426 525 442 l 856 272 q 906 223 893 253 q 911 162 918 193 q 882 107 904 131 q 826 77 860 83 q 753 92 793 71 l 274 336 q 191 391 214 367 q 168 450 168 415 q 178 498 168 475 q 221 557 189 521 l 376 731 q 458 837 433 794 q 483 935 483 879 q 442 1038 483 997 q 328 1078 401 1078 q 181 1014 229 1078 q 126 838 133 950 l 90 232 "},"Ь":{"ha":1119,"x_min":86,"x_max":1079,"o":"m 621 0 q 866 62 764 0 q 1023 228 968 124 q 1078 463 1078 333 q 1041 649 1079 568 q 941 777 1003 731 q 808 824 879 824 q 648 770 721 824 q 499 626 575 717 l 335 432 q 263 392 307 399 q 186 419 218 385 q 166 490 158 451 q 200 560 174 529 l 365 756 q 431 848 408 807 q 454 935 454 889 q 417 1035 454 994 q 314 1076 381 1076 q 178 1024 229 1076 q 119 835 126 971 l 90 286 q 119 140 86 204 q 218 38 151 75 q 382 0 285 0 l 621 0 m 294 288 q 343 350 294 325 l 863 626 q 933 643 901 647 q 984 618 965 639 q 1003 565 1003 597 q 978 500 1003 533 l 732 171 q 660 108 693 118 q 571 124 628 97 l 353 225 q 310 251 326 238 q 294 288 294 265 "},"Ъ":{"ha":1301,"x_min":42,"x_max":1246,"o":"m 851 642 q 800 663 813 642 q 811 711 788 685 l 885 793 q 935 870 922 835 q 949 932 949 906 q 909 1020 949 985 q 799 1056 869 1056 l 285 1056 q 94 1006 146 1056 q 42 865 42 957 q 72 761 42 801 q 149 709 101 721 q 251 716 197 697 q 354 788 306 735 l 500 949 q 561 983 529 981 q 617 969 593 986 q 647 924 642 951 q 626 867 653 896 l 350 556 q 246 413 282 479 q 210 281 210 346 q 348 55 210 131 q 725 -21 486 -21 q 908 0 815 -21 q 1076 66 1000 21 q 1199 184 1153 111 q 1246 361 1246 257 q 1220 499 1246 435 q 1137 602 1194 563 q 982 642 1079 642 l 851 642 m 360 207 q 319 219 333 207 q 306 250 306 232 q 312 274 306 261 q 328 294 318 286 l 665 551 q 750 592 711 588 q 849 547 789 597 l 1132 306 q 1158 283 1149 292 q 1167 263 1167 274 q 1150 228 1167 244 q 1085 213 1133 213 l 360 207 "},"Ы":{"ha":1569,"x_min":56,"x_max":1489,"o":"m 75 522 q 114 238 56 360 q 301 47 172 115 q 615 -21 429 -21 q 849 23 747 -21 q 1010 145 951 67 q 1068 328 1068 224 q 1052 419 1068 372 q 990 504 1036 467 q 850 554 943 542 l 738 569 q 683 618 683 578 q 744 668 683 658 l 1369 774 q 1420 757 1408 781 q 1413 697 1432 733 l 1169 251 q 1133 115 1129 176 q 1175 16 1136 53 q 1279 -21 1214 -21 q 1383 8 1347 -21 q 1432 83 1418 38 q 1449 179 1446 129 l 1485 882 q 1462 1005 1489 960 q 1388 1067 1435 1050 q 1286 1073 1342 1083 q 1178 1028 1231 1063 l 304 457 q 260 369 244 419 q 290 339 267 350 q 351 336 313 328 l 796 435 q 932 428 883 454 q 981 339 981 403 q 941 265 981 297 q 825 231 901 232 l 332 226 q 226 252 268 225 q 165 324 183 279 q 154 403 151 360 q 188 486 157 446 l 400 764 q 463 908 460 842 q 426 1015 465 975 q 321 1056 388 1056 q 222 1033 265 1056 q 151 953 179 1010 q 110 799 122 897 l 75 522 "},"Љ":{"ha":1868,"x_min":21,"x_max":1826,"o":"m 21 289 q 97 50 21 121 q 307 -21 172 -21 q 458 26 404 -21 q 519 149 513 72 q 482 317 526 225 l 432 419 q 410 478 415 454 q 414 524 404 501 q 451 574 424 546 l 824 953 q 886 974 860 989 q 913 910 913 960 l 913 293 q 931 156 913 214 q 994 58 949 97 q 1122 -1 1040 18 q 1332 -21 1204 -21 q 1603 29 1493 -21 q 1769 169 1713 79 q 1826 382 1826 260 q 1789 585 1826 499 q 1688 718 1751 671 q 1543 765 1624 765 q 1441 747 1492 765 q 1304 693 1390 729 l 1072 597 q 1010 599 1035 582 q 986 645 986 615 q 1019 699 986 675 l 1132 776 q 1201 847 1176 807 q 1226 931 1226 888 q 1185 1017 1226 979 q 1060 1056 1143 1056 l 728 1056 q 601 1030 649 1056 q 520 952 553 1004 q 454 822 488 900 l 197 217 q 160 173 183 183 q 117 171 138 163 q 88 203 96 179 q 96 263 79 228 l 181 451 q 200 538 206 506 q 176 586 194 571 q 140 601 157 601 q 101 590 122 601 q 63 547 81 579 q 33 454 44 515 q 21 293 21 393 l 21 289 m 1293 583 q 1360 638 1329 631 q 1443 608 1390 644 l 1721 414 q 1766 360 1757 390 q 1758 306 1775 331 q 1699 271 1742 281 l 1094 131 q 1029 135 1054 121 q 1001 178 1004 150 q 1021 235 997 206 l 1293 583 "},"Њ":{"ha":1710,"x_min":78,"x_max":1668,"o":"m 85 160 q 97 54 78 94 q 154 -3 117 14 q 238 -21 192 -21 q 362 21 318 -21 q 406 122 406 63 q 386 192 406 156 q 326 265 367 229 q 274 314 299 292 q 249 361 249 336 q 262 387 249 376 q 321 410 275 397 l 682 507 q 749 498 726 519 q 767 428 772 476 l 756 328 q 777 128 742 206 q 913 15 813 51 q 1192 -21 1013 -21 q 1449 29 1343 -21 q 1612 169 1556 79 q 1668 382 1668 260 q 1630 585 1668 499 q 1527 718 1592 671 q 1382 765 1463 765 q 1282 747 1332 765 q 1146 693 1232 729 l 944 608 q 883 609 908 593 q 855 654 858 625 q 882 707 851 683 l 1011 806 q 1090 899 1071 851 q 1094 986 1108 946 q 1040 1051 1081 1026 q 939 1076 999 1076 q 799 1024 838 1076 q 774 849 760 971 l 789 706 q 772 618 796 649 q 683 588 749 588 l 296 588 q 238 602 261 588 q 215 644 215 617 q 224 681 215 664 q 264 715 233 697 l 422 806 q 493 866 467 831 q 519 949 519 901 q 478 1041 519 1006 q 361 1076 436 1076 q 267 1055 304 1076 q 207 998 229 1033 q 174 922 185 963 q 158 844 163 882 l 85 160 m 1135 583 q 1201 638 1171 631 q 1285 608 1232 644 l 1563 414 q 1608 360 1599 390 q 1600 306 1617 331 q 1540 271 1583 281 l 936 131 q 871 135 896 121 q 842 178 846 150 q 863 235 839 206 l 1135 583 "},"Ѕ":{"ha":1158,"x_min":58,"x_max":1075,"o":"m 506 -19 q 728 13 625 -19 q 910 101 832 46 q 1031 226 988 157 q 1075 368 1075 296 q 1046 456 1075 418 q 957 504 1017 494 l 250 632 q 201 650 217 639 q 183 683 186 661 q 194 724 181 706 q 253 751 208 742 l 851 881 q 909 888 886 888 q 949 876 932 888 q 961 853 960 869 q 950 817 963 836 l 889 725 q 859 652 861 683 q 871 600 857 621 q 907 569 885 579 q 950 560 929 560 q 1040 606 1011 560 q 1069 726 1069 653 q 1029 888 1069 821 q 921 997 989 954 q 767 1059 853 1039 q 592 1079 682 1079 q 413 1055 500 1079 q 254 983 325 1031 q 142 866 183 936 q 100 706 100 796 q 126 626 100 663 q 194 579 151 590 l 282 558 q 342 538 324 549 q 361 488 360 526 l 363 435 q 392 344 364 385 q 472 290 421 304 q 588 307 522 276 l 882 443 q 947 453 918 460 q 986 407 976 446 q 967 347 997 368 q 892 306 936 326 l 406 71 q 312 61 343 40 q 281 132 281 82 l 281 368 q 251 448 281 413 q 172 483 222 483 q 106 458 131 483 q 69 394 81 432 q 58 318 58 357 q 82 198 58 258 q 157 89 106 138 q 294 10 208 40 q 506 -19 381 -19 "},"Є":{"ha":1153,"x_min":83,"x_max":1069,"o":"m 608 -21 q 854 16 751 -21 q 1013 119 957 53 q 1069 272 1069 186 q 1044 351 1069 321 q 982 391 1019 381 q 907 392 944 401 q 844 349 869 382 q 819 260 819 317 l 819 144 q 783 70 819 83 q 700 88 747 57 l 219 404 q 188 451 190 424 q 200 500 185 478 q 243 529 215 522 q 301 517 271 536 l 500 388 q 628 340 571 342 q 719 373 685 339 q 753 465 753 407 q 715 569 753 536 q 593 603 678 603 l 260 603 q 211 619 226 603 q 201 657 196 635 q 236 696 207 679 l 700 968 q 772 973 749 996 q 788 903 796 950 l 765 782 q 788 651 750 700 q 896 603 825 603 q 1010 641 969 603 q 1050 756 1050 679 q 1022 869 1050 813 q 940 973 993 926 q 813 1048 888 1019 q 646 1076 739 1076 q 418 1034 521 1076 q 240 914 315 992 q 124 728 165 836 q 83 489 83 621 q 121 286 83 379 q 228 124 158 193 q 395 17 299 56 q 608 -21 492 -21 "},"Э":{"ha":1153,"x_min":83,"x_max":1069,"o":"m 497 -21 q 805 49 676 -21 q 1001 251 933 119 q 1069 565 1069 383 q 1031 765 1069 672 q 923 928 992 858 q 761 1038 854 999 q 560 1076 668 1076 q 362 1048 447 1076 q 219 973 276 1019 q 132 869 161 926 q 103 756 103 813 q 143 641 103 679 q 257 603 183 603 q 365 651 328 603 q 388 782 403 700 l 365 903 q 381 973 357 950 q 453 968 406 996 l 917 696 q 952 657 947 679 q 942 619 957 635 q 893 603 926 603 l 560 603 q 438 569 475 603 q 400 465 400 536 q 433 373 400 407 q 524 340 467 339 q 653 388 582 342 l 851 517 q 910 529 882 536 q 953 500 938 522 q 965 451 968 478 q 933 404 963 424 l 453 88 q 369 70 406 57 q 333 144 333 83 l 333 260 q 308 349 333 317 q 246 392 283 382 q 171 391 208 401 q 108 350 133 381 q 83 272 83 319 q 138 119 83 186 q 285 16 192 53 q 497 -21 379 -21 "},"І":{"ha":596,"x_min":56,"x_max":526,"o":"m 56 747 q 65 716 56 729 q 101 703 75 703 l 161 703 q 213 693 194 703 q 231 660 231 683 q 226 635 231 650 l 114 224 q 113 99 96 154 q 179 11 129 43 q 308 -21 229 -21 q 412 -5 363 -21 q 492 42 461 11 q 517 119 522 74 q 492 178 513 160 q 441 196 471 196 q 382 183 411 196 l 215 111 q 181 117 196 103 q 165 151 165 131 q 172 173 165 163 q 194 201 178 183 l 460 504 q 507 608 506 557 q 472 689 508 658 q 364 711 435 719 l 269 700 q 247 701 260 699 q 233 722 233 704 q 260 754 233 746 l 413 807 q 494 856 463 825 q 526 944 526 886 q 483 1042 526 1007 q 388 1076 440 1076 q 328 1065 357 1076 q 278 1028 300 1053 l 121 847 q 75 790 94 817 q 56 747 56 764 "},"Ї":{"ha":596,"x_min":56,"x_max":649,"o":"m 208 1160 q 276 1179 244 1165 q 326 1219 308 1193 q 332 1288 343 1246 q 295 1346 322 1332 q 236 1354 268 1360 q 165 1333 201 1349 q 110 1291 129 1318 q 100 1224 90 1264 q 131 1171 108 1192 q 208 1160 153 1150 m 460 1183 q 526 1163 492 1169 q 590 1170 561 1157 q 633 1224 619 1183 q 633 1292 649 1265 q 589 1332 618 1318 q 518 1353 557 1347 q 448 1348 479 1360 q 403 1297 417 1336 q 401 1236 393 1265 q 460 1183 408 1207 m 56 747 q 65 716 56 729 q 101 703 75 703 l 161 703 q 213 693 194 703 q 231 660 231 683 q 226 635 231 650 l 114 224 q 113 99 96 154 q 179 11 129 43 q 308 -21 229 -21 q 412 -5 363 -21 q 492 42 461 11 q 517 119 522 74 q 492 178 513 160 q 441 196 471 196 q 382 183 411 196 l 215 111 q 181 117 196 103 q 165 151 165 131 q 172 173 165 163 q 194 201 178 183 l 460 504 q 507 608 506 557 q 472 689 508 658 q 364 711 435 719 l 269 700 q 247 701 260 699 q 233 722 233 704 q 260 754 233 746 l 413 807 q 494 856 463 825 q 526 944 526 886 q 483 1042 526 1007 q 388 1076 440 1076 q 328 1065 357 1076 q 278 1028 300 1053 l 121 847 q 75 790 94 817 q 56 747 56 764 "},"Ј":{"ha":731,"x_min":42,"x_max":647,"o":"m 176 174 q 131 182 150 168 q 110 222 111 196 q 136 275 110 247 l 321 468 q 351 536 353 501 q 322 594 349 571 q 250 618 294 618 q 177 590 214 618 q 110 513 140 563 q 60 402 79 464 q 42 271 42 340 q 85 132 42 199 q 209 22 129 65 q 394 -21 289 -21 q 556 19 501 -21 q 628 142 610 60 q 647 346 647 224 l 647 871 q 622 995 647 950 q 557 1059 596 1040 q 479 1078 518 1078 q 388 1052 421 1078 q 340 990 354 1026 q 326 917 326 953 q 347 814 326 872 q 390 715 367 756 l 579 392 q 601 295 613 335 q 547 247 590 256 l 176 174 "},"Ћ":{"ha":1390,"x_min":21,"x_max":1315,"o":"m 21 735 q 60 617 21 664 q 163 569 100 569 q 281 633 240 569 q 322 838 322 697 l 322 899 q 335 975 322 944 q 383 1006 349 1006 q 426 976 411 1006 q 438 882 440 947 l 411 203 q 456 31 406 82 q 592 -21 507 -21 q 687 4 651 -21 q 733 69 722 29 q 729 152 744 108 q 672 235 714 196 l 619 283 q 595 342 589 311 q 636 383 601 374 l 1113 518 q 1183 511 1154 531 q 1215 458 1211 492 q 1188 392 1219 425 l 1071 272 q 1008 191 1029 231 q 988 107 988 151 q 1025 17 988 54 q 1129 -21 1063 -21 q 1265 30 1219 -21 q 1311 172 1310 81 l 1314 336 q 1284 482 1315 425 q 1186 578 1253 539 l 1071 644 q 883 696 967 706 q 717 589 799 686 l 582 431 q 530 404 558 403 q 488 430 501 406 q 489 490 474 454 l 690 958 q 740 999 706 996 q 801 969 774 1003 l 890 864 q 974 788 932 814 q 1067 761 1015 761 q 1169 801 1129 761 q 1210 901 1210 840 q 1183 990 1210 956 q 1114 1040 1157 1024 q 1021 1056 1071 1056 l 404 1056 q 203 1013 289 1056 q 69 899 117 971 q 21 735 21 826 "},"Ю":{"ha":1538,"x_min":79,"x_max":1454,"o":"m 85 160 q 99 54 79 94 q 154 -3 118 14 q 235 -21 190 -21 q 354 21 313 -21 q 396 122 396 63 q 376 192 396 156 q 321 265 357 229 q 267 315 294 293 q 240 361 240 336 q 255 390 240 376 q 313 426 269 404 l 401 474 q 465 481 440 494 q 500 432 490 468 l 526 335 q 624 120 564 197 q 772 11 685 43 q 976 -21 860 -21 q 1228 51 1121 -21 q 1394 258 1335 124 q 1454 574 1454 392 q 1327 945 1454 814 q 946 1076 1200 1076 q 717 1021 810 1076 q 579 871 625 965 q 533 658 533 776 q 472 588 533 588 l 278 588 q 220 602 243 588 q 197 644 197 617 q 206 681 197 664 q 246 715 215 697 l 369 785 q 451 858 422 814 q 479 950 479 903 q 441 1042 479 1007 q 342 1076 403 1076 q 249 1055 286 1076 q 190 998 213 1033 q 157 922 168 963 q 143 844 146 882 l 85 160 m 604 407 q 557 483 564 444 q 570 556 550 522 q 626 613 590 590 l 1118 914 q 1219 935 1175 949 q 1285 876 1264 921 q 1288 774 1306 832 l 1103 143 q 1063 85 1092 104 q 1000 70 1035 65 q 932 106 965 75 l 604 407 "},"Я":{"ha":1199,"x_min":63,"x_max":1115,"o":"m 225 299 q 109 258 156 297 q 63 154 63 219 q 81 71 63 111 q 140 5 99 31 q 251 -21 181 -21 q 355 5 301 -21 q 468 99 408 31 l 840 519 q 878 572 868 551 q 888 610 888 592 q 865 647 888 635 q 794 651 842 658 l 367 582 q 251 587 294 571 q 188 635 207 603 q 168 706 168 668 q 208 792 168 757 q 324 826 249 826 l 808 826 q 973 781 924 826 q 1022 664 1022 736 q 1014 601 1022 633 q 982 533 1006 569 l 796 243 q 751 111 750 171 q 790 15 751 51 q 894 -21 829 -21 q 983 0 943 -21 q 1053 76 1024 21 q 1099 233 1082 132 q 1115 497 1115 335 q 1001 940 1115 804 q 658 1076 886 1076 q 418 1042 525 1076 q 235 951 311 1007 q 118 831 158 896 q 78 706 78 767 q 98 615 78 657 q 168 539 118 574 q 307 475 218 504 l 525 406 q 568 383 551 397 q 585 347 585 369 q 569 314 585 326 q 510 301 553 301 l 225 299 "},"Ђ":{"ha":1376,"x_min":21,"x_max":1314,"o":"m 21 735 q 60 617 21 664 q 163 569 100 569 q 281 633 240 569 q 322 838 322 697 l 322 899 q 335 975 322 944 q 383 1006 349 1006 q 426 976 411 1006 q 438 882 440 947 l 411 203 q 456 31 406 82 q 589 -21 507 -21 q 681 3 646 -21 q 726 67 715 28 q 724 150 738 106 q 668 235 710 194 l 618 283 q 595 343 589 313 q 636 383 601 374 l 1075 497 q 1167 495 1129 511 q 1225 446 1206 479 q 1243 374 1244 413 q 1219 303 1242 335 q 1150 257 1197 271 l 985 210 q 813 38 813 161 q 845 -53 813 -18 q 928 -97 878 -87 q 1032 -85 978 -106 q 1131 -8 1086 -64 l 1190 68 q 1281 204 1247 142 q 1314 346 1314 267 q 1283 483 1314 428 q 1186 578 1253 539 l 1071 644 q 883 696 967 706 q 717 589 799 686 l 582 431 q 530 404 558 403 q 488 430 501 406 q 489 490 474 454 l 690 958 q 740 999 706 996 q 801 969 774 1003 l 890 864 q 974 788 932 814 q 1067 761 1015 761 q 1169 801 1129 761 q 1210 901 1210 840 q 1183 990 1210 956 q 1114 1040 1157 1024 q 1021 1056 1071 1056 l 404 1056 q 203 1013 289 1056 q 69 899 117 971 q 21 735 21 826 "},"ц":{"ha":1332,"x_min":47,"x_max":1290,"o":"m 47 601 q 69 542 47 564 q 117 519 90 519 q 193 554 171 519 q 196 650 215 589 q 176 706 190 669 q 151 779 163 742 q 139 840 139 817 q 159 890 139 875 q 201 904 179 904 q 276 840 243 904 l 453 513 q 476 463 469 482 q 482 421 482 444 q 475 388 482 404 q 453 358 468 372 l 328 250 q 266 179 288 215 q 244 101 244 143 q 278 13 244 46 q 368 -21 313 -21 q 468 2 426 -21 q 551 72 510 25 l 675 211 q 726 230 699 239 q 754 185 754 221 l 754 154 q 795 36 754 72 q 896 0 836 0 q 970 12 940 0 q 1031 40 1000 24 l 1150 104 q 1195 110 1175 118 q 1225 85 1215 103 q 1232 48 1235 68 q 1208 17 1229 28 l 1081 -56 q 1022 -118 1038 -81 q 1013 -192 1006 -156 q 1049 -253 1021 -228 q 1124 -278 1078 -278 q 1208 -258 1171 -278 q 1268 -192 1246 -239 q 1290 -65 1290 -146 l 1290 281 q 1258 399 1290 358 q 1182 440 1226 440 q 1049 329 1101 440 l 957 136 q 919 96 942 104 q 878 97 897 88 q 851 129 858 107 q 857 181 843 151 l 1119 728 q 1156 820 1140 772 q 1171 911 1171 868 q 1133 1033 1171 989 q 1029 1076 1096 1076 q 891 1013 932 1076 q 844 803 850 949 l 829 378 q 809 300 828 324 q 753 276 790 276 l 619 276 q 558 303 576 276 q 539 378 539 331 l 539 797 q 519 970 539 910 q 456 1053 499 1031 q 346 1076 414 1076 q 160 1021 225 1076 q 72 860 96 965 q 47 601 47 754 "},"ш":{"ha":1829,"x_min":47,"x_max":1801,"o":"m 47 601 q 69 542 47 564 q 117 519 90 519 q 193 554 171 519 q 196 650 215 589 q 176 702 190 669 q 150 769 161 735 q 139 826 139 803 q 164 883 140 864 q 218 899 188 903 q 268 864 249 896 l 463 554 q 502 458 500 494 q 471 382 504 422 l 340 229 q 261 93 272 149 q 278 8 250 38 q 354 -21 307 -21 q 492 13 421 -21 q 629 96 563 46 q 752 198 696 146 q 843 288 808 250 l 953 403 q 1010 444 986 439 q 1057 428 1035 450 q 1072 374 1081 406 q 1032 310 1064 343 l 935 207 q 866 92 875 143 q 887 10 857 40 q 971 -21 917 -21 q 1088 6 1031 -21 q 1197 74 1144 32 q 1294 166 1249 117 q 1376 263 1339 215 q 1439 344 1413 310 q 1486 377 1463 375 q 1524 360 1510 379 q 1532 306 1539 340 l 1510 201 q 1501 92 1497 143 q 1538 10 1506 42 q 1639 -21 1569 -21 q 1763 18 1725 -21 q 1801 114 1801 57 q 1774 205 1801 168 q 1707 272 1746 242 l 1632 332 q 1603 370 1611 349 q 1604 422 1594 392 l 1724 803 q 1739 963 1756 903 q 1680 1049 1722 1022 q 1588 1076 1638 1076 q 1469 1017 1507 1076 q 1419 836 1432 957 l 1375 406 q 1349 331 1369 358 q 1290 304 1329 304 l 1236 304 q 1171 328 1194 304 q 1144 406 1147 351 l 1125 842 q 1087 1022 1119 968 q 985 1076 1054 1076 q 844 881 860 1076 l 810 394 q 781 323 806 343 q 724 303 756 303 l 643 303 q 591 326 610 303 q 568 404 572 350 l 536 797 q 508 970 528 910 q 451 1053 489 1031 q 346 1076 414 1076 q 160 1021 225 1076 q 72 860 96 965 q 47 601 47 754 "},"щ":{"ha":1907,"x_min":47,"x_max":1865,"o":"m 47 601 q 69 542 47 564 q 117 519 90 519 q 193 554 171 519 q 196 650 215 589 q 176 702 190 669 q 150 769 161 735 q 139 826 139 803 q 164 883 140 864 q 218 899 188 903 q 268 864 249 896 l 463 554 q 502 458 500 494 q 471 382 504 422 l 340 229 q 261 93 272 149 q 278 8 250 38 q 354 -21 307 -21 q 490 13 421 -21 q 626 96 560 46 q 747 198 692 146 q 838 288 801 250 l 946 403 q 1001 443 976 435 q 1049 429 1026 451 q 1059 379 1072 407 q 1015 317 1046 351 l 926 215 q 861 97 869 150 q 882 11 853 43 q 967 -21 911 -21 q 1089 18 1039 -21 q 1189 125 1139 57 l 1256 215 q 1302 236 1275 243 q 1329 203 1329 229 l 1329 154 q 1370 36 1329 72 q 1471 0 1411 0 q 1545 12 1515 0 q 1606 40 1575 24 l 1725 104 q 1770 110 1750 118 q 1800 85 1790 103 q 1807 48 1810 68 q 1783 17 1804 28 l 1656 -56 q 1597 -118 1613 -81 q 1588 -192 1581 -156 q 1624 -253 1596 -228 q 1699 -278 1653 -278 q 1783 -258 1746 -278 q 1843 -192 1821 -239 q 1865 -65 1865 -146 l 1865 281 q 1833 399 1865 358 q 1756 440 1800 440 q 1624 329 1676 440 l 1532 136 q 1494 96 1517 104 q 1453 97 1472 88 q 1426 129 1433 107 q 1432 181 1418 151 l 1694 728 q 1731 820 1715 772 q 1746 911 1746 868 q 1708 1033 1746 989 q 1604 1076 1671 1076 q 1466 1013 1507 1076 q 1419 803 1425 949 l 1404 406 q 1384 328 1403 351 q 1328 304 1365 304 l 1236 304 q 1172 328 1194 304 q 1146 406 1149 351 l 1124 842 q 1086 1023 1118 969 q 985 1076 1054 1076 q 885 1026 922 1076 q 842 867 849 975 l 810 394 q 781 323 807 343 q 724 303 756 303 l 643 303 q 592 324 611 303 q 568 404 574 346 l 536 797 q 508 970 528 910 q 451 1053 489 1031 q 346 1076 414 1076 q 160 1021 225 1076 q 72 860 96 965 q 47 601 47 754 "},".":{"ha":392,"x_min":38,"x_max":356,"o":"m 350 85 q 328 170 356 140 q 256 211 300 200 q 167 222 213 222 q 70 192 94 222 q 42 118 46 163 q 69 35 38 65 q 148 -7 100 6 q 242 -19 196 -19 q 314 4 282 -19 q 350 85 346 28 "},",":{"ha":400,"x_min":22,"x_max":363,"o":"m 28 -137 q 41 -174 22 -164 q 76 -172 60 -185 l 313 3 q 335 26 325 13 q 351 58 346 39 q 347 138 363 96 q 269 201 331 179 q 190 216 231 215 q 118 197 149 217 q 78 128 88 176 l 28 -137 "},":":{"ha":419,"x_min":60,"x_max":383,"o":"m 378 740 q 356 826 383 796 q 284 867 328 856 q 194 878 240 878 q 98 848 122 878 q 69 774 74 818 q 97 691 65 721 q 176 649 128 661 q 269 636 224 636 q 342 660 310 636 q 378 740 374 683 m 115 168 q 200 144 161 136 q 272 184 239 151 q 326 256 304 217 q 350 353 363 317 q 301 417 338 390 q 217 437 258 449 q 140 390 175 425 q 81 315 104 354 q 64 241 60 281 q 115 168 68 201 "},";":{"ha":400,"x_min":22,"x_max":363,"o":"m 97 543 q 182 517 143 510 q 253 558 221 525 q 310 629 286 590 q 334 726 347 690 q 285 789 321 763 q 201 810 243 821 q 123 764 158 799 q 64 689 88 729 q 47 615 43 654 q 97 543 50 575 m 28 -137 q 41 -174 22 -164 q 76 -172 60 -185 l 313 3 q 335 26 325 13 q 351 58 346 39 q 347 138 363 96 q 269 201 331 179 q 190 216 231 215 q 118 197 149 217 q 78 128 88 176 l 28 -137 "},"…":{"ha":833,"x_min":38,"x_max":356,"o":"m 167 222 q 70 192 94 222 q 42 118 46 163 q 69 35 38 65 q 148 -7 100 6 q 242 -19 196 -19 q 314 4 282 -19 q 350 85 346 28 q 328 170 356 140 q 256 211 300 200 q 167 222 213 222 "},"!":{"ha":501,"x_min":21,"x_max":478,"o":"m 443 803 q 471 892 464 844 q 468 981 478 939 q 428 1049 458 1022 q 343 1076 397 1076 q 219 1041 261 1076 q 165 947 178 1006 q 153 822 151 889 l 168 401 q 178 369 169 379 q 199 357 186 358 q 221 363 210 356 q 242 393 232 371 l 443 803 m 331 147 q 276 216 313 200 q 194 224 239 232 q 107 199 150 217 q 31 132 42 169 q 35 53 21 94 q 92 -12 51 3 q 183 -19 133 -26 q 274 7 232 -11 q 331 58 311 24 q 331 147 350 93 "},"¡":{"ha":501,"x_min":24,"x_max":481,"o":"m 171 908 q 226 840 189 856 q 308 831 263 824 q 394 857 353 839 q 470 924 460 886 q 467 1003 481 961 q 409 1067 450 1053 q 319 1074 368 1082 q 228 1049 271 1067 q 172 997 190 1032 q 171 908 153 963 m 58 253 q 31 164 38 211 q 33 75 24 117 q 74 6 43 33 q 158 -21 104 -21 q 282 15 240 -21 q 338 108 324 50 q 349 233 351 167 l 333 654 q 324 688 332 678 q 303 699 315 697 q 282 692 293 700 q 260 663 271 685 l 58 253 "},"?":{"ha":936,"x_min":36,"x_max":908,"o":"m 299 378 q 285 342 285 363 q 294 315 285 326 q 321 303 304 303 q 344 310 335 303 l 665 500 q 794 585 740 544 q 878 677 849 626 q 908 800 908 728 q 874 929 908 876 q 782 1015 840 982 q 649 1064 724 1049 q 496 1079 575 1079 q 315 1065 400 1079 q 167 1022 231 1051 q 70 944 104 992 q 42 832 36 897 q 78 742 47 764 q 151 719 110 719 q 215 731 179 719 q 286 764 251 742 l 585 953 q 628 975 607 967 q 668 983 650 983 q 713 970 696 983 q 731 932 731 957 q 719 889 731 914 q 679 835 707 864 l 299 378 m 574 75 q 551 160 579 131 q 480 201 524 190 q 390 213 436 213 q 294 183 318 213 q 265 108 269 153 q 292 26 261 56 q 372 -17 324 -4 q 465 -29 419 -29 q 538 -6 506 -29 q 574 75 569 18 "},"¿":{"ha":936,"x_min":42,"x_max":914,"o":"m 376 975 q 399 890 372 919 q 470 849 426 860 q 560 838 514 838 q 656 868 632 838 q 685 942 681 899 q 658 1024 690 994 q 578 1067 626 1054 q 485 1079 531 1079 q 413 1056 444 1079 q 376 975 381 1032 m 651 672 q 665 708 665 688 q 656 735 665 724 q 629 747 646 747 q 606 740 617 747 l 285 550 q 156 465 211 507 q 72 373 101 424 q 42 250 42 322 q 76 121 42 174 q 168 35 110 68 q 301 -14 226 1 q 454 -29 375 -29 q 635 -15 550 -29 q 783 28 719 -1 q 880 106 846 58 q 908 218 914 153 q 872 308 903 286 q 799 331 840 331 q 735 319 771 331 q 664 286 699 308 l 365 97 q 322 75 343 83 q 282 67 301 67 q 238 80 256 67 q 219 118 219 93 q 231 162 219 138 q 271 215 243 186 l 651 672 "},"·":{"ha":392,"x_min":38,"x_max":356,"o":"m 350 521 q 328 606 356 576 q 256 647 300 636 q 167 658 213 658 q 70 628 94 658 q 42 554 46 599 q 69 472 38 501 q 148 429 100 442 q 242 417 196 417 q 314 440 282 417 q 350 521 346 464 "},"•":{"ha":515,"x_min":38,"x_max":478,"o":"m 472 475 q 457 571 478 533 q 398 629 436 608 q 313 658 360 650 q 217 667 265 667 q 114 647 150 667 q 63 595 78 628 q 43 521 47 563 q 62 429 38 467 q 129 370 86 392 q 224 339 172 349 q 322 329 275 329 q 423 362 379 329 q 472 475 467 394 "},"*":{"ha":786,"x_min":83,"x_max":744,"o":"m 204 818 q 116 815 149 833 q 83 750 83 797 q 107 694 83 711 q 171 689 131 676 l 363 754 q 374 752 369 757 q 376 739 379 747 l 279 515 q 283 447 264 476 q 339 417 301 417 q 392 446 376 417 q 411 514 408 475 l 415 728 q 423 740 417 739 q 435 736 429 740 l 572 628 q 621 592 601 607 q 661 576 640 576 q 721 599 697 576 q 744 658 744 622 q 728 705 744 683 q 676 733 713 726 l 447 775 q 438 785 438 775 q 442 793 438 789 l 639 943 q 678 1001 678 975 q 653 1048 678 1029 q 606 1065 629 1067 q 540 1017 569 1063 l 422 824 q 413 817 419 817 q 401 825 404 817 l 376 979 q 353 1038 369 1015 q 297 1060 336 1060 q 238 1040 264 1060 q 213 989 213 1021 q 219 958 213 975 q 242 924 225 942 l 365 800 q 367 787 371 794 q 353 782 363 779 l 204 818 "},"#":{"ha":1196,"x_min":39,"x_max":1186,"o":"m 940 964 q 952 1019 958 993 q 926 1060 946 1044 q 880 1077 906 1076 q 832 1058 854 1078 q 799 994 810 1039 l 733 710 q 747 677 728 682 q 782 699 767 672 l 940 964 m 694 964 q 691 1038 706 1011 q 650 1073 676 1065 q 596 1069 624 1081 q 551 1030 568 1058 q 542 957 535 1001 l 583 685 q 579 649 588 657 q 560 644 571 640 q 542 656 549 647 l 458 767 q 389 816 425 811 q 324 801 353 821 q 288 749 296 782 q 299 685 279 717 q 381 636 319 654 l 499 603 q 586 606 556 586 q 626 668 617 625 l 694 964 m 1038 494 q 1129 515 1096 493 q 1174 569 1163 536 q 1179 638 1186 603 q 1149 699 1172 674 q 1089 732 1126 725 q 1003 714 1051 739 l 679 556 q 653 525 653 542 q 686 507 654 508 l 1038 494 m 574 431 q 603 453 601 432 q 581 479 604 474 l 154 603 q 86 598 113 615 q 49 549 60 581 q 44 488 39 518 q 83 431 53 444 q 183 419 114 418 l 574 431 m 596 104 q 603 31 585 57 q 653 1 622 6 q 710 11 685 -3 q 748 53 735 26 q 750 122 761 79 l 701 304 q 699 353 692 340 q 718 374 707 367 q 753 378 729 381 q 799 347 778 376 l 882 238 q 951 189 915 194 q 1015 203 988 183 q 1052 254 1043 222 q 1040 318 1061 286 q 958 368 1019 350 l 782 421 q 695 418 726 438 q 653 354 664 399 l 596 104 m 351 142 q 322 67 322 101 q 340 10 321 32 q 386 -19 360 -12 q 450 -8 425 -29 q 490 79 475 13 l 550 326 q 538 365 558 363 q 503 347 518 367 l 351 142 "},"/":{"ha":589,"x_min":8,"x_max":586,"o":"m 557 925 q 576 1021 586 981 q 514 1074 567 1061 q 445 1063 476 1083 q 386 971 414 1042 l 18 25 q 17 -11 8 1 q 42 -21 26 -24 q 69 4 58 -18 l 557 925 "},"\\":{"ha":589,"x_min":4,"x_max":582,"o":"m 65 1051 q 38 1076 54 1074 q 13 1067 22 1079 q 14 1031 4 1056 l 382 85 q 441 -7 410 14 q 510 -18 472 -28 q 572 35 563 -6 q 553 131 582 75 l 65 1051 "},"(":{"ha":524,"x_min":97,"x_max":506,"o":"m 313 211 q 195 370 242 294 q 150 519 149 446 q 195 669 149 593 q 313 828 242 744 l 458 996 q 494 1103 506 1051 q 438 1175 483 1154 q 349 1171 394 1194 q 257 1069 304 1147 q 135 792 174 931 q 97 519 97 654 q 135 247 97 385 q 257 -31 174 108 q 349 -132 304 -108 q 438 -136 394 -156 q 494 -64 483 -115 q 458 43 506 -12 l 313 211 "},")":{"ha":524,"x_min":18,"x_max":426,"o":"m 267 1069 q 175 1171 219 1147 q 86 1175 131 1194 q 29 1103 40 1154 q 65 996 18 1051 l 211 828 q 328 669 282 744 q 374 519 375 593 q 328 370 375 446 q 211 211 282 294 l 65 43 q 29 -64 18 -12 q 86 -136 40 -115 q 175 -132 131 -156 q 267 -31 219 -108 q 388 247 350 108 q 426 519 426 385 q 388 792 426 654 q 267 1069 350 931 "},"{":{"ha":585,"x_min":28,"x_max":549,"o":"m 253 383 q 209 451 222 422 q 197 519 196 481 q 209 588 196 558 q 253 656 222 617 l 508 992 q 547 1074 544 1036 q 528 1138 549 1111 q 477 1176 508 1164 q 413 1181 446 1188 q 358 1143 381 1174 q 336 1054 336 1113 l 336 911 q 310 813 336 847 q 251 760 285 778 l 157 708 q 58 629 89 669 q 28 519 28 589 q 58 410 28 450 q 157 331 89 371 l 251 279 q 310 227 285 261 q 336 128 336 193 l 336 -15 q 358 -104 336 -74 q 413 -142 381 -135 q 477 -137 446 -149 q 528 -99 508 -125 q 547 -35 549 -72 q 508 47 544 3 l 253 383 "},"}":{"ha":585,"x_min":36,"x_max":557,"o":"m 333 760 q 274 813 300 778 q 249 911 249 847 l 249 1054 q 226 1143 249 1113 q 172 1181 204 1174 q 108 1176 139 1188 q 56 1138 76 1164 q 38 1074 36 1111 q 76 992 40 1036 l 332 656 q 376 588 363 617 q 388 519 389 558 q 376 451 389 481 q 332 383 363 422 l 76 47 q 38 -35 40 3 q 56 -99 36 -72 q 108 -137 76 -125 q 172 -142 139 -149 q 226 -104 204 -135 q 249 -15 249 -74 l 249 128 q 274 227 249 193 q 333 279 300 261 l 428 331 q 526 410 496 371 q 557 519 557 450 q 526 629 557 589 q 428 708 496 669 l 333 760 "},"[":{"ha":625,"x_min":111,"x_max":597,"o":"m 322 -7 q 244 -9 271 -29 q 238 67 218 11 q 263 179 253 108 q 277 338 272 250 q 281 518 282 425 q 276 699 281 611 q 261 857 271 786 q 238 971 251 928 q 244 1048 218 1028 q 322 1044 271 1068 l 468 982 q 533 979 504 968 q 580 1019 563 990 q 597 1083 597 1047 q 569 1158 597 1135 q 496 1183 542 1182 q 396 1164 450 1183 l 282 1122 q 156 1023 201 1090 q 111 826 111 956 l 111 211 q 156 15 111 82 q 282 -85 201 -53 l 396 -126 q 496 -145 450 -146 q 569 -120 542 -144 q 597 -46 597 -96 q 580 19 597 -10 q 533 60 563 49 q 468 56 504 71 l 322 -7 "},"]":{"ha":625,"x_min":28,"x_max":514,"o":"m 157 56 q 92 60 121 71 q 45 19 63 49 q 28 -46 28 -10 q 56 -120 28 -96 q 129 -145 83 -144 q 229 -126 175 -146 l 343 -85 q 469 15 425 -53 q 514 211 514 82 l 514 826 q 469 1023 514 956 q 343 1122 425 1090 l 229 1164 q 129 1183 175 1183 q 56 1158 83 1182 q 28 1083 28 1135 q 45 1019 28 1047 q 92 979 63 990 q 157 982 121 968 l 303 1044 q 381 1048 354 1068 q 388 971 407 1028 q 364 857 374 928 q 349 699 354 786 q 344 518 344 611 q 348 338 343 425 q 363 179 353 250 q 388 67 372 108 q 381 -9 407 11 q 303 -7 356 -29 l 157 56 "},"-":{"ha":619,"x_min":56,"x_max":571,"o":"m 463 467 q 549 502 526 465 q 560 581 571 539 q 516 638 550 619 q 408 633 482 657 l 92 532 q 59 499 56 521 q 89 476 63 478 l 463 467 "},"–":{"ha":1078,"x_min":54,"x_max":1029,"o":"m 921 467 q 1007 502 985 465 q 1018 581 1029 539 q 976 632 1008 619 q 867 633 943 644 l 92 532 q 60 515 67 529 q 63 489 54 501 q 89 476 71 476 l 921 467 "},"—":{"ha":1411,"x_min":54,"x_max":1363,"o":"m 1254 467 q 1340 502 1318 465 q 1351 581 1363 539 q 1309 630 1342 619 q 1200 633 1276 640 l 92 532 q 60 517 67 531 q 63 490 54 503 q 89 476 71 476 l 1254 467 "},"_":{"ha":1175,"x_min":54,"x_max":1029,"o":"m 921 -187 q 1007 -152 985 -189 q 1018 -74 1029 -115 q 976 -22 1008 -35 q 867 -21 943 -10 l 92 -122 q 60 -139 67 -125 q 63 -165 54 -153 q 89 -178 71 -178 l 921 -187 "},"‚":{"ha":400,"x_min":22,"x_max":363,"o":"m 28 -137 q 41 -174 22 -164 q 76 -172 60 -185 l 313 3 q 335 26 325 13 q 351 58 346 39 q 347 138 363 96 q 269 201 331 179 q 190 216 231 215 q 118 197 149 217 q 78 128 88 176 l 28 -137 "},"„":{"ha":763,"x_min":22,"x_max":725,"o":"m 26 -140 q 42 -178 22 -167 q 75 -175 61 -190 l 317 83 q 336 107 328 94 q 350 139 344 119 q 345 218 361 176 q 268 282 329 260 q 188 297 229 296 q 115 277 146 297 q 76 208 83 257 l 26 -140 m 390 -57 q 403 -94 385 -83 q 439 -92 422 -104 l 675 83 q 698 106 688 93 q 714 139 708 119 q 709 218 725 176 q 632 282 693 260 q 552 297 593 296 q 481 277 511 297 q 440 208 450 257 l 390 -57 "},"“":{"ha":763,"x_min":39,"x_max":740,"o":"m 736 1035 q 722 1074 740 1063 q 688 1069 703 1085 l 446 811 q 427 788 436 800 q 413 756 418 775 q 418 676 403 718 q 494 613 433 635 q 575 598 533 599 q 648 617 617 597 q 686 686 679 638 l 736 1035 m 372 951 q 359 989 378 979 q 324 986 340 999 l 88 811 q 65 788 75 801 q 49 756 54 775 q 54 676 39 718 q 131 613 69 635 q 210 598 169 599 q 283 617 251 597 q 322 686 314 638 l 372 951 "},"”":{"ha":763,"x_min":22,"x_max":725,"o":"m 26 640 q 42 602 22 614 q 75 606 61 590 l 317 864 q 336 888 328 875 q 350 919 344 900 q 345 999 361 957 q 268 1063 329 1040 q 188 1077 229 1076 q 115 1058 146 1078 q 76 989 83 1038 l 26 640 m 390 724 q 403 687 385 697 q 439 689 422 676 l 675 864 q 698 887 688 874 q 714 919 708 900 q 709 999 725 957 q 632 1063 693 1040 q 552 1077 593 1076 q 481 1058 511 1078 q 440 989 450 1038 l 390 724 "},"‘":{"ha":400,"x_min":39,"x_max":378,"o":"m 372 1036 q 359 1074 378 1064 q 324 1071 340 1083 l 88 896 q 65 873 75 886 q 49 840 54 860 q 54 761 39 803 q 131 697 69 719 q 210 683 169 683 q 283 702 251 682 q 322 771 314 722 l 372 1036 "},"’":{"ha":400,"x_min":22,"x_max":363,"o":"m 28 724 q 41 687 22 697 q 76 689 60 676 l 313 864 q 335 887 325 874 q 351 919 346 900 q 347 999 363 957 q 269 1063 331 1040 q 190 1077 231 1076 q 118 1058 149 1078 q 78 989 88 1038 l 28 724 "},"«":{"ha":965,"x_min":36,"x_max":899,"o":"m 190 531 q 183 567 176 546 q 211 597 189 588 l 600 768 q 654 813 640 786 q 663 870 668 840 q 638 924 657 900 q 574 958 611 958 q 483 913 536 957 l 90 572 q 46 503 56 542 q 51 428 36 464 q 99 369 65 392 l 533 89 q 551 82 542 83 q 567 90 560 81 q 570 106 574 100 q 560 119 567 113 l 190 531 m 885 733 q 895 747 892 740 q 892 763 899 753 q 877 771 885 774 q 858 764 869 768 l 454 582 q 409 540 425 569 q 397 476 393 510 q 432 414 401 442 l 703 172 q 792 126 754 126 q 857 161 831 126 q 883 219 876 186 q 877 279 890 251 q 821 317 864 307 l 554 382 q 522 412 531 389 q 532 449 514 435 l 885 733 "},"»":{"ha":965,"x_min":44,"x_max":907,"o":"m 383 119 q 374 106 378 113 q 376 90 369 100 q 392 82 383 81 q 410 89 401 83 l 844 369 q 893 428 879 392 q 898 503 907 464 q 853 572 889 542 l 460 913 q 371 958 408 957 q 306 924 333 958 q 281 870 286 900 q 289 813 275 840 q 343 768 303 786 l 732 597 q 762 567 756 588 q 753 531 768 546 l 383 119 m 411 449 q 421 412 429 435 q 389 382 413 389 l 122 317 q 67 279 81 307 q 60 219 53 251 q 86 161 68 186 q 151 126 113 126 q 240 172 189 126 l 511 414 q 547 476 543 442 q 534 540 550 510 q 489 582 518 569 l 85 764 q 67 771 75 768 q 51 763 58 774 q 48 747 44 753 q 58 733 51 740 l 411 449 "},"‹":{"ha":833,"x_min":74,"x_max":731,"o":"m 272 497 q 283 603 272 568 q 324 653 293 638 q 379 664 351 667 q 442 628 407 661 l 486 586 q 551 542 519 556 q 601 528 583 528 q 692 565 654 528 q 731 685 731 603 q 709 768 731 736 q 656 815 688 800 q 590 831 624 831 q 513 820 551 831 q 421 778 475 810 l 207 657 q 108 584 143 621 q 74 497 74 547 q 108 410 74 447 q 207 338 143 374 l 421 217 q 513 175 475 186 q 590 164 551 164 q 656 179 624 164 q 709 227 688 194 q 731 310 731 260 q 692 429 731 392 q 601 467 654 467 q 551 453 583 467 q 486 408 519 440 l 442 367 q 379 331 407 333 q 324 342 351 328 q 283 392 293 357 q 272 497 272 426 "},"›":{"ha":833,"x_min":103,"x_max":760,"o":"m 561 497 q 551 392 561 426 q 510 342 540 357 q 456 331 483 328 q 392 367 428 333 l 347 408 q 283 453 314 440 q 232 467 251 467 q 142 429 181 467 q 103 310 103 392 q 124 227 103 260 q 178 179 146 194 q 243 164 211 164 q 321 175 283 164 q 413 217 358 186 l 626 338 q 726 410 692 374 q 760 497 760 447 q 726 584 760 547 q 626 657 692 621 l 413 778 q 321 820 358 810 q 243 831 283 831 q 178 815 211 831 q 124 768 146 800 q 103 685 103 736 q 142 565 103 603 q 232 528 181 528 q 283 542 251 528 q 347 586 314 556 l 392 628 q 456 664 428 661 q 510 653 483 667 q 551 603 540 638 q 561 497 561 568 "},"\"":{"ha":768,"x_min":22,"x_max":731,"o":"m 28 722 q 41 685 22 696 q 76 688 60 675 l 313 863 q 335 885 325 872 q 351 918 346 899 q 347 997 363 956 q 269 1061 331 1039 q 190 1076 231 1075 q 118 1056 149 1076 q 78 988 88 1036 l 28 722 m 396 722 q 409 685 390 696 q 444 688 428 675 l 681 863 q 703 885 693 872 q 719 918 714 899 q 715 997 731 956 q 638 1061 699 1039 q 558 1076 599 1075 q 486 1056 517 1076 q 446 988 456 1036 l 396 722 "},"'":{"ha":400,"x_min":22,"x_max":363,"o":"m 28 722 q 41 685 22 696 q 76 688 60 675 l 313 863 q 335 885 325 872 q 351 918 346 899 q 347 997 363 956 q 269 1061 331 1039 q 190 1076 231 1075 q 118 1056 149 1076 q 78 988 88 1036 l 28 722 "},"$":{"ha":1232,"x_min":104,"x_max":1160,"o":"m 506 703 q 469 754 469 721 q 504 809 468 786 q 610 810 540 832 l 892 722 q 1028 699 976 696 q 1109 724 1081 703 q 1148 776 1138 746 q 1158 832 1158 806 q 1137 914 1160 878 q 1063 961 1114 950 q 924 940 1011 972 l 690 854 q 631 858 644 838 q 632 900 618 878 l 724 1049 q 748 1147 757 1103 q 704 1216 739 1190 q 624 1242 669 1242 q 522 1194 551 1242 q 519 1058 492 1146 l 572 894 q 559 865 579 875 q 521 871 539 856 l 444 936 q 335 988 393 979 q 226 975 278 996 q 143 908 175 954 q 111 797 111 863 q 125 718 111 758 q 176 645 139 678 q 281 596 213 613 l 494 543 q 540 520 528 535 q 558 478 553 506 l 572 404 q 558 278 586 331 q 443 169 529 226 l 340 103 q 291 89 315 86 q 259 110 267 92 q 272 161 251 129 l 397 349 q 417 389 410 368 q 421 428 425 410 q 367 478 413 463 q 261 481 321 494 q 140 401 176 460 q 104 275 104 343 q 129 156 104 208 q 197 70 154 103 q 290 35 239 38 q 393 65 342 32 l 539 158 q 574 158 569 178 q 564 111 578 138 l 493 -28 q 469 -146 457 -99 q 522 -217 482 -193 q 607 -240 561 -240 q 683 -218 649 -239 q 731 -156 718 -197 q 719 -51 744 -114 l 629 182 q 631 210 622 200 q 653 220 639 219 q 678 208 668 221 l 756 122 q 829 58 789 85 q 919 32 869 32 q 1031 64 986 32 q 1099 148 1075 96 q 1125 261 1122 200 q 1119 343 1126 300 q 1076 428 1111 386 q 961 504 1042 469 l 506 703 m 774 292 q 660 286 697 263 q 635 394 622 310 l 644 461 q 666 505 649 493 q 728 504 683 517 l 958 442 q 988 426 975 438 q 997 404 1000 415 q 983 381 997 394 q 942 357 969 368 l 774 292 "},"€":{"ha":1181,"x_min":21,"x_max":1146,"o":"m 675 836 q 635 881 646 857 q 624 929 624 906 q 649 988 624 963 q 713 1017 675 1014 q 788 986 751 1021 l 1003 779 q 1069 755 1036 747 q 1124 796 1101 763 q 1146 871 1146 829 q 1114 969 1146 922 q 1009 1047 1082 1017 q 813 1076 936 1076 q 623 1052 701 1076 q 483 978 544 1028 q 361 853 422 929 q 297 790 326 808 q 235 760 267 771 l 122 719 q 85 705 100 713 q 69 674 69 697 q 83 642 69 656 q 126 611 96 629 q 149 592 138 606 q 160 565 160 579 q 147 529 160 540 q 115 514 133 518 l 78 504 q 38 485 56 499 q 21 442 21 472 q 36 411 21 424 q 92 379 51 399 l 154 350 q 233 308 204 328 q 280 265 263 288 q 313 207 297 242 q 399 78 349 129 q 531 3 449 28 q 740 -21 613 -21 q 937 -5 863 -21 q 1049 37 1011 11 q 1099 92 1086 63 q 1114 147 1113 121 q 1092 208 1115 183 q 1033 238 1069 232 q 956 225 996 244 l 631 69 q 547 60 582 46 q 499 110 511 75 q 503 187 486 146 q 579 257 521 228 l 864 401 q 903 423 893 417 q 914 447 914 429 q 903 476 914 464 q 861 486 892 488 l 353 472 q 272 491 310 471 q 235 560 235 511 q 274 637 235 618 q 360 650 313 656 l 903 586 q 944 592 933 583 q 956 618 956 600 q 944 644 956 635 q 906 672 932 654 l 675 836 "},"£":{"ha":1176,"x_min":14,"x_max":1147,"o":"m 660 321 q 622 347 633 328 q 616 390 610 367 q 650 426 622 413 l 739 471 q 806 517 775 490 q 838 565 838 543 q 811 610 838 593 q 731 638 785 626 l 406 708 q 310 762 350 721 q 271 864 271 803 q 298 949 271 918 q 367 982 325 979 q 456 957 410 985 l 758 774 q 866 742 818 738 q 943 776 914 746 q 975 849 972 807 q 933 973 979 922 q 801 1050 886 1024 q 604 1076 717 1076 q 401 1060 479 1076 q 279 1016 322 1044 q 220 951 236 988 q 204 874 204 915 q 286 694 204 792 l 564 356 q 585 278 610 299 q 504 299 558 254 l 326 440 q 246 487 285 474 q 178 500 207 500 q 99 483 138 500 q 38 431 61 467 q 14 336 14 396 q 58 142 14 222 q 181 19 103 61 q 361 -22 260 -22 q 483 22 426 -22 q 569 126 539 65 l 599 186 q 636 222 614 218 q 683 190 658 225 l 772 65 q 839 5 797 31 q 940 -21 881 -21 q 1030 17 997 -21 q 1081 143 1063 54 l 1139 435 q 1132 500 1147 474 q 1090 540 1117 526 q 1036 554 1064 554 q 982 537 1004 554 q 956 490 960 519 q 978 422 953 460 l 1039 332 q 1048 265 1064 296 q 982 246 1032 235 l 660 321 m 467 261 q 492 222 488 244 q 481 179 497 199 q 421 151 465 160 l 204 110 q 156 121 174 104 q 138 163 139 138 q 153 210 136 189 l 240 315 q 371 336 303 390 l 467 261 "},"=":{"ha":893,"x_min":50,"x_max":846,"o":"m 151 665 q 69 623 88 663 q 64 543 50 583 q 110 496 76 506 q 219 504 144 486 l 783 638 q 812 657 807 643 q 808 683 817 671 q 781 694 799 696 l 151 665 m 744 294 q 827 337 808 297 q 832 417 846 376 q 785 464 819 454 q 676 456 751 474 l 113 322 q 84 303 89 317 q 88 277 79 289 q 115 265 97 265 l 744 294 "},"^":{"ha":833,"x_min":78,"x_max":744,"o":"m 411 1033 q 454 1007 433 1033 l 547 872 q 594 822 574 835 q 638 810 615 810 q 715 844 686 810 q 744 942 744 878 q 720 1025 744 990 q 638 1065 696 1060 q 525 1074 582 1071 q 411 1075 468 1076 q 299 1074 356 1076 q 185 1065 242 1071 q 101 1025 125 1060 q 78 942 78 990 q 107 844 78 878 q 185 810 136 810 q 227 822 207 810 q 274 872 247 835 l 368 1007 q 411 1033 386 1033 "},"%":{"ha":1085,"x_min":68,"x_max":1029,"o":"m 997 888 q 1028 957 1028 924 q 1010 1017 1029 990 q 960 1060 990 1044 q 897 1076 929 1076 l 354 1075 q 194 1040 257 1075 q 100 951 131 1006 q 69 835 69 897 q 97 719 68 774 q 180 631 125 665 q 314 596 235 596 q 387 619 353 596 q 446 676 421 642 q 485 747 471 711 q 499 806 499 782 q 473 874 499 853 q 414 894 447 896 q 358 869 381 893 q 340 801 335 846 l 354 692 q 347 656 358 667 q 317 649 335 644 q 286 674 300 653 l 181 844 q 174 906 158 882 q 215 935 190 929 l 763 1036 q 796 1024 781 1040 q 793 975 811 1007 l 185 21 q 180 0 179 11 q 193 -18 181 -11 q 238 -4 215 -31 l 997 888 m 817 371 q 617 179 617 371 q 817 -11 617 -11 q 1015 179 1015 -11 q 817 371 1015 371 m 788 283 q 831 296 807 304 q 863 264 854 288 l 901 146 q 892 90 915 104 q 835 89 868 75 l 735 133 q 703 165 708 144 q 717 207 697 186 l 788 283 "},"@":{"ha":1339,"x_min":83,"x_max":1256,"o":"m 646 715 q 663 748 654 739 q 685 757 671 757 q 718 724 707 757 l 836 379 q 901 290 857 319 q 1006 260 946 260 q 1151 295 1096 260 q 1231 389 1206 331 q 1256 515 1256 447 q 1224 708 1256 610 q 1126 890 1192 806 q 958 1025 1060 974 q 718 1076 857 1076 q 467 1026 583 1076 q 265 884 351 975 q 131 670 179 793 q 83 401 83 547 q 183 97 83 192 q 500 1 282 3 l 1044 0 q 1135 33 1104 0 q 1167 110 1167 67 q 1119 200 1167 171 q 1003 218 1072 229 l 349 122 q 255 140 286 113 q 242 235 224 167 l 410 850 q 464 944 426 913 q 547 979 501 975 q 638 967 593 983 q 718 918 683 950 l 1135 528 q 1176 451 1176 489 q 1155 390 1176 414 q 1107 365 1133 365 q 1037 391 1069 365 q 965 476 1004 417 l 793 743 q 746 802 768 782 q 683 822 724 822 q 627 803 650 822 q 579 743 604 783 l 394 438 q 376 347 367 390 q 422 283 386 304 q 508 282 458 263 l 675 347 q 743 387 715 363 q 771 450 771 411 q 743 513 771 492 q 680 526 715 533 q 618 476 644 518 l 528 331 q 509 325 522 321 q 503 347 496 329 l 646 715 "},"&":{"ha":1293,"x_min":69,"x_max":1293,"o":"m 838 464 q 820 508 810 492 q 861 535 831 525 l 1174 625 q 1265 681 1238 644 q 1293 756 1293 717 q 1258 844 1293 804 q 1169 883 1222 883 q 1110 869 1142 883 q 1046 821 1078 854 l 801 564 q 751 514 771 532 q 715 488 732 496 q 671 481 697 481 q 614 506 633 481 q 561 590 594 531 l 372 931 q 365 984 358 960 q 392 1022 372 1008 q 439 1032 413 1035 q 490 1003 465 1029 l 703 782 q 784 742 742 742 q 858 770 826 743 q 900 833 890 797 q 883 947 915 892 q 762 1038 851 1001 q 514 1076 672 1075 q 322 1054 399 1078 q 202 994 246 1031 q 140 917 158 958 q 121 842 121 876 q 151 735 121 781 q 251 657 182 690 q 436 594 319 624 q 472 556 472 586 q 463 532 472 542 q 429 519 453 522 l 276 507 q 151 469 196 501 q 88 386 106 438 q 69 267 69 335 q 103 122 69 178 q 191 34 136 65 q 312 -9 246 3 q 442 -21 378 -21 q 618 6 538 -21 q 758 103 699 33 q 788 135 775 122 q 819 149 801 149 q 842 138 833 149 q 861 115 851 128 l 899 67 q 969 -1 936 18 q 1049 -21 1003 -21 q 1113 -1 1085 -21 q 1156 51 1142 19 q 1165 120 1171 83 q 1125 189 1158 157 l 838 464 m 764 258 q 787 206 789 229 q 743 183 785 183 l 231 179 q 181 208 186 179 q 207 261 176 238 l 442 444 q 506 487 482 475 q 550 489 529 499 q 601 444 571 479 l 764 258 "},"°":{"ha":565,"x_min":83,"x_max":482,"o":"m 283 1076 q 83 885 83 1076 q 283 694 83 694 q 482 885 482 694 q 283 1076 482 1076 m 254 989 q 297 1001 274 1010 q 329 969 321 993 l 368 851 q 359 795 383 810 q 301 794 335 781 l 201 839 q 169 871 175 850 q 183 913 164 892 l 254 989 "},"№":{"ha":1892,"x_min":83,"x_max":1803,"o":"m 269 -21 q 380 18 344 -21 q 416 122 415 57 q 385 264 417 188 l 196 726 q 178 790 186 750 q 171 858 171 829 q 203 957 171 918 q 294 996 236 996 q 358 969 332 996 q 376 889 385 942 l 364 810 q 368 694 356 753 q 406 585 381 636 q 460 494 432 533 l 690 175 q 775 64 740 107 q 842 0 810 21 q 917 -21 875 -21 q 1021 26 985 -21 q 1068 174 1057 74 l 1139 817 q 1133 940 1146 881 q 1081 1039 1119 1000 q 974 1078 1043 1078 q 882 1052 915 1078 q 835 990 849 1026 q 821 917 821 953 q 824 854 821 892 q 853 750 826 817 l 981 421 q 1002 362 994 386 q 1010 318 1010 338 q 958 272 1010 272 q 923 289 940 272 q 881 344 906 306 l 551 860 q 472 974 510 925 q 394 1049 435 1022 q 297 1076 353 1076 q 176 1046 224 1076 q 106 933 128 1015 q 83 694 83 851 l 83 319 q 88 182 83 244 q 108 74 92 119 q 163 3 125 28 q 269 -21 201 -21 m 1539 1076 q 1333 1012 1408 1076 q 1258 821 1258 947 q 1333 631 1258 694 q 1539 568 1408 568 q 1803 821 1803 568 q 1539 1076 1803 1076 m 1564 692 q 1507 676 1539 665 q 1464 718 1475 686 l 1413 875 q 1426 951 1394 931 q 1501 951 1457 971 l 1635 892 q 1676 849 1669 876 q 1658 794 1683 822 l 1564 692 m 1681 296 q 1767 331 1744 294 q 1778 410 1789 368 q 1734 467 1768 449 q 1626 463 1700 486 l 1310 361 q 1277 328 1274 350 q 1307 306 1281 307 l 1681 296 "},"ʼ":{"ha":400,"x_min":22,"x_max":363,"o":"m 28 722 q 41 685 22 696 q 76 688 60 675 l 313 863 q 335 885 325 872 q 351 918 346 899 q 347 997 363 956 q 269 1061 331 1039 q 190 1076 231 1075 q 118 1056 149 1076 q 78 988 88 1036 l 28 722 "},"̈":{"ha":0,"x_min":-689,"x_max":-131,"o":"m -571 1160 q -503 1179 -535 1165 q -453 1219 -471 1193 q -447 1288 -436 1246 q -484 1346 -457 1332 q -543 1354 -511 1360 q -613 1333 -578 1349 q -669 1291 -649 1318 q -679 1224 -689 1264 q -649 1171 -671 1192 q -571 1160 -626 1150 m -319 1183 q -253 1163 -287 1169 q -189 1170 -218 1157 q -146 1224 -160 1183 q -146 1292 -131 1265 q -190 1332 -161 1318 q -261 1353 -222 1347 q -331 1348 -300 1360 q -376 1297 -362 1336 q -378 1236 -386 1265 q -319 1183 -371 1207 "},"̇":{"ha":0,"x_min":-551,"x_max":-251,"o":"m -457 1132 q -373 1122 -415 1122 q -299 1142 -331 1121 q -261 1214 -268 1163 q -275 1294 -251 1267 q -335 1332 -299 1322 q -422 1342 -376 1343 q -503 1322 -468 1342 q -546 1254 -537 1303 q -536 1181 -551 1214 q -457 1132 -521 1147 "},"̀":{"ha":0,"x_min":-726,"x_max":-339,"o":"m -378 1117 q -347 1131 -356 1113 q -353 1161 -339 1150 l -556 1328 q -617 1353 -583 1351 q -677 1338 -650 1354 q -714 1288 -704 1321 q -709 1212 -726 1247 q -632 1165 -692 1176 l -378 1117 "},"́":{"ha":0,"x_min":-512,"x_max":-125,"o":"m -219 1165 q -142 1212 -160 1176 q -137 1288 -125 1247 q -174 1338 -147 1321 q -235 1353 -201 1354 q -296 1328 -268 1351 l -499 1161 q -504 1131 -512 1150 q -474 1117 -496 1113 l -219 1165 "},"̋":{"ha":0,"x_min":-622,"x_max":25,"o":"m -58 1178 q 12 1234 -1 1197 q 7 1310 25 1271 q -36 1355 -7 1342 q -98 1362 -65 1368 q -156 1329 -131 1356 l -335 1139 q -337 1108 -347 1125 q -304 1097 -326 1092 l -58 1178 m -376 1201 q -319 1254 -328 1221 q -328 1319 -310 1288 q -368 1356 -342 1346 q -422 1358 -394 1365 q -469 1325 -450 1350 l -612 1147 q -612 1121 -622 1135 q -583 1114 -601 1107 l -376 1201 "},"̂":{"ha":0,"x_min":-696,"x_max":-140,"o":"m -418 1314 q -382 1292 -399 1314 l -304 1179 q -265 1138 -282 1149 q -229 1128 -247 1128 q -165 1156 -189 1128 q -140 1238 -140 1185 q -160 1307 -140 1278 q -229 1340 -181 1336 q -324 1347 -276 1344 q -418 1349 -371 1350 q -512 1347 -465 1350 q -607 1340 -560 1344 q -676 1307 -656 1336 q -696 1238 -696 1278 q -672 1156 -696 1185 q -607 1128 -647 1128 q -571 1138 -587 1128 q -532 1179 -554 1149 l -454 1292 q -418 1314 -437 1314 "},"̌":{"ha":0,"x_min":-696,"x_max":-140,"o":"m -418 1163 q -454 1185 -437 1163 l -532 1297 q -571 1339 -554 1329 q -607 1349 -587 1349 q -672 1320 -647 1349 q -696 1239 -696 1292 q -676 1170 -696 1200 q -607 1136 -656 1140 q -512 1129 -560 1132 q -418 1128 -465 1126 q -324 1129 -371 1126 q -229 1136 -276 1132 q -160 1170 -181 1140 q -140 1239 -140 1200 q -165 1320 -140 1292 q -229 1349 -189 1349 q -265 1339 -247 1349 q -304 1297 -282 1329 l -382 1185 q -418 1163 -399 1163 "},"̆":{"ha":0,"x_min":-689,"x_max":-147,"o":"m -418 1121 q -278 1133 -339 1119 q -182 1183 -217 1147 q -147 1281 -147 1219 q -170 1332 -147 1315 q -218 1349 -193 1349 q -272 1334 -249 1349 q -311 1283 -296 1319 q -353 1196 -333 1232 q -418 1160 -374 1160 q -483 1196 -462 1160 q -525 1283 -503 1232 q -563 1334 -540 1319 q -618 1349 -586 1349 q -666 1332 -643 1349 q -689 1281 -689 1315 q -654 1183 -689 1219 q -558 1133 -619 1147 q -418 1121 -497 1119 "},"̊":{"ha":0,"x_min":-589,"x_max":-235,"o":"m -468 1135 q -373 1126 -421 1126 q -289 1146 -325 1126 q -244 1217 -253 1165 q -265 1298 -235 1269 q -346 1335 -296 1326 q -445 1343 -393 1343 q -536 1324 -497 1343 q -585 1257 -575 1306 q -583 1206 -589 1231 q -551 1164 -578 1182 q -468 1135 -524 1146 m -387 1182 q -448 1179 -418 1174 q -483 1225 -478 1185 q -476 1267 -486 1253 q -451 1288 -467 1282 q -387 1291 -421 1297 q -347 1246 -353 1285 q -351 1208 -344 1225 q -387 1182 -358 1190 "},"̃":{"ha":0,"x_min":-760,"x_max":-101,"o":"m -394 1244 q -468 1312 -436 1292 q -537 1332 -500 1332 q -655 1317 -601 1332 q -734 1270 -708 1303 q -743 1183 -760 1238 q -701 1133 -732 1147 q -637 1128 -671 1119 q -585 1164 -604 1136 l -532 1240 q -478 1240 -508 1276 l -451 1208 q -381 1144 -414 1163 q -311 1126 -349 1126 q -158 1157 -214 1126 q -111 1268 -101 1188 q -143 1322 -115 1304 q -206 1335 -171 1340 q -264 1294 -240 1329 l -317 1218 q -371 1218 -339 1185 l -394 1244 "},"̄":{"ha":0,"x_min":-664,"x_max":-121,"o":"m -229 1156 q -143 1184 -165 1154 q -132 1256 -121 1214 q -174 1307 -142 1294 q -283 1308 -206 1319 l -600 1263 q -664 1210 -664 1254 q -649 1176 -664 1186 q -603 1165 -633 1167 l -229 1156 "},"̦":{"ha":0,"x_min":-526,"x_max":-229,"o":"m -525 -306 q -510 -342 -526 -332 q -476 -340 -494 -351 l -282 -221 q -235 -159 -242 -196 q -252 -87 -229 -122 q -325 -36 -275 -53 q -408 -22 -364 -22 q -483 -40 -451 -21 q -517 -110 -514 -60 l -525 -306 "},"̧":{"ha":0,"x_min":-675,"x_max":-175,"o":"m -669 -157 q -635 -226 -675 -200 q -518 -267 -596 -251 q -349 -276 -426 -283 q -223 -236 -271 -268 q -175 -147 -175 -204 q -193 -93 -175 -117 q -239 -55 -211 -69 q -296 -40 -267 -40 q -340 -47 -322 -40 q -374 -53 -358 -53 q -387 -39 -390 -53 q -365 29 -383 -25 l -437 29 l -501 -133 l -533 -107 q -588 -86 -558 -86 q -641 -104 -618 -86 q -669 -157 -664 -122 m -361 -215 q -401 -201 -387 -215 q -412 -169 -414 -187 q -394 -140 -411 -151 q -340 -115 -362 -121 q -297 -110 -318 -110 q -250 -150 -250 -110 q -281 -194 -250 -174 q -361 -215 -312 -215 "},"̨":{"ha":0,"x_min":-590,"x_max":-212,"o":"m -561 -33 q -586 -122 -590 -78 q -552 -201 -582 -165 q -474 -257 -522 -236 q -367 -278 -426 -278 q -257 -250 -301 -278 q -212 -172 -212 -222 q -233 -123 -212 -137 q -283 -108 -253 -108 q -344 -115 -314 -107 l -446 -142 q -493 -138 -476 -150 q -510 -106 -510 -126 q -501 -74 -510 -86 q -469 -51 -492 -61 l -354 1 q -340 15 -343 7 q -337 31 -337 22 q -367 84 -337 58 q -442 110 -397 110 q -476 93 -462 110 q -508 49 -490 76 l -561 -33 "},"¨":{"ha":833,"x_min":144,"x_max":703,"o":"m 263 1160 q 331 1179 299 1165 q 380 1219 363 1193 q 386 1288 397 1246 q 349 1346 376 1332 q 290 1354 322 1360 q 219 1333 256 1349 q 164 1291 183 1318 q 154 1224 144 1264 q 185 1171 163 1192 q 263 1160 207 1150 m 514 1183 q 581 1163 546 1169 q 644 1170 615 1157 q 688 1224 674 1183 q 688 1292 703 1265 q 643 1332 672 1318 q 572 1353 611 1347 q 502 1348 533 1360 q 457 1297 471 1336 q 455 1236 447 1265 q 514 1183 463 1207 "},"˙":{"ha":833,"x_min":282,"x_max":582,"o":"m 376 1132 q 460 1122 418 1122 q 534 1142 503 1121 q 572 1214 565 1163 q 558 1294 582 1267 q 499 1332 535 1322 q 411 1342 457 1343 q 331 1322 365 1342 q 288 1254 296 1303 q 297 1181 282 1214 q 376 1132 313 1147 "},"`":{"ha":833,"x_min":107,"x_max":494,"o":"m 456 1117 q 486 1131 478 1113 q 481 1161 494 1150 l 278 1328 q 217 1353 250 1351 q 156 1338 183 1354 q 119 1288 129 1321 q 124 1212 107 1247 q 201 1165 142 1176 l 456 1117 "},"´":{"ha":833,"x_min":321,"x_max":708,"o":"m 614 1165 q 691 1212 674 1176 q 696 1288 708 1247 q 659 1338 686 1321 q 599 1353 632 1354 q 538 1328 565 1351 l 335 1161 q 329 1131 321 1150 q 360 1117 338 1113 l 614 1165 "}}}
